<?xml version="1.0" standalone="no"?>
<!DOCTYPE svg PUBLIC "-//W3C//DTD SVG 1.1//EN" "http://www.w3.org/Graphics/SVG/1.1/DTD/svg11.dtd" >
<svg>
<metadata>
Created by FontForge 20090914 at Thu Dec  3 18:20:13 2020
 By www-data
</metadata>
<defs>
<font id="Ubuntu-Light" horiz-adv-x="564" >
  <font-face 
    font-family="Ubuntu Light"
    font-weight="300"
    font-stretch="normal"
    units-per-em="1000"
    panose-1="2 11 3 4 3 6 2 3 2 4"
    ascent="800"
    descent="-200"
    x-height="516.999"
    cap-height="693"
    bbox="-157 -196 1645 929.001"
    underline-thickness="56"
    underline-position="-77"
    unicode-range="U+000D-U+F000"
  />
<missing-glyph horiz-adv-x="500" 
d="M50 0v750h400v-750h-400zM400 50v650h-300v-650h300z" />
    <glyph glyph-name="f_f" unicode="ff" horiz-adv-x="752" 
d="M276 776c28 0 50.832 -2.16895 68.499 -6.50195s29.167 -8.16602 34.5 -11.499l-13 -56c-7.33301 3.33301 -18.166 6.83301 -32.499 10.5s-32.5 5.5 -54.5 5.5c-46 0 -78.833 -11.667 -98.5 -35s-29.5 -60.666 -29.5 -111.999v-54h208v-55h-208v-462h-65v573
c0 67.333 15.5 118 46.5 152s78.833 51 143.5 51zM651.999 775.998c28 0 50.832 -2.16895 68.499 -6.50195s29.167 -8.16602 34.5 -11.499l-13 -56c-7.33301 3.33301 -18.166 6.83301 -32.499 10.5s-32.5 5.5 -54.5 5.5c-46 0 -78.833 -11.667 -98.5 -35
s-29.5 -60.666 -29.5 -111.999v-54h208v-55h-208v-462h-65v573c0 67.333 15.5 118 46.5 152s78.833 51 143.5 51z" />
    <glyph glyph-name="f_i" unicode="fi" horiz-adv-x="613" 
d="M276 776c28 0 50.832 -2.16895 68.499 -6.50195s29.167 -8.16602 34.5 -11.499l-13 -56c-7.33301 3.33301 -18.166 6.83301 -32.499 10.5s-32.5 5.5 -54.5 5.5c-46 0 -78.833 -11.667 -98.5 -35s-29.5 -60.666 -29.5 -111.999v-54h208v-55h-208v-462h-65v573
c0 67.333 15.5 118 46.5 152s78.833 51 143.5 51zM526.999 -0.00195312h-65v517h65v-517zM541.999 672.998c0 -15.333 -4.66699 -27.5 -14 -36.5s-20.666 -13.5 -33.999 -13.5s-24.666 4.5 -33.999 13.5s-14 21.167 -14 36.5s4.66699 27.5 14 36.5s20.666 13.5 33.999 13.5
s24.666 -4.5 33.999 -13.5s14 -21.167 14 -36.5z" />
    <glyph glyph-name="f_l" unicode="fl" horiz-adv-x="631" 
d="M276 776c28 0 50.832 -2.16895 68.499 -6.50195s29.167 -8.16602 34.5 -11.499l-13 -56c-7.33301 3.33301 -18.166 6.83301 -32.499 10.5s-32.5 5.5 -54.5 5.5c-46 0 -78.833 -11.667 -98.5 -35s-29.5 -60.666 -29.5 -111.999v-54h208v-55h-208v-462h-65v573
c0 67.333 15.5 118 46.5 152s78.833 51 143.5 51zM592.999 -9.00195c-22 0.666992 -41.167 3.50293 -57.5 8.50293s-30 12.667 -41 23s-19.333 23.666 -25 39.999s-8.5 36.833 -8.5 61.5v640l65 12v-650c0 -16 1.5 -28.833 4.5 -38.5s7.5 -17.334 13.5 -23.001
s13.833 -9.83398 23.5 -12.501s21.167 -5 34.5 -7z" />
    <glyph glyph-name="f_f_i" unicode="ffi" horiz-adv-x="989" 
d="M276 776c28 0 50.832 -2.16895 68.499 -6.50195s29.167 -8.16602 34.5 -11.499l-13 -56c-7.33301 3.33301 -18.166 6.83301 -32.499 10.5s-32.5 5.5 -54.5 5.5c-46 0 -78.833 -11.667 -98.5 -35s-29.5 -60.666 -29.5 -111.999v-54h208v-55h-208v-462h-65v573
c0 67.333 15.5 118 46.5 152s78.833 51 143.5 51zM651.999 775.998c28 0 50.832 -2.16895 68.499 -6.50195s29.167 -8.16602 34.5 -11.499l-13 -56c-7.33301 3.33301 -18.166 6.83301 -32.499 10.5s-32.5 5.5 -54.5 5.5c-46 0 -78.833 -11.667 -98.5 -35
s-29.5 -60.666 -29.5 -111.999v-54h208v-55h-208v-462h-65v573c0 67.333 15.5 118 46.5 152s78.833 51 143.5 51zM902.998 -0.00390625h-65v517h65v-517zM917.998 672.996c0 -15.333 -4.66699 -27.5 -14 -36.5s-20.666 -13.5 -33.999 -13.5s-24.666 4.5 -33.999 13.5
s-14 21.167 -14 36.5s4.66699 27.5 14 36.5s20.666 13.5 33.999 13.5s24.666 -4.5 33.999 -13.5s14 -21.167 14 -36.5z" />
    <glyph glyph-name="f_f_l" unicode="ffl" horiz-adv-x="1007" 
d="M276 776c28 0 50.832 -2.16895 68.499 -6.50195s29.167 -8.16602 34.5 -11.499l-13 -56c-7.33301 3.33301 -18.166 6.83301 -32.499 10.5s-32.5 5.5 -54.5 5.5c-46 0 -78.833 -11.667 -98.5 -35s-29.5 -60.666 -29.5 -111.999v-54h208v-55h-208v-462h-65v573
c0 67.333 15.5 118 46.5 152s78.833 51 143.5 51zM651.999 775.998c28 0 50.832 -2.16895 68.499 -6.50195s29.167 -8.16602 34.5 -11.499l-13 -56c-7.33301 3.33301 -18.166 6.83301 -32.499 10.5s-32.5 5.5 -54.5 5.5c-46 0 -78.833 -11.667 -98.5 -35
s-29.5 -60.666 -29.5 -111.999v-54h208v-55h-208v-462h-65v573c0 67.333 15.5 118 46.5 152s78.833 51 143.5 51zM968.998 -9.00391c-22 0.666992 -41.167 3.50293 -57.5 8.50293s-30 12.667 -41 23s-19.333 23.666 -25 39.999s-8.5 36.833 -8.5 61.5v640l65 12v-650
c0 -16 1.5 -28.833 4.5 -38.5s7.5 -17.334 13.5 -23.001s13.833 -9.83398 23.5 -12.501s21.167 -5 34.5 -7z" />
    <glyph glyph-name=".notdef" horiz-adv-x="500" 
d="M50 0v750h400v-750h-400zM400 50v650h-300v-650h300z" />
    <glyph glyph-name=".null" horiz-adv-x="0" 
 />
    <glyph glyph-name=".null" horiz-adv-x="0" 
 />
    <glyph glyph-name="nonmarkingreturn" unicode="&#xd;" horiz-adv-x="228" 
 />
    <glyph glyph-name="space" unicode=" " horiz-adv-x="228" 
 />
    <glyph glyph-name="exclam" unicode="!" horiz-adv-x="274" 
d="M172 500c0 -28.667 -0.5 -55.501 -1.5 -80.501s-2.5 -49.167 -4.5 -72.5s-4.16699 -46 -6.5 -68s-4.83301 -44 -7.5 -66h-30c-6 44.667 -10.833 89.334 -14.5 134.001s-5.5 95.667 -5.5 153v193h70v-193zM192 42.999c0 -15.333 -4.83301 -28.333 -14.5 -39
s-23.167 -16 -40.5 -16s-30.833 5.33301 -40.5 16s-14.5 23.667 -14.5 39s4.83301 28.333 14.5 39s23.167 16 40.5 16s30.833 -5.33301 40.5 -16s14.5 -23.667 14.5 -39z" />
    <glyph glyph-name="quotedbl" unicode="&#x22;" horiz-adv-x="392" 
d="M308 760v-38.001c0 -33.333 -1.83301 -67.166 -5.5 -101.499s-8.5 -68.5 -14.5 -102.5h-33c-5.33301 34 -9.83301 68.167 -13.5 102.5s-5.5 68.5 -5.5 102.5v37h72zM156 759.999v-38.001c0 -33.333 -1.83301 -67.166 -5.5 -101.499s-8.5 -68.5 -14.5 -102.5h-33
c-5.33301 34 -9.83301 68.167 -13.5 102.5s-5.5 68.5 -5.5 102.5v37h72z" />
    <glyph glyph-name="numbersign" unicode="#" horiz-adv-x="653" 
d="M264 503h185l36 190h61l-36 -190h96v-53h-107l-39 -207h146v-54h-156l-37 -189h-61l37 189h-185l-37 -189h-61l37 189h-96v54h106l39 207h-145v53h156l36 190h61zM214 243h185l40 207h-185z" />
    <glyph glyph-name="dollar" unicode="$" 
d="M314 -109l-59.002 0.00195312v129c-45.333 0.666992 -83 5.5 -113 14.5s-52.333 17.833 -67 26.5l19 56c8.66699 -4.66699 18.334 -9.33398 29.001 -14.001s23 -9 37 -13s30.167 -7.16699 48.5 -9.5s39.833 -3.5 64.5 -3.5c26 0 48.167 2.66699 66.5 8
s33.333 12.5 45 21.5s20 19.833 25 32.5s7.5 26 7.5 40c0 22 -4.16699 40.333 -12.5 55s-20 27.5 -35 38.5s-33.167 20.667 -54.5 29l-70 26.5c-18 6.66699 -36.333 14.167 -55 22.5s-35.5 18.666 -50.5 30.999s-27.167 27.333 -36.5 45s-14 38.834 -14 63.501
c0 49.333 13.5 87.5 40.5 114.5s68.833 44.5 125.5 52.5v119h59v-116c31.333 -0.666992 58.833 -3.83398 82.5 -9.50098s43.5 -11.834 59.5 -18.501l-17 -55c-11.333 4.66699 -28 10.167 -50 16.5s-51.667 9.5 -89 9.5c-94.667 0 -142 -34.333 -142 -103
c0 -18.667 3.33301 -34.167 10 -46.5s16.334 -23.166 29.001 -32.499s28 -17.666 46 -24.999s38 -15 60 -23c24 -9.33301 47.167 -18.833 69.5 -28.5s42 -21.5 59 -35.5s30.5 -31 40.5 -51s15 -44.333 15 -73c0 -46.667 -15.333 -84.334 -46 -113.001s-73 -45 -127 -49v-132
z" />
    <glyph glyph-name="percent" unicode="%" horiz-adv-x="831" 
d="M359 529c0 -29.333 -4 -55.166 -12 -77.499s-19 -41 -33 -56s-30 -26.333 -48 -34s-37 -11.5 -57 -11.5s-39 3.83301 -57 11.5s-34 19 -48 34s-25 33.667 -33 56s-12 48.166 -12 77.499s4 55.166 12 77.499s19 41 33 56s30 26.333 48 34s37 11.5 57 11.5
s39 -3.83301 57 -11.5s34 -19 48 -34s25 -33.667 33 -56s12 -48.166 12 -77.499zM300 529c0 38 -7.66699 68.5 -23 91.5s-38 34.5 -68 34.5s-52.667 -11.5 -68 -34.5s-23 -53.5 -23 -91.5s7.66699 -68.5 23 -91.5s38 -34.5 68 -34.5s52.667 11.5 68 34.5s23 53.5 23 91.5z
M472 164c0 29.333 4 55.166 12 77.499s19 41 33 56s30 26.333 48 34s37 11.5 57 11.5s39 -3.83301 57 -11.5s34 -19 48 -34s25 -33.667 33 -56s12 -48.166 12 -77.499s-4 -55.166 -12 -77.499s-19 -41 -33 -56s-30 -26.333 -48 -34s-37 -11.5 -57 -11.5
s-39 3.83301 -57 11.5s-34 19 -48 34s-25 33.667 -33 56s-12 48.166 -12 77.499zM531 164c0 -38 7.66699 -68.5 23 -91.5s38 -34.5 68 -34.5s52.667 11.5 68 34.5s23 53.5 23 91.5s-7.66699 68.5 -23 91.5s-38 34.5 -68 34.5s-52.667 -11.5 -68 -34.5s-23 -53.5 -23 -91.5z
M580 693h66l-395 -693h-66z" />
    <glyph glyph-name="ampersand" unicode="&#x26;" horiz-adv-x="648" 
d="M486 178c14 23.333 25.333 48.8359 34 76.5029s14.667 55.5 18 83.5l56 -7c-3.33301 -32.667 -10.666 -65.667 -21.999 -99s-27 -65 -47 -95c24.667 -25.333 46.834 -49.333 66.501 -72s35.167 -44.334 46.5 -65.001h-73c-9.33301 15.333 -20.5 30.5 -33.5 45.5
s-27.167 30.167 -42.5 45.5c-28 -30 -60.5 -54.167 -97.5 -72.5s-78.5 -27.5 -124.5 -27.5c-40.667 0 -74.834 5.83301 -102.501 17.5s-50 26.667 -67 45s-29.167 38.5 -36.5 60.5s-11 43.667 -11 65c0 26.667 4.16699 50.5 12.5 71.5s19.5 39.667 33.5 56
s30.333 30.833 49 43.5s38 23.667 58 33c-29.333 27.333 -49.833 54 -61.5 80s-17.5 52.333 -17.5 79c0 26 4.16699 49.333 12.5 70s20 38.167 35 52.5s32.833 25.166 53.5 32.499s43 11 67 11c24.667 0 47 -3.83301 67 -11.5s36.667 -18 50 -31s23.666 -28.5 30.999 -46.5
s11 -37.333 11 -58c0 -24.667 -4.33301 -46.834 -13 -66.501s-20 -37.167 -34 -52.5s-30.167 -29 -48.5 -41s-36.833 -23 -55.5 -33zM267 48.0029c38.667 0 73.167 7.33398 103.5 22.001s56.833 34.667 79.5 60l-210 215c-13.333 -6.66699 -27.166 -14.334 -41.499 -23.001
s-27.333 -19.5 -39 -32.5s-21.167 -28.5 -28.5 -46.5s-11 -39.333 -11 -64c0 -15.333 2.66699 -30.833 8 -46.5s13.666 -29.667 24.999 -42s26.333 -22.5 45 -30.5s41.667 -12 69 -12zM389 560.004c0 26 -8.83203 47.835 -26.499 65.502s-40.5 26.5 -68.5 26.5
c-34 0 -59.833 -9.16699 -77.5 -27.5s-26.5 -43.5 -26.5 -75.5c0 -23.333 5.16699 -46.5 15.5 -69.5s30.166 -47.833 59.499 -74.5c36 17.333 65.667 37.666 89 60.999s35 54.666 35 93.999z" />
    <glyph glyph-name="quotesingle" unicode="'" horiz-adv-x="240" 
d="M156 760v-38.001c0 -33.333 -1.83301 -67.166 -5.5 -101.499s-8.5 -68.5 -14.5 -102.5h-33c-5.33301 34 -9.83301 68.167 -13.5 102.5s-5.5 68.5 -5.5 102.5v37h72z" />
    <glyph glyph-name="parenleft" unicode="(" horiz-adv-x="310" 
d="M83 299c0 96.667 15.833 185.669 47.5 267.002s72.834 153.666 123.501 216.999l47 -32c-52.667 -65.333 -91.167 -134.5 -115.5 -207.5s-36.5 -154.5 -36.5 -244.5s12.167 -171.5 36.5 -244.5s62.833 -142.167 115.5 -207.5l-47 -32
c-50.667 63.333 -91.834 135.666 -123.501 216.999s-47.5 170.333 -47.5 267z" />
    <glyph glyph-name="parenright" unicode=")" horiz-adv-x="310" 
d="M227 299c0 -96.667 -15.833 -185.669 -47.5 -267.002s-72.834 -153.666 -123.501 -216.999l-47 32c52.667 65.333 91.167 134.5 115.5 207.5s36.5 154.5 36.5 244.5s-12.167 171.5 -36.5 244.5s-62.833 142.167 -115.5 207.5l47 32
c50.667 -63.333 91.834 -135.666 123.501 -216.999s47.5 -170.333 47.5 -267z" />
    <glyph glyph-name="asterisk" unicode="*" horiz-adv-x="472" 
d="M260 488l61.499 -61.999c18.333 -18.667 37.5 -41.334 57.5 -68.001l-56 -41c-9.33301 13.333 -17.833 26.166 -25.5 38.499s-14.834 24.666 -21.501 36.999s-13.167 25 -19.5 38l-20.5 40.5l-20.5 -40.5c-6.33301 -13 -12.833 -25.667 -19.5 -38
s-13.834 -24.666 -21.501 -36.999s-16.167 -25.166 -25.5 -38.499l-56 41c10 13.333 19.667 25.5 29 36.5l28 31.5c9.33301 10 19.166 20 29.499 30l32.5 32c-31.333 4.66699 -60.166 9.33398 -86.499 14.001s-55.166 12 -86.499 22l21 65
c16 -5.33301 30.667 -10.666 44 -15.999s26.333 -11 39 -17l38 -18.5l40 -19.5l-7.5 45c-2.33301 14 -4.33301 27.833 -6 41.5s-3 27.667 -4 42s-1.5 29.833 -1.5 46.5h68c0 -16.667 -0.5 -32.167 -1.5 -46.5s-2.33301 -28.333 -4 -42s-3.66699 -27.5 -6 -41.5l-7.5 -45
l40 19.5l38 18.5c12.667 6 25.667 11.667 39 17s28 10.666 44 15.999l21 -65c-31.333 -10 -60.166 -17.333 -86.499 -22s-55.166 -9.33398 -86.499 -14.001z" />
    <glyph glyph-name="plus" unicode="+" 
d="M56 317h197v217h58v-217h197v-56h-197v-218h-58v218h-197v56z" />
    <glyph glyph-name="comma" unicode="," horiz-adv-x="246" 
d="M162 95c0.666992 -6 1.00195 -11.3311 1.00195 -15.998v-12c0 -41.333 -5.83301 -81 -17.5 -119s-27.834 -73.667 -48.501 -107l-48 22c15.333 29.333 26.166 60.166 32.499 92.499s9.5 65.833 9.5 100.5c0 8 -0.166992 14.667 -0.5 20s-0.833008 11.666 -1.5 18.999h73z
" />
    <glyph glyph-name="hyphen" unicode="-" horiz-adv-x="282" 
d="M28 321h226v-63h-226v63z" />
    <glyph glyph-name="period" unicode="." horiz-adv-x="246" 
d="M178 43c0 -15.333 -4.83301 -28.333 -14.5 -39s-23.167 -16 -40.5 -16s-30.833 5.33301 -40.5 16s-14.5 23.667 -14.5 39s4.83301 28.333 14.5 39s23.167 16 40.5 16s30.833 -5.33301 40.5 -16s14.5 -23.667 14.5 -39z" />
    <glyph glyph-name="slash" unicode="/" horiz-adv-x="359" 
d="M43 -185h-66l341 968h64z" />
    <glyph glyph-name="zero" unicode="0" 
d="M59 346c0 117.333 19.333 207 58 269s93.667 93 165 93c70.667 0 125.5 -31 164.5 -93s58.5 -151.667 58.5 -269c0 -116.667 -19.5 -206 -58.5 -268s-93.833 -93 -164.5 -93s-125.5 31 -164.5 93s-58.5 151.333 -58.5 268zM434 346c0 40 -2.5 78.167 -7.5 114.5
s-13.5 68.5 -25.5 96.5s-27.667 50.333 -47 67s-43.333 25 -72 25c-29.333 0 -53.666 -8.33301 -72.999 -25s-34.833 -39 -46.5 -67s-20 -60.167 -25 -96.5s-7.5 -74.5 -7.5 -114.5s2.5 -78.167 7.5 -114.5s13.333 -68.333 25 -96s27.167 -49.834 46.5 -66.501
s43.666 -25 72.999 -25c28.667 0 52.667 8.33301 72 25s35 38.834 47 66.501s20.5 59.667 25.5 96s7.5 74.5 7.5 114.5z" />
    <glyph glyph-name="one" unicode="1" 
d="M107 551c40 14 75.668 31.834 107.001 53.501s62.333 51.167 93 88.5h46v-693h-65v594c-7.33301 -8 -16.833 -16.333 -28.5 -25s-24.834 -17.167 -39.501 -25.5s-30 -16.333 -46 -24s-32 -13.834 -48 -18.501z" />
    <glyph glyph-name="two" unicode="2" 
d="M456 521c0 -26 -4.66895 -50.5 -14.002 -73.5s-21.833 -45.167 -37.5 -66.5s-33.5 -42 -53.5 -62l-61 -60l-50.5 -50.5c-16.333 -17 -31 -34 -44 -51s-23.333 -33.667 -31 -50s-11.5 -32.5 -11.5 -48.5v-2h327v-57h-399c0 1.33301 -0.166992 3.83301 -0.5 7.5
s-0.5 9.16699 -0.5 16.5c0 31.333 5.66699 60.5 17 87.5s25.833 52.5 43.5 76.5s37.334 46.333 59.001 67l62.5 60l47.5 46.5c15 15 28.167 30.5 39.5 46.5s20.333 33 27 51s10 37.667 10 59c0 46.667 -12.5 80.167 -37.5 100.5s-56.5 30.5 -94.5 30.5
c-21.333 0 -40.333 -2.66699 -57 -8s-31.167 -11.5 -43.5 -18.5s-22.833 -14.167 -31.5 -21.5s-15 -13 -19 -17l-34 45c4 4.66699 11.167 11.5 21.5 20.5s23.333 17.833 39 26.5s33.834 16.167 54.501 22.5s43.667 9.5 69 9.5c67.333 0 118 -16.5 152 -49.5
s51 -78.833 51 -137.5z" />
    <glyph glyph-name="three" unicode="3" 
d="M235 45c63.333 0 108.664 13.1729 135.997 39.5059s41 61.833 41 106.5c0 29.333 -5.5 53.666 -16.5 72.999s-26 34.833 -45 46.5s-41 20 -66 25s-51.5 7.5 -79.5 7.5h-10v54h23c18 0 36.5 1.83301 55.5 5.5s36.333 10.5 52 20.5s28.667 23.333 39 40s15.5 38 15.5 64
c0 22 -3.66699 40.833 -11 56.5s-17.166 28.167 -29.499 37.5s-26.666 16.166 -42.999 20.499s-33.5 6.5 -51.5 6.5c-36 0 -64 -5 -84 -15s-36.333 -19.333 -49 -28l-28 51c6.66699 4.66699 15.167 10 25.5 16s22.5 11.667 36.5 17s29.5 9.83301 46.5 13.5
s35.5 5.5 55.5 5.5c34.667 0 64.5 -4.33301 89.5 -13s45.833 -20.834 62.5 -36.501s29 -34.334 37 -56.001s12 -45.167 12 -70.5c0 -40.667 -10.833 -73.834 -32.5 -99.501s-49.5 -44.167 -83.5 -55.5c18.667 -4.66699 36.834 -11.834 54.501 -21.501s33.5 -22 47.5 -37
s25.333 -33.167 34 -54.5s13 -46.333 13 -75c0 -29.333 -5.16699 -56.333 -15.5 -81s-25.666 -46.167 -45.999 -64.5s-46.166 -32.666 -77.499 -42.999s-68 -15.5 -110 -15.5c-22 0 -42.167 1.5 -60.5 4.5s-34.5 6.5 -48.5 10.5s-25.833 8 -35.5 12
s-16.834 7.33301 -21.501 10l17 58c4 -2.66699 10.667 -6 20 -10s20.5 -7.83301 33.5 -11.5s27.667 -6.83398 44 -9.50098s34.166 -4 53.499 -4z" />
    <glyph glyph-name="four" unicode="4" 
d="M50 228c12 32 28.833 68.001 50.5 108.001s46.167 81 73.5 123s57 83.167 89 123.5s64.333 77.166 97 110.499h68v-452h86v-53h-86v-188h-64v188h-314v40zM364 241.001l0.00195312 379c-23.333 -24 -47 -51.667 -71 -83s-46.833 -63.833 -68.5 -97.5
s-41.834 -67.5 -60.501 -101.5s-34.334 -66.333 -47.001 -97h247z" />
    <glyph glyph-name="five" unicode="5" 
d="M239 45c33.333 0 61.166 3.82812 83.499 11.4951s40.166 18.167 53.499 31.5s22.833 28.833 28.5 46.5s8.5 36.834 8.5 57.501c0 26.667 -4.33301 50.667 -13 72s-24 39.333 -46 54s-51.667 25.834 -89 33.501s-84.666 11.5 -141.999 11.5c4 34 7.33301 65.167 10 93.5
s5 55.666 7 81.999s3.5 52 4.5 77s1.83301 50.833 2.5 77.5h312v-57h-255c-0.666992 -12.667 -1.66699 -29 -3 -49l-4 -61.5c-1.33301 -21 -3 -41.167 -5 -60.5s-3.66699 -34.666 -5 -45.999c51.333 -1.33301 95.666 -7.66602 132.999 -18.999s68 -26.666 92 -45.999
s41.833 -42.666 53.5 -69.999s17.5 -57.666 17.5 -90.999c0 -29.333 -4.83301 -56.666 -14.5 -81.999s-24.5 -47.333 -44.5 -66s-45.333 -33.334 -76 -44.001s-67 -16 -109 -16c-21.333 0 -41.166 1.5 -59.499 4.5s-34.666 6.5 -48.999 10.5s-26.5 8 -36.5 12
s-17.333 7.33301 -22 10l17 58c4 -2.66699 10.833 -6 20.5 -10s21 -7.83301 34 -11.5s27.667 -6.83398 44 -9.50098s33.5 -4 51.5 -4z" />
    <glyph glyph-name="six" unicode="6" 
d="M77 275c0 135.333 32.501 238 97.501 308s159.5 107.667 283.5 113l4 -55c-40.667 -2.66699 -78.167 -8.83398 -112.5 -18.501s-64.833 -24.667 -91.5 -45s-49 -46.5 -67 -78.5s-30.333 -71.333 -37 -118c18 9.33301 39.667 17.5 65 24.5s52.333 10.5 81 10.5
c37.333 0 69 -5.83301 95 -17.5s47 -27.167 63 -46.5s27.667 -41.666 35 -66.999s11 -52 11 -80c0 -26 -4 -52 -12 -78s-20.5 -49.5 -37.5 -70.5s-38.333 -38.167 -64 -51.5s-56.167 -20 -91.5 -20c-72.667 0 -127.834 25.5 -165.501 76.5s-56.5 122.167 -56.5 213.5z
M294.001 359c-30.667 0 -57.5 -3.5 -80.5 -10.5s-44.5 -15.167 -64.5 -24.5c-1.33301 -11.333 -2 -20.166 -2 -26.499v-23.5c0 -31.333 2.16699 -61 6.5 -89s12.333 -52.667 24 -74s27.167 -38.166 46.5 -50.499s44 -18.5 74 -18.5c24.667 0 45.667 4.5 63 13.5
s31.333 20.833 42 35.5s18.5 31.667 23.5 51s7.5 39.666 7.5 60.999c0 53.333 -11.833 92.666 -35.5 117.999s-58.5 38 -104.5 38z" />
    <glyph glyph-name="seven" unicode="7" 
d="M175 0c4 55.333 14.166 114 30.499 176s36.333 122 60 180s49.334 111.333 77.001 160s54.5 87.667 80.5 117h-354v60h421v-58c-22.667 -27.333 -47.5 -63.833 -74.5 -109.5s-52.5 -97 -76.5 -154s-44.833 -117.5 -62.5 -181.5s-28.5 -127.333 -32.5 -190h-69z" />
    <glyph glyph-name="eight" unicode="8" 
d="M282 -15c-32.667 0 -62.1631 4.66699 -88.4961 14s-49 22.5 -68 39.5s-33.667 37 -44 60s-15.5 48.167 -15.5 75.5c0 23.333 3.33301 44.5 10 63.5s15.5 36 26.5 51s23.667 28.333 38 40s29.5 21.834 45.5 30.501c-40.667 20 -68.334 43.667 -83.001 71s-22 57 -22 89
c0 28.667 5 54.667 15 78s23.833 43.166 41.5 59.499s38.834 29 63.501 38s51.667 13.5 81 13.5c34.667 0 64.667 -5.16699 90 -15.5s46.166 -23.833 62.499 -40.5s28.333 -35.667 36 -57s11.5 -43.333 11.5 -66c0 -22 -3.33301 -42.167 -10 -60.5s-15.334 -35 -26.001 -50
s-22.667 -28.167 -36 -39.5s-26.333 -21 -39 -29c46.667 -20 79.5 -45 98.5 -75s28.5 -61.667 28.5 -95c0 -28.667 -5.16699 -55 -15.5 -79s-24.833 -44.5 -43.5 -61.5s-41.334 -30.333 -68.001 -40s-56.334 -14.5 -89.001 -14.5zM429.004 174
c0 28.667 -5.49805 52 -16.498 70s-25.333 32.667 -43 44s-37.667 20.333 -60 27l-67.5 21c-34 -16 -60.333 -37.5 -79 -64.5s-28 -59.5 -28 -97.5c0 -18.667 3 -36 9 -52s15.167 -30 27.5 -42s27.666 -21.5 45.999 -28.5s39.833 -10.5 64.5 -10.5s46.167 3.5 64.5 10.5
s33.666 16.5 45.999 28.5s21.5 26 27.5 42s9 33.333 9 52zM149.006 526c0 -18.667 2.16699 -35.6689 6.5 -51.002s12.5 -29.166 24.5 -41.499s28.667 -23.666 50 -33.999s49.333 -20.166 84 -29.499c30.667 17.333 55 38.666 73 63.999s27 57 27 95
c0 15.333 -2.5 30.333 -7.5 45s-12.667 27.834 -23 39.501s-23.833 21 -40.5 28s-37 10.5 -61 10.5c-22 0 -41.333 -3.33301 -58 -10s-30.5 -15.834 -41.5 -27.501s-19.333 -25.167 -25 -40.5s-8.5 -31.333 -8.5 -48z" />
    <glyph glyph-name="nine" unicode="9" 
d="M490 418c0 -139.333 -33.334 -244.165 -100.001 -314.498s-164 -105.5 -292 -105.5l-2 54c44 0 84.333 5 121 15s68.5 25.5 95.5 46.5s49 48 66 81s28.5 72.833 34.5 119.5c-18 -9.33301 -39.667 -17.5 -65 -24.5s-52.333 -10.5 -81 -10.5
c-37.333 0 -69 5.83301 -95 17.5s-47 27.167 -63 46.5s-27.667 41.666 -35 66.999s-11 51.666 -11 78.999c0 25.333 4 51 12 77s20.5 49.5 37.5 70.5s38.333 38.167 64 51.5s56.167 20 91.5 20c72.667 0 127.834 -25.5 165.501 -76.5s56.5 -122.167 56.5 -213.5z
M272.999 336.001c30.667 0 57.5 3.50195 80.5 10.502s44.5 15.167 64.5 24.5c0.666992 8 1.16699 15.667 1.5 23s0.5 15.666 0.5 24.999c0 31.333 -2.16699 61 -6.5 89s-12.333 52.667 -24 74s-27.167 38.166 -46.5 50.499s-44 18.5 -74 18.5
c-24.667 0 -45.667 -4.5 -63 -13.5s-31.333 -20.833 -42 -35.5s-18.5 -31.667 -23.5 -51s-7.5 -39.333 -7.5 -60c0 -52.667 11.833 -91.667 35.5 -117s58.5 -38 104.5 -38z" />
    <glyph glyph-name="colon" unicode=":" horiz-adv-x="246" 
d="M178 43c0 -15.333 -4.83301 -28.333 -14.5 -39s-23.167 -16 -40.5 -16s-30.833 5.33301 -40.5 16s-14.5 23.667 -14.5 39s4.83301 28.333 14.5 39s23.167 16 40.5 16s30.833 -5.33301 40.5 -16s14.5 -23.667 14.5 -39zM178 462c0 -15.333 -4.83301 -28.333 -14.5 -39
s-23.167 -16 -40.5 -16s-30.833 5.33301 -40.5 16s-14.5 23.667 -14.5 39s4.83301 28.333 14.5 39s23.167 16 40.5 16s30.833 -5.33301 40.5 -16s14.5 -23.667 14.5 -39z" />
    <glyph glyph-name="semicolon" unicode=";" horiz-adv-x="246" 
d="M162 95c0.666992 -6 1.00195 -11.3311 1.00195 -15.998v-12c0 -41.333 -5.83301 -81 -17.5 -119s-27.834 -73.667 -48.501 -107l-48 22c15.333 29.333 26.166 60.166 32.499 92.499s9.5 65.833 9.5 100.5c0 8 -0.166992 14.667 -0.5 20s-0.833008 11.666 -1.5 18.999h73z
M178.002 462.002c0 -15.333 -4.83301 -28.333 -14.5 -39s-23.167 -16 -40.5 -16s-30.833 5.33301 -40.5 16s-14.5 23.667 -14.5 39s4.83301 28.333 14.5 39s23.167 16 40.5 16s30.833 -5.33301 40.5 -16s14.5 -23.667 14.5 -39z" />
    <glyph glyph-name="less" unicode="&#x3c;" 
d="M131 288l377 -158l-20 -55l-433 184v58l433 184l20 -55z" />
    <glyph glyph-name="equal" unicode="=" 
d="M56 212h452v-56h-452v56zM56 422h452v-56h-452v56z" />
    <glyph glyph-name="greater" unicode="&#x3e;" 
d="M55 446l20 55l433 -184v-58l-433 -184l-20 55l377 158z" />
    <glyph glyph-name="question" unicode="?" horiz-adv-x="380" 
d="M161 650c-44.667 0 -85.333 -9.99902 -122 -29.999l-19 54c14 8 34.167 15.667 60.5 23s55.5 11 87.5 11c35.333 0 64.833 -4.5 88.5 -13.5s42.5 -20.667 56.5 -35s24 -30.5 30 -48.5s9 -35.667 9 -53c0 -24 -4.33301 -45.333 -13 -64s-19.667 -36 -33 -52
s-27.5 -31.333 -42.5 -46s-29.167 -29.834 -42.5 -45.501s-24.333 -32.5 -33 -50.5s-13 -38 -13 -60v-16.5c0 -3.66699 0.333008 -7.16699 1 -10.5h-52c-1.33301 6.66699 -2.33301 13.834 -3 21.501s-1 15.5 -1 23.5c0 22.667 4 42.834 12 60.501s18 34.167 30 49.5
s25 29.833 39 43.5s27 27.667 39 42s22 29.666 30 45.999s12 34.833 12 55.5c0 18.667 -3.33301 34.167 -10 46.5s-15.5 22.166 -26.5 29.499s-23.833 12.333 -38.5 15s-30 4 -46 4zM210.001 43.001c0 -15.333 -4.83301 -28.333 -14.5 -39s-23.167 -16 -40.5 -16
s-30.833 5.33301 -40.5 16s-14.5 23.667 -14.5 39s4.83301 28.333 14.5 39s23.167 16 40.5 16s30.833 -5.33301 40.5 -16s14.5 -23.667 14.5 -39z" />
    <glyph glyph-name="at" unicode="@" horiz-adv-x="940" 
d="M687 58c-21.333 0 -38.4971 3.66992 -51.4971 11.0029s-22.5 15.333 -28.5 24c-12 -8 -28.333 -16 -49 -24s-43.334 -12 -68.001 -12c-30.667 0 -58.834 4.5 -84.501 13.5s-48 22.667 -67 41s-33.833 41.5 -44.5 69.5s-16 61 -16 99c0 31.333 4.83301 60.666 14.5 87.999
s23.667 51.166 42 71.499s41 36.333 68 48s57.833 17.5 92.5 17.5c32 0 60.833 -2.83301 86.5 -8.5s45.834 -11.5 60.501 -17.5v-293c0 -26 4.5 -44.667 13.5 -56s20.833 -17 35.5 -17c22.667 0 41.167 7.16699 55.5 21.5s25.666 32.333 33.999 54s14.166 44.667 17.499 69
s5 46.5 5 66.5c0 43.333 -7.33301 84.666 -22 123.999s-35.834 73.833 -63.501 103.5s-61.5 53.334 -101.5 71.001s-85.333 26.5 -136 26.5c-51.333 0 -98 -8.16699 -140 -24.5s-78 -40.166 -108 -71.499s-53.333 -69.833 -70 -115.5s-25 -97.834 -25 -156.501
c0 -62 9.16699 -116.333 27.5 -163s43.5 -85.667 75.5 -117s69.833 -54.833 113.5 -70.5s90.834 -23.5 141.501 -23.5c38.667 0 69.167 1.83301 91.5 5.5s37.166 6.83398 44.499 9.50098l7 -55c-11.333 -3.33301 -30.333 -7 -57 -11s-55.334 -6 -86.001 -6
c-58 0 -112.667 8.5 -164 25.5s-96.166 43.333 -134.499 79s-68.666 80.5 -90.999 134.5s-33.5 118 -33.5 192c0 71.333 10.667 133.666 32 186.999s50.5 97.666 87.5 132.999s80.333 61.666 130 78.999s102.5 26 158.5 26c53.333 0 103.5 -9 150.5 -27
s88.167 -43.667 123.5 -77s63.166 -73.666 83.499 -120.999s30.5 -100.333 30.5 -159c0 -43.333 -4.66699 -81.5 -14 -114.5s-22.166 -60.5 -38.499 -82.5s-35.5 -38.667 -57.5 -50s-45.667 -17 -71 -17zM486.003 111.003c22.667 0 41.001 1.83398 55.001 5.50098
s28.667 10.167 44 19.5c-2.66699 6.66699 -4.5 15.167 -5.5 25.5s-1.5 19.166 -1.5 26.499v254c-5.33301 1.33301 -14 3.16602 -26 5.49902s-28.667 3.5 -50 3.5c-25.333 0 -47.833 -4.16699 -67.5 -12.5s-36.167 -20 -49.5 -35s-23.333 -33 -30 -54s-10 -43.833 -10 -68.5
c0 -29.333 3.66699 -54.666 11 -75.999s17.333 -39 30 -53s27.667 -24.333 45 -31s35.666 -10 54.999 -10z" />
    <glyph glyph-name="A" unicode="A" horiz-adv-x="641" 
d="M556 0l-36 98l-33 92h-337l-34 -92l-35 -98h-71l75 201.5l68.5 177l66.5 160.5c22 51.333 45.333 102.666 70 153.999h60c24.667 -51.333 48 -102.666 70 -153.999l66.5 -160.5l68.5 -177l76 -201.5h-75zM318 615c-25.333 -57.333 -49.833 -115.667 -73.5 -175
l-73.5 -192h295l-74 192z" />
    <glyph glyph-name="B" unicode="B" horiz-adv-x="630" 
d="M256 -6c-11.333 0 -24.502 0.500977 -39.502 1.50098s-30.333 2.33301 -46 4s-30.5 3.66699 -44.5 6s-26 4.83301 -36 7.5v667c12 3.33301 25.333 6.16602 40 8.49902s29.834 4.33301 45.501 6s31 2.83398 46 3.50098s28.833 1 41.5 1c37.333 0 72.833 -3 106.5 -9
s63.167 -16 88.5 -30s45.5 -32.5 60.5 -55.5s22.5 -51.5 22.5 -85.5c0 -37.333 -9.5 -69.166 -28.5 -95.499s-44.5 -44.5 -76.5 -54.5c20 -4.66699 38.333 -11.334 55 -20.001s31.334 -19.834 44.001 -33.501s22.5 -30.334 29.5 -50.001s10.5 -43.167 10.5 -70.5
c0 -65.333 -26 -115.166 -78 -149.499s-132.333 -51.5 -241 -51.5zM157.998 332.001l-0.000976562 -273.002c10 -1.33301 25 -2.83301 45 -4.5s40.333 -2.5 61 -2.5c30.667 0 60.5 2 89.5 6s54.5 11.333 76.5 22s39.667 25.334 53 44.001s20 42.667 20 72
c0 26.667 -4.66699 48.834 -14 66.501s-22.666 31.667 -39.999 42s-38.5 17.5 -63.5 21.5s-52.833 6 -83.5 6h-144zM157.997 389.999l132 -0.000976562c24.667 0 48 1.83301 70 5.5s41.167 10.334 57.5 20.001s29.166 22.667 38.499 39s14 37.166 14 62.499
c0 22.667 -5 41.834 -15 57.501s-24.167 28.5 -42.5 38.5s-40.166 17.167 -65.499 21.5s-53.333 6.5 -84 6.5c-24.667 0 -45.5 -0.666992 -62.5 -2s-31.167 -3 -42.5 -5v-244z" />
    <glyph glyph-name="C" unicode="C" horiz-adv-x="609" 
d="M378 -15c-44.667 0 -86.1699 8.00098 -124.503 24.001s-71.666 39.333 -99.999 70s-50.666 68.5 -66.999 113.5s-24.5 96.5 -24.5 154.5s8.83301 109.5 26.5 154.5s41.167 82.833 70.5 113.5s63.333 53.834 102 69.501s79 23.5 121 23.5c26 0 49.667 -1.66699 71 -5
s40 -7.5 56 -12.5s29.667 -10 41 -15s20 -9.5 26 -13.5l-22 -59c-16.667 10 -37.834 19.833 -63.501 29.5s-57.5 14.5 -95.5 14.5c-43.333 0 -81.166 -7.33301 -113.499 -22s-59.5 -35.334 -81.5 -62.001s-38.5 -58.334 -49.5 -95.001s-16.5 -77.334 -16.5 -122.001
c0 -46 5.5 -87.5 16.5 -124.5s27.167 -68.5 48.5 -94.5s47.5 -46 78.5 -60s66.5 -21 106.5 -21c44 0 80.833 4.16699 110.5 12.5s52.167 16.833 67.5 25.5l19 -58c-4.66699 -3.33301 -12.667 -7.16602 -24 -11.499s-25.666 -8.83301 -42.999 -13.5s-37.333 -8.5 -60 -11.5
s-48 -4.5 -76 -4.5z" />
    <glyph glyph-name="D" unicode="D" horiz-adv-x="702" 
d="M640 347c0 -59.333 -9.33301 -111 -28 -155s-44.834 -80.667 -78.501 -110s-73.834 -51.333 -120.501 -66s-98 -22 -154 -22c-28 0 -57.333 1.5 -88 4.5s-57.667 7.5 -81 13.5v668c23.333 6.66699 50.333 11.5 81 14.5s60 4.5 88 4.5c56 0 107.333 -7.33301 154 -22
s86.834 -36.667 120.501 -66s59.834 -66 78.501 -110s28 -95.333 28 -154zM158 60c4 -0.666992 14.167 -1.99805 30.5 -3.99805s42.5 -3 78.5 -3c50 0 93.667 6.83301 131 20.5s68.666 33.167 93.999 58.5s44.333 56.166 57 92.499s19 77.166 19 122.499
s-6.33301 86 -19 122s-31.667 66.667 -57 92s-56.666 44.833 -93.999 58.5s-81 20.5 -131 20.5c-36 0 -62.167 -1 -78.5 -3s-26.5 -3.33301 -30.5 -4v-573z" />
    <glyph glyph-name="E" unicode="E" horiz-adv-x="555" 
d="M90 0v693h400v-59h-332v-241h296v-58h-296v-276h358v-59h-426z" />
    <glyph glyph-name="F" unicode="F" horiz-adv-x="520" 
d="M90 0v693h395v-59h-327v-244h290v-59h-290v-331h-68z" />
    <glyph glyph-name="G" unicode="G" horiz-adv-x="658" 
d="M522 328l68.0029 -0.00195312v-309c-12.667 -5.33301 -37.5 -12.166 -74.5 -20.499s-82.5 -12.5 -136.5 -12.5c-45.333 0 -87.333 8 -126 24s-72.167 39.167 -100.5 69.5s-50.5 68 -66.5 113s-24 96.5 -24 154.5s8.66699 109.5 26 154.5s40.833 82.667 70.5 113
s64.167 53.5 103.5 69.5s81.333 24 126 24c51.333 0 93.666 -5.5 126.999 -16.5s57.666 -21.5 72.999 -31.5l-23 -58c-18.667 13.333 -44 24.166 -76 32.499s-66.667 12.5 -104 12.5c-34.667 0 -67.334 -6.33301 -98.001 -19s-57.334 -31.667 -80.001 -57
s-40.5 -56.666 -53.5 -93.999s-19.5 -80.666 -19.5 -129.999c0 -46 5.33301 -87.5 16 -124.5s26.834 -68.667 48.501 -95s48.5 -46.5 80.5 -60.5s69 -21 111 -21c34 0 62.5 1.83301 85.5 5.5s38.5 7.16699 46.5 10.5v266z" />
    <glyph glyph-name="H" unicode="H" horiz-adv-x="692" 
d="M534 693h68v-693h-68v333h-376v-333h-68v693h68v-301h376v301z" />
    <glyph glyph-name="I" unicode="I" horiz-adv-x="248" 
d="M90 693h68v-693h-68v693z" />
    <glyph glyph-name="J" unicode="J" horiz-adv-x="487" 
d="M400 218c0 -33.333 -3.33398 -64.1699 -10.001 -92.5029s-18.167 -53 -34.5 -74s-38 -37.333 -65 -49s-60.833 -17.5 -101.5 -17.5c-24 0 -46 2.16699 -66 6.5s-37.667 9.5 -53 15.5s-28.166 12.333 -38.499 19s-18.166 12.667 -23.499 18l32 55
c6 -5.33301 13.5 -11.166 22.5 -17.499s19.5 -12.166 31.5 -17.499s25.333 -9.66602 40 -12.999s30.667 -5 48 -5c51.333 0 89.166 13.5 113.499 40.5s36.5 73.167 36.5 138.5v468h68v-475z" />
    <glyph glyph-name="K" unicode="K" horiz-adv-x="599" 
d="M513 0c-22.667 34.667 -48.1689 68.999 -76.502 102.999s-58.166 66 -89.499 96s-63.166 57.333 -95.499 82s-63.5 45.334 -93.5 62.001v-343h-68v693h68v-323l84.5 78.5l92 89.5l85.5 86c26.667 27.333 48 50.333 64 69h82l-70 -73.5l-87 -87.5l-91.5 -88.5l-81.5 -76.5
c19.333 -12 40.166 -26.833 62.499 -44.5s45 -37 68 -58s45.667 -43 68 -66s43.333 -46.167 63 -69.5s37.334 -46 53.001 -68s28.5 -42.333 38.5 -61h-76z" />
    <glyph glyph-name="L" unicode="L" horiz-adv-x="502" 
d="M484 59v-59h-394v693h68v-634h326z" />
    <glyph glyph-name="M" unicode="M" horiz-adv-x="865" 
d="M401 100c-6.66699 16.667 -16.1689 38.667 -28.502 66l-41.5 89.5l-47 100l-46 96.5l-39 79c-11.333 22.667 -19.666 38.667 -24.999 48c-8.66699 -83.333 -15.5 -173.833 -20.5 -271.5s-9.5 -200.167 -13.5 -307.5h-67c6 126 12.833 246.667 20.5 362
s17.167 225.666 28.5 330.999h60c20 -33.333 41.333 -71.833 64 -115.5l67.5 -136l65 -139l55.5 -123.5l55.5 123.5l65 139l67.5 136c22.667 43.667 44 82.167 64 115.5h57c11.333 -105.333 20.833 -215.666 28.5 -330.999s14.5 -236 20.5 -362h-69
c-4 107.333 -8.5 209.833 -13.5 307.5s-11.833 188.167 -20.5 271.5c-5.33301 -9.33301 -13.666 -25.333 -24.999 -48l-39 -79l-46 -96.5l-47 -100l-41.5 -89.5c-12.333 -27.333 -21.833 -49.333 -28.5 -66h-61z" />
    <glyph glyph-name="N" unicode="N" horiz-adv-x="709" 
d="M562 0c-12.667 23.333 -28.833 50.667 -48.5 82l-64.5 100.5l-74 110l-77.5 110l-75 100.5c-24.333 31.333 -46.166 58.333 -65.499 81v-584h-67v693h54c34 -38 70.5 -81.833 109.5 -131.5l114.5 -152c37.333 -51.667 72.166 -102.167 104.499 -151.5
s58.833 -92.333 79.5 -129v564h67v-693h-57z" />
    <glyph glyph-name="O" unicode="O" horiz-adv-x="774" 
d="M712 347c0 -59.333 -8.66699 -111.666 -26 -156.999s-40.833 -83.166 -70.5 -113.499s-64.167 -53.166 -103.5 -68.499s-81 -23 -125 -23s-85.667 7.66699 -125 23s-73.833 38.166 -103.5 68.499s-53.167 68.166 -70.5 113.499s-26 97.666 -26 156.999
s8.66699 111.5 26 156.5s40.833 82.667 70.5 113s64.167 53.166 103.5 68.499s81 23 125 23s85.667 -7.66699 125 -23s73.833 -38.166 103.5 -68.499s53.167 -68 70.5 -113s26 -97.167 26 -156.5zM640 347c0 46.667 -6 88.5 -18 125.5s-29 68.5 -51 94.5
s-48.5 45.833 -79.5 59.5s-65.833 20.5 -104.5 20.5s-73.5 -6.83301 -104.5 -20.5s-57.5 -33.5 -79.5 -59.5s-39 -57.5 -51 -94.5s-18 -78.833 -18 -125.5s6 -88.5 18 -125.5s29 -68.5 51 -94.5s48.5 -46 79.5 -60s65.833 -21 104.5 -21s73.5 7 104.5 21s57.5 34 79.5 60
s39 57.5 51 94.5s18 78.833 18 125.5z" />
    <glyph glyph-name="P" unicode="P" horiz-adv-x="592" 
d="M265 699c98 0 171 -18.667 219 -56s72 -90.333 72 -159c0 -39.333 -7 -72.833 -21 -100.5s-34 -50 -60 -67s-57.833 -29.333 -95.5 -37s-80.167 -11.5 -127.5 -11.5h-94v-268h-68v680c24 6.66699 52.167 11.5 84.5 14.5s62.5 4.5 90.5 4.5zM268 640
c-25.333 0 -46.834 -0.834961 -64.501 -2.50195s-32.834 -3.16699 -45.501 -4.5v-306h86c36.667 0 69.834 2.16699 99.501 6.5s55 12.333 76 24s37.167 27.834 48.5 48.501s17 47 17 79c0 30.667 -6.16699 56 -18.5 76s-28.666 35.833 -48.999 47.5
s-43.5 19.834 -69.5 24.501s-52.667 7 -80 7z" />
    <glyph glyph-name="Q" unicode="Q" horiz-adv-x="774" 
d="M712 347c0 -53.333 -7.00195 -100.669 -21.002 -142.002s-33 -77 -57 -107s-52.333 -54 -85 -72s-67.667 -30 -105 -36c2.66699 -18.667 11.167 -34.667 25.5 -48s31.666 -24.666 51.999 -33.999s42.833 -16.833 67.5 -22.5s48.667 -10.167 72 -13.5l-14 -57
c-25.333 4.66699 -52.666 10.5 -81.999 17.5s-57.166 16.833 -83.499 29.5s-49.166 28.834 -68.499 48.501s-32 44.5 -38 74.5c-42.667 1.33301 -83 10 -121 26s-71.167 39.167 -99.5 69.5s-50.833 67.833 -67.5 112.5s-25 96 -25 154c0 59.333 8.66699 111.5 26 156.5
s40.833 82.667 70.5 113s64.167 53.166 103.5 68.499s81 23 125 23s85.667 -7.66699 125 -23s73.833 -38.166 103.5 -68.499s53.167 -68 70.5 -113s26 -97.167 26 -156.5zM639.998 346.997c0 46.667 -6 88.5 -18 125.5s-29 68.5 -51 94.5s-48.5 45.833 -79.5 59.5
s-65.833 20.5 -104.5 20.5s-73.5 -6.83301 -104.5 -20.5s-57.5 -33.5 -79.5 -59.5s-39 -57.5 -51 -94.5s-18 -78.833 -18 -125.5s6 -88.5 18 -125.5s29 -68.5 51 -94.5s48.5 -46 79.5 -60s65.833 -21 104.5 -21s73.5 7 104.5 21s57.5 34 79.5 60s39 57.5 51 94.5
s18 78.833 18 125.5z" />
    <glyph glyph-name="R" unicode="R" horiz-adv-x="618" 
d="M552 485c0 -52 -13.666 -93.001 -40.999 -123.001s-63.333 -51.667 -108 -65l41.5 -54c17 -22.667 34.5 -47.5 52.5 -74.5s35.667 -55.167 53 -84.5s32 -57.333 44 -84h-73c-14 26.667 -29.167 53.334 -45.5 80.001s-33 52.5 -50 77.5s-33.5 48.167 -49.5 69.5l-42 56
c-21.333 -2 -42.666 -3 -63.999 -3h-112v-280h-68v680c24 6.66699 52.167 11.5 84.5 14.5s62.166 4.5 89.499 4.5c95.333 0 167.166 -18 215.499 -54s72.5 -89.333 72.5 -160zM272.001 639.999c-25.333 0 -47.5 -0.831055 -66.5 -2.49805s-34.833 -3.16699 -47.5 -4.5v-295
h94c31.333 0 61 1.5 89 4.5s52.333 9.66699 73 20s37 25.166 49 44.499s18 45.666 18 78.999c0 30.667 -6 56 -18 76s-27.667 35.833 -47 47.5s-41.5 19.667 -66.5 24s-50.833 6.5 -77.5 6.5z" />
    <glyph glyph-name="S" unicode="S" horiz-adv-x="517" 
d="M239 44c54 0 96.0059 9.83398 126.006 29.501s45 51.5 45 95.5c0 25.333 -4.83301 46.5 -14.5 63.5s-22.5 31.333 -38.5 43s-34.333 21.667 -55 30l-65 26.5c-28.667 11.333 -54.334 23 -77.001 35s-42 25.5 -58 40.5s-28.167 32.167 -36.5 51.5s-12.5 42 -12.5 68
c0 59.333 19.667 104.333 59 135s94 46 164 46c18.667 0 37 -1.33301 55 -4s34.833 -6.16699 50.5 -10.5s30 -9.16602 43 -14.499s23.833 -11 32.5 -17l-24 -57c-19.333 13.333 -42.833 24 -70.5 32s-57.5 12 -89.5 12c-22 0 -42.167 -2.16699 -60.5 -6.5
s-34.166 -11.333 -47.499 -21s-23.833 -21.834 -31.5 -36.501s-11.5 -32.334 -11.5 -53.001c0 -21.333 4 -39.333 12 -54s19.167 -27.334 33.5 -38.001s31.166 -20.334 50.499 -29.001l63 -27c27.333 -11.333 53.166 -22.666 77.499 -33.999s45.5 -24.666 63.5 -39.999
s32.333 -34 43 -56s16 -49 16 -81c0 -62.667 -21.833 -109.667 -65.5 -141s-102.834 -47 -177.501 -47c-26.667 0 -51 1.66699 -73 5s-41.667 7.5 -59 12.5s-32 10.167 -44 15.5s-21.333 10 -28 14l22 59c6.66699 -4 15.667 -8.66699 27 -14s24.666 -10.5 39.999 -15.5
s32.666 -9.16699 51.999 -12.5s40.666 -5 63.999 -5z" />
    <glyph glyph-name="T" unicode="T" horiz-adv-x="548" 
d="M530 693v-59h-222v-634h-68v634h-222v59h512z" />
    <glyph glyph-name="U" unicode="U" horiz-adv-x="680" 
d="M340 -15c-46 0 -85.167 7 -117.5 21s-58.5 33.333 -78.5 58s-34.5 53.5 -43.5 86.5s-13.5 68.5 -13.5 106.5v436h68v-427c0 -38 4.5 -70.833 13.5 -98.5s21.5 -50.5 37.5 -68.5s35.333 -31.333 58 -40s48 -13 76 -13s53.333 4.33301 76 13s42 22 58 40
s28.5 40.833 37.5 68.5s13.5 60.5 13.5 98.5v427h68v-436c0 -38 -4.5 -73.5 -13.5 -106.5s-23.5 -61.833 -43.5 -86.5s-46.167 -44 -78.5 -58s-71.5 -21 -117.5 -21z" />
    <glyph glyph-name="V" unicode="V" horiz-adv-x="624" 
d="M86 693l58 -168.499l55 -154l55 -146c18.667 -47.667 38.667 -95.834 60 -144.501l59.5 143.5l56 146l55 154.5l57.5 169h72l-82.5 -230l-68 -179l-60 -147.5l-59.5 -136.5h-63l-60 136.5l-60.5 147.5l-68 179l-82.5 230h76z" />
    <glyph glyph-name="W" unicode="W" horiz-adv-x="921" 
d="M491 608c32 -107.333 64.165 -204.501 96.498 -291.501s63.833 -166.833 94.5 -239.5c23.333 78.667 46.5 171.334 69.5 278.001s45.167 219.334 66.5 338.001h67c-12 -71.333 -24.167 -138.166 -36.5 -200.499s-25.166 -121.666 -38.499 -177.999
s-27.333 -110.333 -42 -162s-30.667 -102.5 -48 -152.5h-73l-47.5 114l-46.5 117.5l-46 126.5l-47 140l-47.5 -140l-46.5 -126.5l-46.5 -117.5l-47.5 -114h-72c-18 50 -34.5 100.833 -49.5 152.5s-29 105.667 -42 162s-25.333 115.666 -37 177.999
s-23.5 129.166 -35.5 200.499h70c10 -58.667 20.333 -116.167 31 -172.5s21.834 -110.833 33.501 -163.5s23.667 -102.5 36 -149.5s24.5 -90.5 36.5 -130.5l92 240.5c32.667 86.333 65 183.166 97 290.499h59z" />
    <glyph glyph-name="X" unicode="X" horiz-adv-x="608" 
d="M490 693l76 0.000976562l-223 -325l127 -184.5c41.333 -61.667 77.333 -122.834 108 -183.501h-74c-10 20 -22.833 43 -38.5 69l-51 82l-57 86l-56.5 81l-56.5 -81l-57 -86l-51 -82c-15.667 -26 -28.5 -49 -38.5 -69h-71c30.667 60.667 66.667 121.667 108 183l126 183
l-223 327h78l187 -279z" />
    <glyph glyph-name="Y" unicode="Y" horiz-adv-x="569" 
d="M251 0l-0.000976562 284.999c-47.333 72.667 -90.833 142.834 -130.5 210.501s-76.5 133.5 -110.5 197.5h79c28 -58.667 58.833 -118.167 92.5 -178.5s68.834 -117.833 105.501 -172.5c35.333 54.667 70 112.167 104 172.5s65.333 119.833 94 178.5h74l-112 -197.5
c-39.333 -68.333 -82 -137.833 -128 -208.5v-287h-68z" />
    <glyph glyph-name="Z" unicode="Z" horiz-adv-x="560" 
d="M510 631l-55.5 -68.002l-67.5 -87.5l-73.5 -101l-74 -108l-69 -107.5c-21.667 -35.333 -41.167 -68.666 -58.5 -99.999h408v-59h-482v51c14.667 28.667 32.167 60.167 52.5 94.5l65.5 106l73 109.5l75 105.5l70.5 93.5c22.333 28.667 42.833 53.334 61.5 74.001h-379v59
h453v-62z" />
    <glyph glyph-name="bracketleft" unicode="[" horiz-adv-x="310" 
d="M100 783h202v-50h-140v-868h140v-50h-202v968z" />
    <glyph glyph-name="backslash" unicode="\" horiz-adv-x="359" 
d="M-23 783h64l341 -968h-66z" />
    <glyph glyph-name="bracketright" unicode="]" horiz-adv-x="310" 
d="M210 -185h-202v50h140v868h-140v50h202v-968z" />
    <glyph glyph-name="asciicircum" unicode="^" 
d="M502 356l-49 -26l-171 308l-171 -308l-49 26l188 337h64z" />
    <glyph glyph-name="underscore" unicode="_" horiz-adv-x="490" 
d="M-5 -129h500v-56h-500v56z" />
    <glyph glyph-name="grave" unicode="`" horiz-adv-x="376" 
d="M106 773l158 -152l-33 -38l-171 139z" />
    <glyph glyph-name="a" unicode="a" horiz-adv-x="509" 
d="M249 47c25.333 0 47.5 0.831055 66.5 2.49805s35.167 3.83398 48.5 6.50098v182c-7.33301 3.33301 -19 6.83301 -35 10.5s-38 5.5 -66 5.5c-16 0 -32.667 -1.16699 -50 -3.5s-33.333 -7.33301 -48 -15s-26.667 -18.167 -36 -31.5s-14 -31 -14 -53
c0 -19.333 3.16699 -35.666 9.5 -48.999s15.333 -24 27 -32s25.667 -13.833 42 -17.5s34.833 -5.5 55.5 -5.5zM243 528.998c34 0 62.834 -4.83203 86.501 -14.499s42.834 -23 57.501 -40s25.334 -37.167 32.001 -60.5s10 -48.666 10 -75.999v-326
c-6.66699 -2 -16.334 -4.16699 -29.001 -6.5s-27.334 -4.83301 -44.001 -7.5s-35.167 -4.83398 -55.5 -6.50098s-41.166 -2.5 -62.499 -2.5c-27.333 0 -52.5 3 -75.5 9s-43 15.5 -60 28.5s-30.333 29.667 -40 50s-14.5 45.166 -14.5 74.499c0 28 5.33301 52 16 72
s25.667 36.5 45 49.5s42.333 22.5 69 28.5s55.667 9 87 9c9.33301 0 19.166 -0.5 29.499 -1.5s20.333 -2.33301 30 -4s18 -3.33398 25 -5.00098s11.833 -3.16699 14.5 -4.5v32c0 18 -1.33301 35.5 -4 52.5s-8.5 32.333 -17.5 46s-21.667 24.667 -38 33
s-37.833 12.5 -64.5 12.5c-38 0 -66.333 -2.66699 -85 -8s-32.334 -9.66602 -41.001 -12.999l-9 57c11.333 5.33301 28.833 10.333 52.5 15s52.167 7 85.5 7z" />
    <glyph glyph-name="b" unicode="b" horiz-adv-x="583" 
d="M151 486c11.333 8.66699 29.499 17.8311 54.499 27.498s54.5 14.5 88.5 14.5c37.333 0 70.5 -6.66699 99.5 -20s53.5 -32 73.5 -56s35.167 -52.5 45.5 -85.5s15.5 -69.167 15.5 -108.5c0 -42 -6.16699 -79.667 -18.5 -113s-29.666 -61.666 -51.999 -84.999
s-49 -41.166 -80 -53.499s-65.5 -18.5 -103.5 -18.5c-46 0 -84 3 -114 9s-54.667 12.333 -74 19v748l65 12v-290zM150.999 60.9971c10 -3.33301 24.833 -6.50098 44.5 -9.50098s45.5 -4.5 77.5 -4.5c56 0 101 18.167 135 54.5s51 88.5 51 156.5
c0 28.667 -3 55.834 -9 81.501s-15.667 48 -29 67s-30.833 34.167 -52.5 45.5s-48.5 17 -80.5 17c-15.333 0 -30 -1.5 -44 -4.5s-27 -6.83301 -39 -11.5s-22.5 -9.66699 -31.5 -15s-16.5 -10.333 -22.5 -15v-362z" />
    <glyph glyph-name="c" unicode="c" horiz-adv-x="460" 
d="M300 -11c-40 0 -75.332 6.33203 -105.999 18.999s-56.167 30.834 -76.5 54.501s-35.833 52 -46.5 85s-16 69.5 -16 109.5c0 40.667 5.5 77.667 16.5 111s26.833 62 47.5 86s45.667 42.5 75 55.5s62.333 19.5 99 19.5c28 0 54.167 -2.33301 78.5 -7
s43.166 -10.667 56.499 -18l-17 -56c-13.333 6.66699 -28.333 12 -45 16s-39 6 -67 6c-57.333 0 -100.833 -18.5 -130.5 -55.5s-44.5 -89.5 -44.5 -157.5c0 -30.667 3.33301 -58.834 10 -84.501s17.5 -47.667 32.5 -66s34.333 -32.666 58 -42.999s52.5 -15.5 86.5 -15.5
c28 0 51.5 3.16699 70.5 9.5s32.833 11.833 41.5 16.5l14 -56c-12 -6.66699 -30.833 -13.167 -56.5 -19.5s-52.5 -9.5 -80.5 -9.5z" />
    <glyph glyph-name="d" unicode="d" horiz-adv-x="583" 
d="M497 16c-19.333 -6.66699 -44.001 -12.9971 -74.001 -18.9971s-68 -9 -114 -9c-38 0 -72.5 6.16699 -103.5 18.5s-57.667 30.166 -80 53.499s-39.666 51.666 -51.999 84.999s-18.5 71 -18.5 113c0 39.333 5.16699 75.5 15.5 108.5s25.5 61.5 45.5 85.5
s44.5 42.667 73.5 56s62.167 20 99.5 20c34 0 63.5 -4.83301 88.5 -14.5s43.167 -18.834 54.5 -27.501v278l65 12v-760zM431.999 423.003c-6 4.66699 -13.5 9.66797 -22.5 15.001s-19.5 10.333 -31.5 15s-25 8.5 -39 11.5s-28.667 4.5 -44 4.5
c-32 0 -58.833 -5.66699 -80.5 -17s-39.167 -26.5 -52.5 -45.5s-23 -41.333 -29 -67s-9 -52.834 -9 -81.501c0 -68 17 -120.167 51 -156.5s79 -54.5 135 -54.5c32 0 57.833 1.5 77.5 4.5s34.5 6.16699 44.5 9.5v362z" />
    <glyph glyph-name="e" unicode="e" horiz-adv-x="548" 
d="M55 259c0 45.333 6.50098 84.8291 19.501 118.496s30 61.834 51 84.501s45 39.5 72 50.5s54.833 16.5 83.5 16.5c63.333 0 113.833 -20.667 151.5 -62s56.5 -105 56.5 -191c0 -5.33301 -0.166992 -10.666 -0.5 -15.999s-0.833008 -10.333 -1.5 -15h-363
c2 -63.333 17.667 -112 47 -146s76 -51 140 -51c35.333 0 63.333 3.33301 84 10s35.667 12.334 45 17.001l12 -56c-9.33301 -5.33301 -26.833 -11.666 -52.5 -18.999s-55.834 -11 -90.501 -11c-45.333 0 -84 6.66699 -116 20s-58.333 32 -79 56s-35.667 52.5 -45 85.5
s-14 69.167 -14 108.5zM422.001 299.996c-1.33301 54 -14 96.002 -38 126.002s-58 45 -102 45c-23.333 0 -44.166 -4.66699 -62.499 -14s-34.333 -21.833 -48 -37.5s-24.334 -33.834 -32.001 -54.501s-12.167 -42.334 -13.5 -65.001h296z" />
    <glyph glyph-name="f" unicode="f" horiz-adv-x="376" 
d="M276 776c28 0 50.832 -2.16895 68.499 -6.50195s29.167 -8.16602 34.5 -11.499l-13 -56c-7.33301 3.33301 -18.166 6.83301 -32.499 10.5s-32.5 5.5 -54.5 5.5c-46 0 -78.833 -11.667 -98.5 -35s-29.5 -60.666 -29.5 -111.999v-54h208v-55h-208v-462h-65v573
c0 67.333 15.5 118 46.5 152s78.833 51 143.5 51z" />
    <glyph glyph-name="g" unicode="g" horiz-adv-x="573" 
d="M423 60c-4 -3.33301 -10 -7.16797 -18 -11.501s-17.833 -8.83301 -29.5 -13.5s-25 -8.5 -40 -11.5s-31.833 -4.5 -50.5 -4.5c-30 0 -59 4.66699 -87 14s-52.5 24 -73.5 44s-37.833 45.833 -50.5 77.5s-19 70.167 -19 115.5c0 36.667 5.66699 70.667 17 102
s27.5 58.5 48.5 81.5s46.667 41 77 54s64.5 19.5 102.5 19.5c48 0 86.5 -3.16699 115.5 -9.5s52.833 -12.5 71.5 -18.5v-472c0 -77.333 -20 -132.5 -60 -165.5s-100.333 -49.5 -181 -49.5c-33.333 0 -63.5 2.5 -90.5 7.5s-50.167 10.833 -69.5 17.5l13 59
c16 -7.33301 37.833 -13.666 65.5 -18.999s55.5 -8 83.5 -8c61.333 0 105.833 11.833 133.5 35.5s41.5 64.167 41.5 121.5v34zM422 453.998c-11.333 3.33301 -25.998 6.49902 -43.998 9.49902s-43.667 4.5 -77 4.5c-28 0 -52.833 -4.83301 -74.5 -14.5
s-40.167 -23.334 -55.5 -41.001s-27 -38.667 -35 -63s-12 -51.166 -12 -80.499c0 -34 4.66699 -63.167 14 -87.5s21.5 -44.166 36.5 -59.499s32.167 -26.5 51.5 -33.5s39 -10.5 59 -10.5c29.333 0 56.166 4.33301 80.499 13s43.166 18.667 56.499 30v333z" />
    <glyph glyph-name="h" unicode="h" horiz-adv-x="569" 
d="M86 0l-0.000976562 763.999l65 12v-274c21.333 8 43 14.167 65 18.5s44 6.5 66 6.5c40 0 73.333 -5.66699 100 -17s48 -27.5 64 -48.5s27.167 -46.167 33.5 -75.5s9.5 -61.666 9.5 -96.999v-289h-65v268c0 36.667 -2.5 67.667 -7.5 93s-13.333 46 -25 62
s-27.167 27.5 -46.5 34.5s-43.666 10.5 -72.999 10.5c-11.333 0 -23.5 -1 -36.5 -3s-25.167 -4.16699 -36.5 -6.5s-21.5 -4.83301 -30.5 -7.5s-14.833 -4.66699 -17.5 -6v-445h-65z" />
    <glyph glyph-name="i" unicode="i" horiz-adv-x="237" 
d="M151 0h-65v517h65v-517zM166 673c0 -15.333 -4.66699 -27.5 -14 -36.5s-20.666 -13.5 -33.999 -13.5s-24.666 4.5 -33.999 13.5s-14 21.167 -14 36.5s4.66699 27.5 14 36.5s20.666 13.5 33.999 13.5s24.666 -4.5 33.999 -13.5s14 -21.167 14 -36.5z" />
    <glyph glyph-name="j" unicode="j" horiz-adv-x="237" 
d="M-11 -187c-7.33301 0 -16.499 0.998047 -27.499 2.99805s-19.167 4.33301 -24.5 7l9 53c4.66699 -1.33301 11 -2.66602 19 -3.99902s15.667 -2 23 -2c39.333 0 65.5 11 78.5 33s19.5 55 19.5 99v515h65v-512c0 -65.333 -12.333 -113.666 -37 -144.999
s-66.334 -47 -125.001 -47zM166.001 672.998c0 -15.333 -4.66699 -27.5 -14 -36.5s-20.666 -13.5 -33.999 -13.5s-24.666 4.5 -33.999 13.5s-14 21.167 -14 36.5s4.66699 27.5 14 36.5s20.666 13.5 33.999 13.5s24.666 -4.5 33.999 -13.5s14 -21.167 14 -36.5z" />
    <glyph glyph-name="k" unicode="k" horiz-adv-x="495" 
d="M224 281c20.667 -14 42.8311 -32.0039 66.498 -54.0039s47 -45.833 70 -71.5s44.667 -52 65 -79s37.5 -52.5 51.5 -76.5h-77c-16 26.667 -34.167 52.834 -54.5 78.501s-41.666 49.834 -63.999 72.501s-44.666 43.334 -66.999 62.001s-43.5 34.334 -63.5 47.001v-260h-65
v764l65 12v-492l56 55l62.5 63l59.5 62l48 53h78l-52 -54l-60.5 -62.5l-62.5 -63.5z" />
    <glyph glyph-name="l" unicode="l" horiz-adv-x="255" 
d="M217 -9c-22 0.666992 -41.167 3.50293 -57.5 8.50293s-30 12.667 -41 23s-19.333 23.666 -25 39.999s-8.5 36.833 -8.5 61.5v640l65 12v-650c0 -16 1.5 -28.833 4.5 -38.5s7.5 -17.334 13.5 -23.001s13.833 -9.83398 23.5 -12.501s21.167 -5 34.5 -7z" />
    <glyph glyph-name="m" unicode="m" horiz-adv-x="863" 
d="M86 499c19.333 5.33301 44.502 11.333 75.502 18s71.167 10 120.5 10c65.333 0 112.666 -19 141.999 -57c3.33301 2.66699 9.83301 7.16699 19.5 13.5s21.834 12.833 36.501 19.5s31.834 12.334 51.501 17.001s41.5 7 65.5 7c39.333 0 71.166 -5.83301 95.499 -17.5
s43.166 -28 56.499 -49s22.333 -46.167 27 -75.5s7 -61.333 7 -96v-289h-65v268c0 34 -1.5 63.5 -4.5 88.5s-9 45.667 -18 62s-21.833 28.666 -38.5 36.999s-38.334 12.5 -65.001 12.5c-20 0 -38.167 -1.83301 -54.5 -5.5s-30.5 -8.16699 -42.5 -13.5
s-21.833 -10.666 -29.5 -15.999s-13.167 -9.33301 -16.5 -12c6 -17.333 10.5 -36.833 13.5 -58.5s4.5 -44.5 4.5 -68.5v-294h-65v268c0 34 -1.5 63.5 -4.5 88.5s-9.16699 45.667 -18.5 62s-22.5 28.666 -39.5 36.999s-39.5 12.5 -67.5 12.5
c-31.333 0 -57.833 -1.66699 -79.5 -5s-35.5 -6.33301 -41.5 -9v-454h-65v499z" />
    <glyph glyph-name="n" unicode="n" horiz-adv-x="569" 
d="M86 499c19.333 5.33301 45.333 11.332 78 17.999s72.667 10 120 10c39.333 0 72.166 -5.66699 98.499 -17s47.333 -27.5 63 -48.5s26.834 -46.167 33.501 -75.5s10 -61.666 10 -96.999v-289h-65v268c0 36.667 -2.5 67.667 -7.5 93s-13.333 46 -25 62s-27 27.5 -46 34.5
s-42.833 10.5 -71.5 10.5c-30.667 0 -57.167 -1.66699 -79.5 -5s-36.833 -6.33301 -43.5 -9v-454h-65v499z" />
    <glyph glyph-name="o" unicode="o" horiz-adv-x="582" 
d="M527 258c0 -40.667 -5.83301 -77.667 -17.5 -111s-28 -61.666 -49 -84.999s-45.833 -41.5 -74.5 -54.5s-60.334 -19.5 -95.001 -19.5s-66.334 6.5 -95.001 19.5s-53.5 31.167 -74.5 54.5s-37.333 51.666 -49 84.999s-17.5 70.333 -17.5 111s5.83301 77.667 17.5 111
s28 61.833 49 85.5s45.833 42 74.5 55s60.334 19.5 95.001 19.5s66.334 -6.5 95.001 -19.5s53.5 -31.333 74.5 -55s37.333 -52.167 49 -85.5s17.5 -70.333 17.5 -111zM458 258c0 64.667 -15 116.167 -45 154.5s-70.667 57.5 -122 57.5s-92 -19.167 -122 -57.5
s-45 -89.833 -45 -154.5s15 -116 45 -154s70.667 -57 122 -57s92 19 122 57s45 89.333 45 154z" />
    <glyph glyph-name="p" unicode="p" horiz-adv-x="583" 
d="M151 93c6 -4.66699 13.5 -9.66797 22.5 -15.001s19.5 -10.333 31.5 -15s25 -8.5 39 -11.5s28.667 -4.5 44 -4.5c32 0 58.833 5.5 80.5 16.5s39.167 26 52.5 45s23 41.333 29 67s9 52.834 9 81.501c0 68 -17 120.167 -51 156.5s-79 54.5 -135 54.5
c-32 0 -57.833 -1.5 -77.5 -4.5s-34.5 -6.16699 -44.5 -9.5v-361zM151 -185.001l-64.999 -0.00292969v684c19.333 6.66699 44 13 74 19s68 9 114 9c38 0 72.5 -6.16699 103.5 -18.5s57.667 -30.166 80 -53.499s39.666 -51.666 51.999 -84.999s18.5 -71 18.5 -113
c0 -39.333 -5.16699 -75.5 -15.5 -108.5s-25.5 -61.333 -45.5 -85s-44.5 -42.167 -73.5 -55.5s-62.167 -20 -99.5 -20c-34 0 -63.5 4.83301 -88.5 14.5s-43.167 18.834 -54.5 27.501v-215z" />
    <glyph glyph-name="q" unicode="q" horiz-adv-x="583" 
d="M432 454c-10 3.33301 -24.833 6.50098 -44.5 9.50098s-45.5 4.5 -77.5 4.5c-56 0 -101 -18.167 -135 -54.5s-51 -88.5 -51 -156.5c0 -28.667 3 -55.834 9 -81.501s15.667 -48 29 -67s30.833 -34 52.5 -45s48.5 -16.5 80.5 -16.5c15.333 0 30 1.5 44 4.5
s27 6.83301 39 11.5s22.5 9.66699 31.5 15s16.5 10.333 22.5 15v361zM432 30.001c-11.333 -8.66699 -29.499 -17.8311 -54.499 -27.498s-54.5 -14.5 -88.5 -14.5c-37.333 0 -70.5 6.66699 -99.5 20s-53.5 31.833 -73.5 55.5s-35.167 52 -45.5 85s-15.5 69.167 -15.5 108.5
c0 42 6.16699 79.667 18.5 113s29.666 61.666 51.999 84.999s49 41.166 80 53.499s65.5 18.5 103.5 18.5c46 0 84 -3 114 -9s54.667 -12.333 74 -19v-684h-65v215z" />
    <glyph glyph-name="r" unicode="r" horiz-adv-x="374" 
d="M262 527c21.333 0 41.499 -1.66797 60.499 -5.00098s32.167 -6.66602 39.5 -9.99902l-13 -56c-5.33301 2.66699 -16.166 5.5 -32.499 8.5s-37.833 4.5 -64.5 4.5c-28 0 -50.5 -2 -67.5 -6s-28.167 -7.33301 -33.5 -10v-453h-65v493c16.667 7.33301 39.667 14.833 69 22.5
s65 11.5 107 11.5z" />
    <glyph glyph-name="s" unicode="s" horiz-adv-x="428" 
d="M192 46c37.333 0 68.165 6.16992 92.498 18.5029s36.5 33.166 36.5 62.499c0 14 -2.16699 26 -6.5 36s-11.5 19 -21.5 27s-23.167 15.667 -39.5 23l-60.5 26c-19.333 8 -37.666 16.167 -54.999 24.5s-32.666 18 -45.999 29s-24 24.167 -32 39.5s-12 34 -12 56
c0 42 15.833 76 47.5 102s75.167 39 130.5 39c35.333 0 64.5 -3 87.5 -9s39.167 -11.333 48.5 -16l-15 -58c-8 4 -21.5 9.33301 -40.5 16s-46.833 10 -83.5 10c-14.667 0 -28.5 -1.5 -41.5 -4.5s-24.5 -7.66699 -34.5 -14s-18 -14.333 -24 -24s-9 -21.5 -9 -35.5
s2.66699 -26 8 -36s13.166 -18.833 23.499 -26.5s23 -14.834 38 -21.501l51.5 -22c20 -8 39.167 -16.167 57.5 -24.5s34.5 -18.333 48.5 -30s25.333 -25.667 34 -42s13 -36.833 13 -61.5c0 -46.667 -17.5 -82 -52.5 -106s-82.833 -36 -143.5 -36
c-45.333 0 -80 3.83301 -104 11.5s-40 13.5 -48 17.5l17 59c2 -1.33301 6.33301 -3.5 13 -6.5s15.667 -6.33301 27 -10s24.833 -6.83398 40.5 -9.50098s33.834 -4 54.501 -4z" />
    <glyph glyph-name="t" unicode="t" horiz-adv-x="387" 
d="M147 517h205.999v-55h-206v-275c0 -29.333 2.5 -53.166 7.5 -71.499s12.167 -32.5 21.5 -42.5s20.666 -16.667 33.999 -20s28 -5 44 -5c27.333 0 49.333 3.16699 66 9.5s29.667 12.166 39 17.499l16 -54c-9.33301 -6 -25.666 -12.833 -48.999 -20.5
s-48.666 -11.5 -75.999 -11.5c-32 0 -58.833 4.16699 -80.5 12.5s-39 21 -52 38s-22.167 38.167 -27.5 63.5s-8 55.333 -8 90v476l65 12v-164z" />
    <glyph glyph-name="u" unicode="u" horiz-adv-x="569" 
d="M483 18c-19.333 -5.33301 -45.334 -11.332 -78.001 -17.999s-72.667 -10 -120 -10c-38.667 0 -71 5.66699 -97 17s-47 27.333 -63 48s-27.5 45.667 -34.5 75s-10.5 61.666 -10.5 96.999v290h65v-269c0 -36.667 2.66699 -67.667 8 -93s14 -45.833 26 -61.5
s27.5 -27 46.5 -34s42.167 -10.5 69.5 -10.5c30.667 0 57.334 1.66699 80.001 5s37 6.33301 43 9v454h65v-499z" />
    <glyph glyph-name="v" unicode="v" horiz-adv-x="480" 
d="M242 70c14 28.667 28.3271 61.5 42.9941 98.5s28.834 75.333 42.501 115s26.334 79.667 38.001 120s21.5 78.166 29.5 113.499h65c-12 -47.333 -25.333 -94 -40 -140s-30.167 -91 -46.5 -135s-33.333 -86.333 -51 -127l-51.5 -115h-62
c-17.333 36 -34.666 74.333 -51.999 115s-34.166 83 -50.499 127s-31.833 89 -46.5 135s-28 92.667 -40 140h69c8 -35.333 17.833 -73.166 29.5 -113.499s24.334 -80.333 38.001 -120s27.834 -78 42.501 -115s29 -69.833 43 -98.5z" />
    <glyph glyph-name="w" unicode="w" horiz-adv-x="775" 
d="M419 517c6 -33.333 13.8311 -68.832 23.498 -106.499s20.334 -76 32.001 -115s24 -77.5 37 -115.5s26.167 -73.667 39.5 -107c11.333 25.333 23.333 56.166 36 92.499s25.334 74.666 38.001 114.999s24.5 81 35.5 122s20.167 79.167 27.5 114.5h64
c-24 -101.333 -50.167 -194 -78.5 -278s-59.5 -163.667 -93.5 -239h-61c-10 23.333 -20.5 49.5 -31.5 78.5l-34 93c-11.667 33 -23 67.667 -34 104s-21.5 73.5 -31.5 111.5c-10 -38 -20.5 -75.167 -31.5 -111.5s-22.333 -71 -34 -104l-34 -93
c-11 -29 -21.5 -55.167 -31.5 -78.5h-62c-34 75.333 -65.167 155 -93.5 239s-54.5 176.667 -78.5 278h69c7.33301 -35.333 16.5 -73.5 27.5 -114.5s22.833 -81.667 35.5 -122s25.5 -78.5 38.5 -114.5s25.167 -66.667 36.5 -92c12.667 33.333 25.5 69 38.5 107
s25.167 76.333 36.5 115s22 76.834 32 114.501s18.667 73.167 26 106.5h56z" />
    <glyph glyph-name="x" unicode="x" horiz-adv-x="499" 
d="M248 234l-44 -60.999l-42.5 -63c-13.667 -20.667 -26.167 -40.5 -37.5 -59.5s-21 -35.833 -29 -50.5h-67c27.333 51.333 56 99.166 86 143.499l92 130.5l-168 243h76l134 -198l136 198h71l-165 -239l45 -61l48 -68.5c16 -23.667 31.5 -48.167 46.5 -73.5
s28.833 -50.333 41.5 -75h-70c-8 14.667 -17.667 31.5 -29 50.5s-23.833 38.833 -37.5 59.5l-43 63z" />
    <glyph glyph-name="y" unicode="y" horiz-adv-x="474" 
d="M227 -11c-22 40.667 -43.1621 83 -63.4951 127s-39.333 88.5 -57 133.5s-33.834 90 -48.501 135s-27.334 89.167 -38.001 132.5h69c7.33301 -32 16.666 -66.5 27.999 -103.5s24.166 -75.167 38.499 -114.5s30.166 -79.666 47.499 -120.999s36 -82 56 -122
c14.667 41.333 27.667 80.333 39 117s21.833 73.167 31.5 109.5s19 73.5 28 111.5l28.5 123h65c-21.333 -96.667 -45.666 -190.667 -72.999 -282s-57 -175 -89 -251c-12.667 -30 -25.667 -55.833 -39 -77.5s-28.166 -39.5 -44.499 -53.5s-35.333 -24.333 -57 -31
s-47.167 -10 -76.5 -10c-16.667 0 -31.834 2 -45.501 6s-22.167 7 -25.5 9l13 54c2.66699 -2 10.167 -4.83301 22.5 -8.5s25.166 -5.5 38.499 -5.5c18.667 0 35.5 2 50.5 6s28.5 10.833 40.5 20.5s22.833 22.167 32.5 37.5s19.167 34.666 28.5 57.999z" />
    <glyph glyph-name="z" unicode="z" horiz-adv-x="455" 
d="M407 464c-15.333 -17.333 -35.333 -41.333 -60 -72l-79 -102.5c-28 -37.667 -55.667 -77 -83 -118s-51.333 -79.833 -72 -116.5h303v-55h-378v47c17.333 32.667 38.833 68.667 64.5 108l79.5 116.5l80 108c26 33.667 48 61.167 66 82.5h-275v55h354v-53z" />
    <glyph glyph-name="braceleft" unicode="{" horiz-adv-x="319" 
d="M132 289c10.667 -6 20.334 -13.165 29.001 -21.498s16 -18.833 22 -31.5s10.5 -28 13.5 -46s4.5 -39.333 4.5 -64v-107c0 -31.333 0.666992 -57.5 2 -78.5s5.5 -38 12.5 -51s17.833 -22.167 32.5 -27.5s35.667 -8 63 -8v-50h-8c-32 0 -58.667 3.66699 -80 11
s-38.166 18 -50.499 32s-21 31.333 -26 52s-7.5 44.667 -7.5 72v194c0 12 -1.83301 23.833 -5.5 35.5s-9.5 22.167 -17.5 31.5s-18 17 -30 23s-26.333 9 -43 9v49c16.667 0 31 3 43 9s22 13.667 30 23s13.833 19.833 17.5 31.5s5.5 23.5 5.5 35.5v194
c0 26.667 2.5 50.5 7.5 71.5s13.667 38.5 26 52.5s29.166 24.667 50.499 32s48 11 80 11h8v-50c-27.333 0 -48.333 -2.66699 -63 -8s-25.5 -14.5 -32.5 -27.5s-11.167 -30 -12.5 -51s-2 -47.167 -2 -78.5v-107c0 -24.667 -1.5 -45.834 -4.5 -63.501
s-7.5 -32.834 -13.5 -45.501s-13.333 -23.167 -22 -31.5s-18.334 -15.5 -29.001 -21.5z" />
    <glyph glyph-name="bar" unicode="|" horiz-adv-x="262" 
d="M100 783h62v-968h-62v968z" />
    <glyph glyph-name="braceright" unicode="}" horiz-adv-x="319" 
d="M187 289c-10.667 6 -20.334 13.165 -29.001 21.498s-16 18.833 -22 31.5s-10.5 27.834 -13.5 45.501s-4.5 38.834 -4.5 63.501v107c0 31.333 -0.666992 57.5 -2 78.5s-5.5 38 -12.5 51s-17.833 22.167 -32.5 27.5s-35.667 8 -63 8v50h8c32 0 58.667 -3.66699 80 -11
s38.166 -18 50.499 -32s21 -31.5 26 -52.5s7.5 -44.833 7.5 -71.5v-194c0 -12 1.83301 -23.833 5.5 -35.5s9.5 -22.167 17.5 -31.5s18 -17 30 -23s26.333 -9 43 -9v-49c-16.667 0 -31 -3 -43 -9s-22 -13.667 -30 -23s-13.833 -19.833 -17.5 -31.5s-5.5 -23.5 -5.5 -35.5
v-194c0 -27.333 -2.5 -51.333 -7.5 -72s-13.667 -38 -26 -52s-29.166 -24.667 -50.499 -32s-48 -11 -80 -11h-8v50c27.333 0 48.333 2.66699 63 8s25.5 14.5 32.5 27.5s11.167 30 12.5 51s2 47.167 2 78.5v107c0 24.667 1.5 46 4.5 64s7.5 33.333 13.5 46
s13.333 23.167 22 31.5s18.334 15.5 29.001 21.5z" />
    <glyph glyph-name="asciitilde" unicode="~" 
d="M384 222c-22.667 0 -43.0029 4.66699 -61.0029 14s-35.167 19.666 -51.5 30.999s-32.333 21.666 -48 30.999s-32.167 14 -49.5 14c-12.667 0 -23.334 -3.16699 -32.001 -9.5s-15.834 -14 -21.501 -23s-10 -18 -13 -27s-5.16699 -16.167 -6.5 -21.5l-51 12
c2.66699 12 6.83398 25.167 12.501 39.5s13.334 27.666 23.001 39.999s22.167 22.666 37.5 30.999s34.333 12.5 57 12.5s43 -4.66699 61 -14s35.167 -19.666 51.5 -30.999s32.333 -21.666 48 -30.999s32.167 -14 49.5 -14c12.667 0 23.334 3.16699 32.001 9.5
s15.834 14 21.501 23s10 18 13 27s5.16699 16.167 6.5 21.5l51 -12c-3.33301 -12 -7.66602 -25.167 -12.999 -39.5s-12.833 -27.666 -22.5 -39.999s-22.167 -22.666 -37.5 -30.999s-34.333 -12.5 -57 -12.5z" />
    <glyph glyph-name="uni00A0" unicode="&#xa0;" horiz-adv-x="228" 
 />
    <glyph glyph-name="exclamdown" unicode="&#xa1;" horiz-adv-x="274" 
d="M172 -185l-70 -0.000976562v190c0 57.333 1.83301 108.333 5.5 153s8.5 89.334 14.5 134.001h30c2.66699 -22 5.16699 -44 7.5 -66s4.5 -44.667 6.5 -68s3.5 -47.5 4.5 -72.5s1.5 -51.833 1.5 -80.5v-190zM192 461.999c0 -15.333 -4.83301 -28.333 -14.5 -39
s-23.167 -16 -40.5 -16s-30.833 5.33301 -40.5 16s-14.5 23.667 -14.5 39s4.83301 28.333 14.5 39s23.167 16 40.5 16s30.833 -5.33301 40.5 -16s14.5 -23.667 14.5 -39z" />
    <glyph glyph-name="cent" unicode="&#xa2;" 
d="M304 34c-32 4.66699 -60.333 14.332 -85 28.999s-45.167 33.167 -61.5 55.5s-28.833 48 -37.5 77s-13 60.5 -13 94.5s4.5 65.833 13.5 95.5s22 55.834 39 78.501s37.667 41.5 62 56.5s51.833 24.833 82.5 29.5v143h59v-141c20.667 0 40.5 -2.16699 59.5 -6.5
s37.833 -10.166 56.5 -17.499l-17 -55c-14 6 -30.5 11.333 -49.5 16s-38.833 7 -59.5 7c-58 0 -102 -17.167 -132 -51.5s-45 -85.833 -45 -154.5c0 -29.333 3.5 -56.333 10.5 -81s18 -46 33 -64s34.333 -32 58 -42s52.167 -15 85.5 -15c28 0 51.667 2.83301 71 8.5
s33.333 10.5 42 14.5l12 -54c-4 -2.66699 -10.5 -5.5 -19.5 -8.5s-19.167 -5.66699 -30.5 -8s-23.5 -4.33301 -36.5 -6s-25.833 -2.83398 -38.5 -3.50098v-140h-59v143z" />
    <glyph glyph-name="sterling" unicode="&#xa3;" 
d="M242 364l201 0.00195312v-55h-201v-9c0 -39.333 -1.16699 -79.5 -3.5 -120.5s-6.83301 -81.833 -13.5 -122.5h303v-57h-379c7.33301 46 13.5 93.167 18.5 141.5s7.5 100.166 7.5 155.499v12h-96v55h96v96c0 49.333 5 90 15 122s24.167 57.167 42.5 75.5s40 31 65 38
s52.5 10.5 82.5 10.5c28 0 52.5 -2.83301 73.5 -8.5s39.167 -12.167 54.5 -19.5l-18 -59c-32.667 17.333 -72 26 -118 26c-20.667 0 -39.167 -2.66699 -55.5 -8s-30 -14.833 -41 -28.5s-19.333 -31.834 -25 -54.501s-8.5 -51 -8.5 -85v-105z" />
    <glyph glyph-name="currency" unicode="&#xa4;" 
d="M95 347c0 22 3 42.833 9 62.5s14.667 37.167 26 52.5l-74 76l40 41l76 -78c15.333 11.333 32.333 20 51 26s38.334 9 59.001 9s40.334 -3 59.001 -9s35.667 -14.667 51 -26l76 78l40 -41l-74 -76c11.333 -15.333 20 -32.833 26 -52.5s9 -40.5 9 -62.5
s-3 -42.833 -9 -62.5s-14.667 -37.167 -26 -52.5l74 -76l-40 -41l-76 78c-15.333 -11.333 -32.333 -20 -51 -26s-38.334 -9 -59.001 -9s-40.334 3 -59.001 9s-35.667 14.667 -51 26l-76 -78l-40 41l74 76c-11.333 15.333 -20 32.833 -26 52.5s-9 40.5 -9 62.5zM411 347
c0 20 -3.33301 38.333 -10 55s-15.834 31 -27.501 43s-25.334 21.333 -41.001 28s-32.5 10 -50.5 10s-34.833 -3.33301 -50.5 -10s-29.334 -16 -41.001 -28s-20.834 -26.333 -27.501 -43s-10 -35 -10 -55s3.33301 -38.333 10 -55s15.834 -31 27.501 -43
s25.334 -21.333 41.001 -28s32.5 -10 50.5 -10s34.833 3.33301 50.5 10s29.334 16 41.001 28s20.834 26.333 27.501 43s10 35 10 55z" />
    <glyph glyph-name="yen" unicode="&#xa5;" 
d="M250 0v115h-163v53h163v119h-163v53h149l-111 179.5c-34 57.667 -65.333 115.5 -94 173.5h69c26 -55.333 54.667 -110.166 86 -164.499s64 -106.833 98 -157.5c34 50.667 66.5 103.167 97.5 157.5s59.5 109.166 85.5 164.499h66
c-28.667 -58 -60.167 -115.833 -94.5 -173.5l-111.5 -179.5h151v-53h-163v-119h163v-53h-163v-115h-65z" />
    <glyph glyph-name="brokenbar" unicode="&#xa6;" horiz-adv-x="262" 
d="M100 191h62v-376h-62v376zM100 783h62v-376h-62v376z" />
    <glyph glyph-name="section" unicode="&#xa7;" horiz-adv-x="482" 
d="M72 -28c17.333 -7.33301 36.667 -14.1631 58 -20.4961s51.666 -9.5 90.999 -9.5c17.333 0 33.666 1.66699 48.999 5s28.833 8.5 40.5 15.5s20.834 15.833 27.501 26.5s10 23.667 10 39c0 14 -2.33301 26.333 -7 37s-12.167 20.334 -22.5 29.001
s-23.666 16.667 -39.999 24s-35.833 15 -58.5 23c-23.333 8 -45.5 16.167 -66.5 24.5s-39.333 18.666 -55 30.999s-28.167 27.5 -37.5 45.5s-14 40.333 -14 67c0 18.667 3.16699 35.834 9.5 51.501s14.166 29.5 23.499 41.5s19.833 22.333 31.5 31s22.5 16 32.5 22
c-20 14.667 -34.833 30.5 -44.5 47.5s-14.5 37.833 -14.5 62.5c0 44 14.833 78.833 44.5 104.5s73.5 38.5 131.5 38.5c40 0 71.667 -3.16699 95 -9.5s40 -11.5 50 -15.5l-16 -53c-11.333 5.33301 -27.5 11.166 -48.5 17.499s-48.167 9.5 -81.5 9.5
c-32.667 0 -59.667 -6.5 -81 -19.5s-32 -33.5 -32 -61.5c0 -27.333 8.83301 -48.666 26.5 -63.999s47.167 -29.333 88.5 -42c22 -7.33301 43.333 -15 64 -23s39.334 -18.167 56.001 -30.5s30 -27.833 40 -46.5s15 -42 15 -70c0 -16.667 -2.66699 -32.334 -8 -47.001
s-12.5 -28.334 -21.5 -41.001s-19.333 -23.834 -31 -33.501s-23.5 -17.834 -35.5 -24.501c22 -13.333 39.167 -30 51.5 -50s18.5 -42.333 18.5 -67c0 -48 -17.833 -84.333 -53.5 -109s-83.5 -37 -143.5 -37c-40 0 -72.5 3.16699 -97.5 9.5s-45.167 13.166 -60.5 20.499z
M227.001 420.003l-21.501 7.50293c-7 2.33301 -12.167 4.16602 -15.5 5.49902c-23.333 -12 -42.666 -27.333 -57.999 -46s-23 -42 -23 -70c0 -19.333 3.83301 -35.333 11.5 -48s18.167 -23.667 31.5 -33s29 -17.5 47 -24.5s37.333 -13.833 58 -20.5
c6.66699 -2 13.667 -4.33301 21 -7s13.333 -5 18 -7c25.333 12.667 44.833 29.667 58.5 51s20.5 43.666 20.5 66.999c0 18.667 -4.33301 34.667 -13 48s-20 24.666 -34 33.999s-29.833 17.333 -47.5 24s-35.5 13 -53.5 19z" />
    <glyph glyph-name="dieresis" unicode="&#xa8;" horiz-adv-x="376" 
d="M148 673c0 -14.667 -4.33301 -26.334 -13 -35.001s-19.667 -13 -33 -13s-24.333 4.33301 -33 13s-13 20.334 -13 35.001s4.33301 26.334 13 35.001s19.667 13 33 13s24.333 -4.33301 33 -13s13 -20.334 13 -35.001zM320 673c0 -14.667 -4.33301 -26.334 -13 -35.001
s-19.667 -13 -33 -13s-24.333 4.33301 -33 13s-13 20.334 -13 35.001s4.33301 26.334 13 35.001s19.667 13 33 13s24.333 -4.33301 33 -13s13 -20.334 13 -35.001z" />
    <glyph glyph-name="copyright" unicode="&#xa9;" horiz-adv-x="826" 
d="M418 142c-26 0 -50.165 4.66699 -72.498 14s-41.833 22.666 -58.5 39.999s-29.667 38.833 -39 64.5s-14 54.834 -14 87.501c0 32 5.16699 60.5 15.5 85.5s24.166 46.333 41.499 64s37.333 31 60 40s46.334 13.5 71.001 13.5c32.667 0 59.167 -4.5 79.5 -13.5
s34.166 -16.167 41.499 -21.5l-19 -45c-10 5.33301 -22.833 11.166 -38.5 17.499s-36.834 9.5 -63.501 9.5c-36.667 0 -67.167 -13 -91.5 -39s-36.5 -63 -36.5 -111c0 -49.333 11.833 -87.166 35.5 -113.499s55.834 -39.5 96.501 -39.5c28.667 0 51.167 3.16699 67.5 9.5
s28.166 11.833 35.499 16.5l17 -48c-8.66699 -5.33301 -24 -11.833 -46 -19.5s-49.333 -11.5 -82 -11.5zM752.002 347c0 -57.333 -9.33301 -108.333 -28 -153s-43.5 -82.5 -74.5 -113.5s-67 -54.667 -108 -71s-83.833 -24.5 -128.5 -24.5s-87.5 8.16699 -128.5 24.5
s-77 40 -108 71s-55.833 68.833 -74.5 113.5s-28 95.667 -28 153c0 56.667 9.33301 107.5 28 152.5s43.5 82.833 74.5 113.5s67 54.167 108 70.5s83.833 24.5 128.5 24.5s87.5 -8.16699 128.5 -24.5s77 -39.833 108 -70.5s55.833 -68.5 74.5 -113.5s28 -95.833 28 -152.5z
M693.002 347c0 46 -7 88 -21 126s-33.333 70.5 -58 97.5s-54.167 47.833 -88.5 62.5s-71.833 22 -112.5 22s-78.167 -7.33301 -112.5 -22s-63.833 -35.5 -88.5 -62.5s-44 -59.5 -58 -97.5s-21 -80 -21 -126s7 -88 21 -126s33.333 -70.5 58 -97.5s54.167 -48 88.5 -63
s71.833 -22.5 112.5 -22.5s78.167 7.5 112.5 22.5s63.833 36 88.5 63s44 59.5 58 97.5s21 80 21 126z" />
    <glyph glyph-name="ordfeminine" unicode="&#xaa;" horiz-adv-x="386" 
d="M195 379c14.667 0 29.001 0.500977 43.001 1.50098s24.667 2.16699 32 3.5v120c-8.66699 1.33301 -18.667 2.66602 -30 3.99902s-23 2 -35 2c-14 0 -27.333 -1 -40 -3s-23.834 -5.33301 -33.501 -10s-17.167 -11.167 -22.5 -19.5s-8 -18.5 -8 -30.5
c0 -21.333 6.66699 -38 20 -50s38 -18 74 -18zM189.001 704.001c24.667 0 45.667 -3.16797 63 -9.50098s31.333 -15.333 42 -27s18.334 -25.667 23.001 -42s7 -34.166 7 -53.499v-226c-8 -2 -17.5 -3.83301 -28.5 -5.5s-22.333 -3.16699 -34 -4.5
s-23.334 -2.33301 -35.001 -3s-21.834 -1 -30.501 -1c-44.667 0 -80.834 8.83301 -108.501 26.5s-41.5 45.834 -41.5 84.501c0 20 4.16699 37.167 12.5 51.5s19.666 26 33.999 35s31 15.667 50 20s39.167 6.5 60.5 6.5c7.33301 0 17 -0.666992 29 -2s24.667 -3.33301 38 -6
v9c0 12 -0.666992 23.833 -2 35.5s-4.66602 22.167 -9.99902 31.5s-13.5 17 -24.5 23s-25.833 9 -44.5 9c-17.333 0 -34.166 -0.833008 -50.499 -2.5s-31.166 -4.83398 -44.499 -9.50098l-7 46c11.333 3.33301 25.833 6.5 43.5 9.5s37.167 4.5 58.5 4.5z" />
    <glyph glyph-name="guillemotleft" unicode="&#xab;" horiz-adv-x="452" 
d="M188 72l-152 212l152 211l41 -26l-116 -185l116 -186zM365 72l-152 212l152 211l41 -26l-116 -185l116 -186z" />
    <glyph glyph-name="logicalnot" unicode="&#xac;" 
d="M508 48h-58v276h-394v56h452v-332z" />
    <glyph glyph-name="uni00AD" unicode="&#xad;" horiz-adv-x="282" 
d="M28 321h226v-63h-226v63z" />
    <glyph glyph-name="registered" unicode="&#xae;" horiz-adv-x="826" 
d="M521 149c-17.333 31.333 -35.334 61.165 -54.001 89.498s-35 50.833 -49 67.5c-4.66699 -0.666992 -9 -1 -13 -1h-11h-63v-156h-55v387c15.333 3.33301 32.5 6 51.5 8s36.833 3 53.5 3c56.667 0 99.834 -10.333 129.501 -31s44.5 -52 44.5 -94
c0 -24 -6.66699 -45.5 -20 -64.5s-33 -33.167 -59 -42.5c5.33301 -6 12.5 -15.167 21.5 -27.5s18.5 -26.166 28.5 -41.499s20 -31.666 30 -48.999s18.667 -33.333 26 -48h-61zM330.999 349.999h49.998c16.667 0 32 1 46 3s26.167 5.83301 36.5 11.5s18.333 13.167 24 22.5
s8.5 21.333 8.5 36c0 14 -3.16699 25.833 -9.5 35.5s-14.666 17.5 -24.999 23.5s-22.166 10.333 -35.499 13s-27.333 4 -42 4c-10 0 -19.5 -0.166992 -28.5 -0.5s-17.167 -0.833008 -24.5 -1.5v-147zM751.997 346.999c0 -57.333 -9.33301 -108.333 -28 -153
s-43.5 -82.5 -74.5 -113.5s-67 -54.667 -108 -71s-83.833 -24.5 -128.5 -24.5s-87.5 8.16699 -128.5 24.5s-77 40 -108 71s-55.833 68.833 -74.5 113.5s-28 95.667 -28 153c0 56.667 9.33301 107.5 28 152.5s43.5 82.833 74.5 113.5s67 54.167 108 70.5
s83.833 24.5 128.5 24.5s87.5 -8.16699 128.5 -24.5s77 -39.833 108 -70.5s55.833 -68.5 74.5 -113.5s28 -95.833 28 -152.5zM692.997 346.999c0 46 -7 88 -21 126s-33.333 70.5 -58 97.5s-54.167 47.833 -88.5 62.5s-71.833 22 -112.5 22s-78.167 -7.33301 -112.5 -22
s-63.833 -35.5 -88.5 -62.5s-44 -59.5 -58 -97.5s-21 -80 -21 -126s7 -88 21 -126s33.333 -70.5 58 -97.5s54.167 -48 88.5 -63s71.833 -22.5 112.5 -22.5s78.167 7.5 112.5 22.5s63.833 36 88.5 63s44 59.5 58 97.5s21 80 21 126z" />
    <glyph glyph-name="macron" unicode="&#xaf;" horiz-adv-x="376" 
d="M56 649v55h265v-55h-265z" />
    <glyph glyph-name="degree" unicode="&#xb0;" horiz-adv-x="318" 
d="M159 511c-17.333 0 -33.833 3 -49.5 9s-29.5 14.5 -41.5 25.5s-21.5 24.667 -28.5 41s-10.5 34.833 -10.5 55.5s3.5 39.167 10.5 55.5s16.5 30 28.5 41s25.833 19.5 41.5 25.5s32.167 9 49.5 9s33.833 -3 49.5 -9s29.5 -14.5 41.5 -25.5s21.5 -24.667 28.5 -41
s10.5 -34.833 10.5 -55.5s-3.5 -39.167 -10.5 -55.5s-16.5 -30 -28.5 -41s-25.833 -19.5 -41.5 -25.5s-32.167 -9 -49.5 -9zM159 556c23.333 0 42.833 7.66699 58.5 23s23.5 36.333 23.5 63s-7.83301 47.667 -23.5 63s-35.167 23 -58.5 23s-42.833 -7.66699 -58.5 -23
s-23.5 -36.333 -23.5 -63s7.83301 -47.667 23.5 -63s35.167 -23 58.5 -23z" />
    <glyph glyph-name="plusminus" unicode="&#xb1;" 
d="M56 56h452v-56h-452v56zM56 401h197v217h58v-217h197v-56h-197v-217h-58v217h-197v56z" />
    <glyph glyph-name="twosuperior" unicode="&#xb2;" horiz-adv-x="359" 
d="M284 600c0 -14 -2.5 -27.002 -7.5 -39.002s-11.5 -23.167 -19.5 -33.5s-17.167 -20.166 -27.5 -29.499s-21.166 -18.333 -32.499 -27c-17.333 -14 -31.5 -26.333 -42.5 -37s-19.667 -20 -26 -28s-10.666 -15.333 -12.999 -22s-3.5 -13 -3.5 -19h191v-48h-248
c-0.666992 3.33301 -1 6.66602 -1 9.99902v10c0 20 3.33301 37.833 10 53.5s15.167 30 25.5 43s21.833 25 34.5 36l37 33.5l26 22.5c8 7 15 14.333 21 22s10.833 15.834 14.5 24.501s5.5 18.667 5.5 30c0 22 -6.66699 37.167 -20 45.5s-29 12.5 -47 12.5
c-11.333 0 -21.833 -1.5 -31.5 -4.5s-18.5 -6.66699 -26.5 -11s-14.833 -8.66602 -20.5 -12.999s-9.83398 -7.83301 -12.501 -10.5l-27 38c11.333 12 27.166 23.167 47.499 33.5s45.5 15.5 75.5 15.5c37.333 0 66.333 -9 87 -27s31 -45 31 -81z" />
    <glyph glyph-name="threesuperior" unicode="&#xb3;" horiz-adv-x="359" 
d="M146 357c38 0 63.6719 6.50195 77.0049 19.502s20 29.167 20 48.5c0 14 -3.33301 25.667 -10 35s-15.334 17 -26.001 23s-23.167 10.167 -37.5 12.5s-28.833 3.5 -43.5 3.5h-13v45h15c12 0 23.833 0.833008 35.5 2.5s21.834 5 30.501 10s15.667 11.5 21 19.5
s8 18.667 8 32c0 19.333 -6.16699 33 -18.5 41s-28.833 12 -49.5 12c-21.333 0 -39.333 -3.16699 -54 -9.5s-26.334 -12.5 -35.001 -18.5l-20 42c7.33301 6 20.666 13 39.999 21s43 12 71 12c43.333 0 74.166 -8.83301 92.499 -26.5s27.5 -40.5 27.5 -68.5
c0 -41.333 -20.333 -70.333 -61 -87c24.667 -7.33301 44.667 -19.333 60 -36s23 -39 23 -67c0 -15.333 -2.83301 -29.833 -8.5 -43.5s-14.5 -25.834 -26.5 -36.501s-27.5 -19 -46.5 -25s-41.833 -9 -68.5 -9c-25.333 0 -46.333 2.16699 -63 6.5
s-30.334 9.16602 -41.001 14.499l13 47c9.33301 -4.66699 21.166 -9.16699 35.499 -13.5s31.833 -6.5 52.5 -6.5z" />
    <glyph glyph-name="acute" unicode="&#xb4;" horiz-adv-x="376" 
d="M316 722l-171 -139l-33 38l158 152z" />
    <glyph glyph-name="mu" unicode="&#xb5;" horiz-adv-x="575" 
d="M291 -10c-38 0 -68.6689 5.00098 -92.002 15.001s-41.666 23.667 -54.999 41c2.66699 -21.333 4.16699 -42.833 4.5 -64.5s0.5 -41.834 0.5 -60.501v-106h-63v702h65v-269c0 -36.667 2.66699 -67.667 8 -93s14 -45.833 26 -61.5s27.5 -27 46.5 -34
s42.167 -10.5 69.5 -10.5c30.667 0 57.334 1.66699 80.001 5s37 6.33301 43 9v454h65v-499c-19.333 -5.33301 -45.333 -11.333 -78 -18s-72.667 -10 -120 -10z" />
    <glyph glyph-name="paragraph" unicode="&#xb6;" horiz-adv-x="616" 
d="M457 638c-9.33301 1.33301 -21.832 2.49902 -37.499 3.49902s-29.834 1.5 -42.501 1.5c-5.33301 0 -11 -0.166992 -17 -0.5s-10.667 -0.833008 -14 -1.5v-826h-58v449c-36.667 2.66699 -70 9 -100 19s-55.5 23.833 -76.5 41.5s-37.167 39.334 -48.5 65.001
s-17 55.834 -17 90.501c0 36.667 7.83301 68.667 23.5 96s37.5 50.166 65.5 68.499s61.5 32 100.5 41s81.833 13.5 128.5 13.5c21.333 0 46 -0.833008 74 -2.5s53.667 -5.16699 77 -10.5v-871h-58v823z" />
    <glyph glyph-name="periodcentered" unicode="&#xb7;" horiz-adv-x="246" 
d="M178 294c0 -15.333 -4.83301 -28.333 -14.5 -39s-23.167 -16 -40.5 -16s-30.833 5.33301 -40.5 16s-14.5 23.667 -14.5 39s4.83301 28.333 14.5 39s23.167 16 40.5 16s30.833 -5.33301 40.5 -16s14.5 -23.667 14.5 -39z" />
    <glyph glyph-name="cedilla" unicode="&#xb8;" horiz-adv-x="376" 
d="M206 -36c18.667 -8 33.5029 -17.834 44.5029 -29.501s16.5 -27.167 16.5 -46.5c0 -8 -1.33301 -16.5 -4 -25.5s-7.66699 -17.167 -15 -24.5s-17.333 -13.333 -30 -18s-29 -7 -49 -7c-13.333 0 -27 1.16699 -41 3.5s-24 5.16602 -30 8.49902l8 43
c7.33301 -3.33301 15.666 -5.66602 24.999 -6.99902s20.666 -2 33.999 -2c27.333 0 41 9.66699 41 29c0 11.333 -4.66699 20 -14 26s-24 13 -44 21c2 6.66699 5 14.334 9 23.001l12 25l11.5 22c3.66699 6.66699 6.5 11.667 8.5 15h46
c-4.66699 -7.33301 -9.83398 -16.5 -15.501 -27.5s-10.167 -20.5 -13.5 -28.5z" />
    <glyph glyph-name="onesuperior" unicode="&#xb9;" horiz-adv-x="359" 
d="M74 578l-13 42.001c23.333 7.33301 46.666 17.5 69.999 30.5s43.333 29.167 60 48.5h37v-382h-54v304c-7.33301 -5.33301 -15.833 -10.333 -25.5 -15s-19.167 -9 -28.5 -13s-18.166 -7.33301 -26.499 -10s-14.833 -4.33398 -19.5 -5.00098z" />
    <glyph glyph-name="ordmasculine" unicode="&#xba;" horiz-adv-x="437" 
d="M391 518c0 -28 -4.33301 -53.5 -13 -76.5s-20.667 -42.667 -36 -59s-33.666 -29 -54.999 -38s-44.333 -13.5 -69 -13.5s-47.5 4.5 -68.5 13.5s-39.167 21.667 -54.5 38s-27.333 36 -36 59s-13 48.5 -13 76.5s4.33301 53.5 13 76.5s20.667 42.667 36 59s33.5 29 54.5 38
s43.833 13.5 68.5 13.5s47.667 -4.5 69 -13.5s39.666 -21.667 54.999 -38s27.333 -36 36 -59s13 -48.5 13 -76.5zM332 518c0 42 -10.333 75.5 -31 100.5s-48.334 37.5 -83.001 37.5c-34 0 -61.333 -12.5 -82 -37.5s-31 -58.5 -31 -100.5s10.333 -75.5 31 -100.5
s48 -37.5 82 -37.5c34.667 0 62.334 12.5 83.001 37.5s31 58.5 31 100.5z" />
    <glyph glyph-name="guillemotright" unicode="&#xbb;" horiz-adv-x="452" 
d="M46 98l116 186l-116 185l41 26l152 -211l-152 -212zM223 98l116 186l-116 185l41 26l152 -211l-152 -212z" />
    <glyph glyph-name="onequarter" unicode="&#xbc;" horiz-adv-x="874" 
d="M74 578l-13 42.001c23.333 7.33301 46.666 17.5 69.999 30.5s43.333 29.167 60 48.5h37v-382h-54v304c-7.33301 -5.33301 -15.833 -10.333 -25.5 -15s-19.167 -9 -28.5 -13s-18.166 -7.33301 -26.499 -10s-14.833 -4.33398 -19.5 -5.00098zM601 693.001h66l-395 -693h-66
zM840 141.001l-0.000976562 -43.999h-51v-96h-53v96h-188v33c6.66699 13.333 16.834 31 30.501 53s29.334 45.333 47.001 70s36.667 48.667 57 72s40.166 42.666 59.499 57.999h47v-242h51zM735.999 141.002l0.000976562 178.997
c-11.333 -11.333 -23.333 -24.666 -36 -39.999s-24.834 -31.166 -36.501 -47.499s-22.667 -32.666 -33 -48.999s-18.833 -30.5 -25.5 -42.5h131z" />
    <glyph glyph-name="onehalf" unicode="&#xbd;" horiz-adv-x="874" 
d="M74 578l-13 42.001c23.333 7.33301 46.666 17.5 69.999 30.5s43.333 29.167 60 48.5h37v-382h-54v304c-7.33301 -5.33301 -15.833 -10.333 -25.5 -15s-19.167 -9 -28.5 -13s-18.166 -7.33301 -26.499 -10s-14.833 -4.33398 -19.5 -5.00098zM580 693.001h66l-395 -693h-66
zM799 284.001c0 -14 -2.5 -27.002 -7.5 -39.002s-11.5 -23.167 -19.5 -33.5s-17.167 -20.166 -27.5 -29.499s-21.166 -18.333 -32.499 -27c-17.333 -14 -31.5 -26.333 -42.5 -37s-19.667 -20 -26 -28s-10.666 -15.333 -12.999 -22s-3.5 -13 -3.5 -19h191v-48h-248
c-0.666992 3.33301 -1 6.66602 -1 9.99902v10c0 20 3.33301 37.833 10 53.5s15.167 30 25.5 43s21.833 25 34.5 36l37 33.5l26 22.5c8 7 15 14.333 21 22s10.833 15.834 14.5 24.501s5.5 18.667 5.5 30c0 22 -6.66699 37.167 -20 45.5s-29 12.5 -47 12.5
c-11.333 0 -21.833 -1.5 -31.5 -4.5s-18.5 -6.66699 -26.5 -11s-14.833 -8.66602 -20.5 -12.999s-9.83398 -7.83301 -12.501 -10.5l-27 38c11.333 12 27.166 23.167 47.499 33.5s45.5 15.5 75.5 15.5c37.333 0 66.333 -9 87 -27s31 -45 31 -81z" />
    <glyph glyph-name="threequarters" unicode="&#xbe;" horiz-adv-x="874" 
d="M146 357c38 0 63.6719 6.50195 77.0049 19.502s20 29.167 20 48.5c0 14 -3.33301 25.667 -10 35s-15.334 17 -26.001 23s-23.167 10.167 -37.5 12.5s-28.833 3.5 -43.5 3.5h-13v45h15c12 0 23.833 0.833008 35.5 2.5s21.834 5 30.501 10s15.667 11.5 21 19.5
s8 18.667 8 32c0 19.333 -6.16699 33 -18.5 41s-28.833 12 -49.5 12c-21.333 0 -39.333 -3.16699 -54 -9.5s-26.334 -12.5 -35.001 -18.5l-20 42c7.33301 6 20.666 13 39.999 21s43 12 71 12c43.333 0 74.166 -8.83301 92.499 -26.5s27.5 -40.5 27.5 -68.5
c0 -41.333 -20.333 -70.333 -61 -87c24.667 -7.33301 44.667 -19.333 60 -36s23 -39 23 -67c0 -15.333 -2.83301 -29.833 -8.5 -43.5s-14.5 -25.834 -26.5 -36.501s-27.5 -19 -46.5 -25s-41.833 -9 -68.5 -9c-25.333 0 -46.333 2.16699 -63 6.5
s-30.334 9.16602 -41.001 14.499l13 47c9.33301 -4.66699 21.166 -9.16699 35.499 -13.5s31.833 -6.5 52.5 -6.5zM616.005 693.002h66l-395 -693h-66zM840.005 141.002l-0.000976562 -43.999h-51v-96h-53v96h-188v33c6.66699 13.333 16.834 31 30.501 53
s29.334 45.333 47.001 70s36.667 48.667 57 72s40.166 42.666 59.499 57.999h47v-242h51zM736.004 141.003l0.000976562 178.997c-11.333 -11.333 -23.333 -24.666 -36 -39.999s-24.834 -31.166 -36.501 -47.499s-22.667 -32.666 -33 -48.999s-18.833 -30.5 -25.5 -42.5h131
z" />
    <glyph glyph-name="questiondown" unicode="&#xbf;" horiz-adv-x="380" 
d="M99 -39c0 -17.333 3.33496 -31.667 10.002 -43s15.5 -20.333 26.5 -27s24 -11.5 39 -14.5s30.833 -4.5 47.5 -4.5c44 0 84.667 10 122 30l19 -54c-14 -8 -34.167 -15.667 -60.5 -23s-55.5 -11 -87.5 -11c-36 0 -65.833 4.5 -89.5 13.5s-42.667 20.333 -57 34
s-24.333 28.834 -30 45.501s-8.5 32.667 -8.5 48c0 22.667 4.16699 43.334 12.5 62.001s18.833 36 31.5 52s26.5 31.667 41.5 47s28.833 31 41.5 47s23.167 33.167 31.5 51.5s12.5 38.833 12.5 61.5v8.5c0 1.66699 -0.333008 4.16699 -1 7.5h51
c2.66699 -11.333 4 -23.666 4 -36.999c0 -21.333 -3.83301 -40.833 -11.5 -58.5s-17.334 -34.167 -29.001 -49.5s-24.167 -30.333 -37.5 -45s-25.833 -29.334 -37.5 -44.001s-21.334 -29.834 -29.001 -45.501s-11.5 -32.834 -11.5 -51.501zM274.002 461.999
c0 -15.333 -4.83301 -28.333 -14.5 -39s-23.167 -16 -40.5 -16s-30.833 5.33301 -40.5 16s-14.5 23.667 -14.5 39s4.83301 28.333 14.5 39s23.167 16 40.5 16s30.833 -5.33301 40.5 -16s14.5 -23.667 14.5 -39z" />
    <glyph glyph-name="Agrave" unicode="&#xc0;" horiz-adv-x="641" 
d="M556 0l-36 98l-33 92h-337l-34 -92l-35 -98h-71l75 201.5l68.5 177l66.5 160.5c22 51.333 45.333 102.666 70 153.999h60c24.667 -51.333 48 -102.666 70 -153.999l66.5 -160.5l68.5 -177l76 -201.5h-75zM318 615c-25.333 -57.333 -49.833 -115.667 -73.5 -175
l-73.5 -192h295l-74 192zM228 928.999l158 -152l-33 -38l-171 139z" />
    <glyph glyph-name="Aacute" unicode="&#xc1;" horiz-adv-x="641" 
d="M556 0l-36 98l-33 92h-337l-34 -92l-35 -98h-71l75 201.5l68.5 177l66.5 160.5c22 51.333 45.333 102.666 70 153.999h60c24.667 -51.333 48 -102.666 70 -153.999l66.5 -160.5l68.5 -177l76 -201.5h-75zM318 615c-25.333 -57.333 -49.833 -115.667 -73.5 -175
l-73.5 -192h295l-74 192zM458 877.999l-171 -139l-33 38l158 152z" />
    <glyph glyph-name="Acircumflex" unicode="&#xc2;" horiz-adv-x="641" 
d="M556 0l-36 98l-33 92h-337l-34 -92l-35 -98h-71l75 201.5l68.5 177l66.5 160.5c22 51.333 45.333 102.666 70 153.999h60c24.667 -51.333 48 -102.666 70 -153.999l66.5 -160.5l68.5 -177l76 -201.5h-75zM318 615c-25.333 -57.333 -49.833 -115.667 -73.5 -175
l-73.5 -192h295l-74 192zM216 739.999l-28 31l132 147l132 -147l-28 -31l-104 96z" />
    <glyph glyph-name="Atilde" unicode="&#xc3;" horiz-adv-x="641" 
d="M556 0l-36 98l-33 92h-337l-34 -92l-35 -98h-71l75 201.5l68.5 177l66.5 160.5c22 51.333 45.333 102.666 70 153.999h60c24.667 -51.333 48 -102.666 70 -153.999l66.5 -160.5l68.5 -177l76 -201.5h-75zM318 615c-25.333 -57.333 -49.833 -115.667 -73.5 -175
l-73.5 -192h295l-74 192zM383 784.999c-14.667 0 -28 2.33301 -40 7s-23.667 9.66699 -35 15c-12.667 6.66699 -23 11.167 -31 13.5s-15.333 3.5 -22 3.5c-14 0 -25 -4.66699 -33 -14s-15.333 -19.666 -22 -30.999l-38 18c3.33301 8 7.83301 16.667 13.5 26
s12.334 18 20.001 26s16.667 14.667 27 20s22.166 8 35.499 8c14.667 0 28 -2.33301 40 -7s23.667 -9.66699 35 -15c12.667 -6.66699 23 -11.167 31 -13.5s15.333 -3.5 22 -3.5c14 0 25 4.66699 33 14s15.333 19.666 22 30.999l38 -18
c-3.33301 -8 -7.83301 -16.667 -13.5 -26s-12.334 -18 -20.001 -26s-16.667 -14.667 -27 -20s-22.166 -8 -35.499 -8z" />
    <glyph glyph-name="Adieresis" unicode="&#xc4;" horiz-adv-x="641" 
d="M556 0l-36 98l-33 92h-337l-34 -92l-35 -98h-71l75 201.5l68.5 177l66.5 160.5c22 51.333 45.333 102.666 70 153.999h60c24.667 -51.333 48 -102.666 70 -153.999l66.5 -160.5l68.5 -177l76 -201.5h-75zM318 615c-25.333 -57.333 -49.833 -115.667 -73.5 -175
l-73.5 -192h295l-74 192zM279 828.999c0 -14.667 -4.33301 -26.334 -13 -35.001s-19.667 -13 -33 -13s-24.333 4.33301 -33 13s-13 20.334 -13 35.001s4.33301 26.334 13 35.001s19.667 13 33 13s24.333 -4.33301 33 -13s13 -20.334 13 -35.001zM451 828.999
c0 -14.667 -4.33301 -26.334 -13 -35.001s-19.667 -13 -33 -13s-24.333 4.33301 -33 13s-13 20.334 -13 35.001s4.33301 26.334 13 35.001s19.667 13 33 13s24.333 -4.33301 33 -13s13 -20.334 13 -35.001z" />
    <glyph glyph-name="Aring" unicode="&#xc5;" horiz-adv-x="641" 
d="M415 742c0 -19.333 -4.50293 -36.333 -13.5029 -51s-20.5 -26 -34.5 -34c22.667 -48 44.334 -96.5 65.001 -145.5l62.5 -153l65 -168l71.5 -190.5h-75l-36 98l-33 92h-337l-34 -92l-35 -98h-71l70 190.5l64.5 168l62.5 153c20.667 49 42.334 97.5 65.001 145.5
c-14.667 8 -26.334 19.333 -35.001 34s-13 31.667 -13 51c0 28.667 9.5 51.667 28.5 69s41.5 26 67.5 26c12.667 0 24.834 -2.33301 36.501 -7s21.834 -11.167 30.501 -19.5s15.5 -18.333 20.5 -30s7.5 -24.5 7.5 -38.5zM317.997 615
c-25.333 -57.333 -49.833 -115.667 -73.5 -175l-73.5 -192h295l-74 192zM376.997 741.999c0 18.667 -5.5 33.167 -16.5 43.5s-24.5 15.5 -40.5 15.5s-29.5 -5.16699 -40.5 -15.5s-16.5 -24.833 -16.5 -43.5c0 -19.333 5.5 -34 16.5 -44s24.5 -15 40.5 -15s29.5 5 40.5 15
s16.5 24.667 16.5 44z" />
    <glyph glyph-name="AE" unicode="&#xc6;" horiz-adv-x="915" 
d="M464 0v190h-287l-51.5 -95l-49.5 -95h-70c36 71.333 71.833 138.333 107.5 201l106.5 178.5l106 162l107 151.5h417v-59h-318v-241h282v-58h-282v-276h344v-59h-412zM464 637c-46 -62 -90 -125.167 -132 -189.5s-82.667 -130.833 -122 -199.5h254v389z" />
    <glyph glyph-name="Ccedilla" unicode="&#xc7;" horiz-adv-x="609" 
d="M364 -36c18.667 -8 33.5029 -17.832 44.5029 -29.499s16.5 -27.167 16.5 -46.5c0 -8 -1.33301 -16.5 -4 -25.5s-7.66699 -17.167 -15 -24.5s-17.333 -13.333 -30 -18s-29 -7 -49 -7c-13.333 0 -27 1.16699 -41 3.5s-24 5.16602 -30 8.49902l8 43
c7.33301 -3.33301 15.666 -5.66602 24.999 -6.99902s20.666 -2 33.999 -2c27.333 0 41 9.66699 41 29c0 11.333 -4.66699 20 -14 26s-24 13 -44 21c2.66699 7.33301 6 15.833 10 25.5s8.33301 19.167 13 28.5c-38.667 5.33301 -74.334 17 -107.001 35
s-60.834 42.167 -84.501 72.5s-42.167 66.333 -55.5 108s-20 89.167 -20 142.5c0 58 8.83301 109.5 26.5 154.5s41.167 82.833 70.5 113.5s63.333 53.834 102 69.501s79 23.5 121 23.5c26 0 49.667 -1.66699 71 -5s40 -7.5 56 -12.5s29.667 -10 41 -15s20 -9.5 26 -13.5
l-22 -59c-16.667 10 -37.834 19.833 -63.501 29.5s-57.5 14.5 -95.5 14.5c-43.333 0 -81.166 -7.33301 -113.499 -22s-59.5 -35.334 -81.5 -62.001s-38.5 -58.334 -49.5 -95.001s-16.5 -77.334 -16.5 -122.001c0 -46 5.5 -87.5 16.5 -124.5s27.167 -68.5 48.5 -94.5
s47.5 -46 78.5 -60s66.5 -21 106.5 -21c44 0 80.833 4.16699 110.5 12.5s52.167 16.833 67.5 25.5l19 -58c-4.66699 -3.33301 -12.667 -7.16602 -24 -11.499s-25.666 -8.83301 -42.999 -13.5s-37.333 -8.5 -60 -11.5s-48 -4.5 -76 -4.5h-5
c-2 -3.33301 -3.66699 -6.83301 -5 -10.5z" />
    <glyph glyph-name="Egrave" unicode="&#xc8;" horiz-adv-x="555" 
d="M90 0v693h400v-59h-332v-241h296v-58h-296v-276h358v-59h-426zM198 929l158 -152l-33 -38l-171 139z" />
    <glyph glyph-name="Eacute" unicode="&#xc9;" horiz-adv-x="555" 
d="M90 0v693h400v-59h-332v-241h296v-58h-296v-276h358v-59h-426zM428 878l-171 -139l-33 38l158 152z" />
    <glyph glyph-name="Ecircumflex" unicode="&#xca;" horiz-adv-x="555" 
d="M90 0v693h400v-59h-332v-241h296v-58h-296v-276h358v-59h-426zM186 740l-28 31l132 147l132 -147l-28 -31l-104 96z" />
    <glyph glyph-name="Edieresis" unicode="&#xcb;" horiz-adv-x="555" 
d="M90 0v693h400v-59h-332v-241h296v-58h-296v-276h358v-59h-426zM250 829c0 -14.667 -4.33301 -26.334 -13 -35.001s-19.667 -13 -33 -13s-24.333 4.33301 -33 13s-13 20.334 -13 35.001s4.33301 26.334 13 35.001s19.667 13 33 13s24.333 -4.33301 33 -13
s13 -20.334 13 -35.001zM422 829c0 -14.667 -4.33301 -26.334 -13 -35.001s-19.667 -13 -33 -13s-24.333 4.33301 -33 13s-13 20.334 -13 35.001s4.33301 26.334 13 35.001s19.667 13 33 13s24.333 -4.33301 33 -13s13 -20.334 13 -35.001z" />
    <glyph glyph-name="Igrave" unicode="&#xcc;" horiz-adv-x="248" 
d="M90 693h68v-693h-68v693zM33 929l158 -152l-33 -38l-171 139z" />
    <glyph glyph-name="Iacute" unicode="&#xcd;" horiz-adv-x="248" 
d="M90 693h68v-693h-68v693zM263 878l-171 -139l-33 38l158 152z" />
    <glyph glyph-name="Icircumflex" unicode="&#xce;" horiz-adv-x="248" 
d="M90 693h68v-693h-68v693zM21 740l-28 31l132 147l132 -147l-28 -31l-104 96z" />
    <glyph glyph-name="Idieresis" unicode="&#xcf;" horiz-adv-x="248" 
d="M90 693h68v-693h-68v693zM85 829c0 -14.667 -4.33301 -26.334 -13 -35.001s-19.667 -13 -33 -13s-24.333 4.33301 -33 13s-13 20.334 -13 35.001s4.33301 26.334 13 35.001s19.667 13 33 13s24.333 -4.33301 33 -13s13 -20.334 13 -35.001zM257 829
c0 -14.667 -4.33301 -26.334 -13 -35.001s-19.667 -13 -33 -13s-24.333 4.33301 -33 13s-13 20.334 -13 35.001s4.33301 26.334 13 35.001s19.667 13 33 13s24.333 -4.33301 33 -13s13 -20.334 13 -35.001z" />
    <glyph glyph-name="Eth" unicode="&#xd0;" horiz-adv-x="716" 
d="M654 347c0 -59.333 -9.33301 -111 -28 -155s-44.834 -80.667 -78.501 -110s-73.834 -51.333 -120.501 -66s-98 -22 -154 -22c-28 0 -57.333 1.5 -88 4.5s-57.667 7.5 -81 13.5v323h-80v55h80v290c23.333 6.66699 50.333 11.5 81 14.5s60 4.5 88 4.5
c56 0 107.333 -7.33301 154 -22s86.834 -36.667 120.501 -66s59.834 -66 78.501 -110s28 -95.333 28 -154zM172 60c4 -0.666992 14.167 -1.99805 30.5 -3.99805s42.5 -3 78.5 -3c50 0 93.667 6.83301 131 20.5s68.666 33.167 93.999 58.5s44.333 56.166 57 92.499
s19 77.166 19 122.499s-6.33301 86 -19 122s-31.667 66.667 -57 92s-56.666 44.833 -93.999 58.5s-81 20.5 -131 20.5c-36 0 -62.167 -1 -78.5 -3s-26.5 -3.33301 -30.5 -4v-243h132v-55h-132v-275z" />
    <glyph glyph-name="Ntilde" unicode="&#xd1;" horiz-adv-x="709" 
d="M562 0c-12.667 23.333 -28.833 50.667 -48.5 82l-64.5 100.5l-74 110l-77.5 110l-75 100.5c-24.333 31.333 -46.166 58.333 -65.499 81v-584h-67v693h54c34 -38 70.5 -81.833 109.5 -131.5l114.5 -152c37.333 -51.667 72.166 -102.167 104.499 -151.5
s58.833 -92.333 79.5 -129v564h67v-693h-57zM417.001 785.001c-14.667 0 -28 2.33301 -40 7s-23.667 9.66699 -35 15c-12.667 6.66699 -23 11.167 -31 13.5s-15.333 3.5 -22 3.5c-14 0 -25 -4.66699 -33 -14s-15.333 -19.666 -22 -30.999l-38 18
c3.33301 8 7.83301 16.667 13.5 26s12.334 18 20.001 26s16.667 14.667 27 20s22.166 8 35.499 8c14.667 0 28 -2.33301 40 -7s23.667 -9.66699 35 -15c12.667 -6.66699 23 -11.167 31 -13.5s15.333 -3.5 22 -3.5c14 0 25 4.66699 33 14s15.333 19.666 22 30.999l38 -18
c-3.33301 -8 -7.83301 -16.667 -13.5 -26s-12.334 -18 -20.001 -26s-16.667 -14.667 -27 -20s-22.166 -8 -35.499 -8z" />
    <glyph glyph-name="Ograve" unicode="&#xd2;" horiz-adv-x="774" 
d="M712 347c0 -59.333 -8.66699 -111.666 -26 -156.999s-40.833 -83.166 -70.5 -113.499s-64.167 -53.166 -103.5 -68.499s-81 -23 -125 -23s-85.667 7.66699 -125 23s-73.833 38.166 -103.5 68.499s-53.167 68.166 -70.5 113.499s-26 97.666 -26 156.999
s8.66699 111.5 26 156.5s40.833 82.667 70.5 113s64.167 53.166 103.5 68.499s81 23 125 23s85.667 -7.66699 125 -23s73.833 -38.166 103.5 -68.499s53.167 -68 70.5 -113s26 -97.167 26 -156.5zM640 347c0 46.667 -6 88.5 -18 125.5s-29 68.5 -51 94.5
s-48.5 45.833 -79.5 59.5s-65.833 20.5 -104.5 20.5s-73.5 -6.83301 -104.5 -20.5s-57.5 -33.5 -79.5 -59.5s-39 -57.5 -51 -94.5s-18 -78.833 -18 -125.5s6 -88.5 18 -125.5s29 -68.5 51 -94.5s48.5 -46 79.5 -60s65.833 -21 104.5 -21s73.5 7 104.5 21s57.5 34 79.5 60
s39 57.5 51 94.5s18 78.833 18 125.5zM295 929l158 -152l-33 -38l-171 139z" />
    <glyph glyph-name="Oacute" unicode="&#xd3;" horiz-adv-x="774" 
d="M712 347c0 -59.333 -8.66699 -111.666 -26 -156.999s-40.833 -83.166 -70.5 -113.499s-64.167 -53.166 -103.5 -68.499s-81 -23 -125 -23s-85.667 7.66699 -125 23s-73.833 38.166 -103.5 68.499s-53.167 68.166 -70.5 113.499s-26 97.666 -26 156.999
s8.66699 111.5 26 156.5s40.833 82.667 70.5 113s64.167 53.166 103.5 68.499s81 23 125 23s85.667 -7.66699 125 -23s73.833 -38.166 103.5 -68.499s53.167 -68 70.5 -113s26 -97.167 26 -156.5zM640 347c0 46.667 -6 88.5 -18 125.5s-29 68.5 -51 94.5
s-48.5 45.833 -79.5 59.5s-65.833 20.5 -104.5 20.5s-73.5 -6.83301 -104.5 -20.5s-57.5 -33.5 -79.5 -59.5s-39 -57.5 -51 -94.5s-18 -78.833 -18 -125.5s6 -88.5 18 -125.5s29 -68.5 51 -94.5s48.5 -46 79.5 -60s65.833 -21 104.5 -21s73.5 7 104.5 21s57.5 34 79.5 60
s39 57.5 51 94.5s18 78.833 18 125.5zM525 878l-171 -139l-33 38l158 152z" />
    <glyph glyph-name="Ocircumflex" unicode="&#xd4;" horiz-adv-x="774" 
d="M712 347c0 -59.333 -8.66699 -111.666 -26 -156.999s-40.833 -83.166 -70.5 -113.499s-64.167 -53.166 -103.5 -68.499s-81 -23 -125 -23s-85.667 7.66699 -125 23s-73.833 38.166 -103.5 68.499s-53.167 68.166 -70.5 113.499s-26 97.666 -26 156.999
s8.66699 111.5 26 156.5s40.833 82.667 70.5 113s64.167 53.166 103.5 68.499s81 23 125 23s85.667 -7.66699 125 -23s73.833 -38.166 103.5 -68.499s53.167 -68 70.5 -113s26 -97.167 26 -156.5zM640 347c0 46.667 -6 88.5 -18 125.5s-29 68.5 -51 94.5
s-48.5 45.833 -79.5 59.5s-65.833 20.5 -104.5 20.5s-73.5 -6.83301 -104.5 -20.5s-57.5 -33.5 -79.5 -59.5s-39 -57.5 -51 -94.5s-18 -78.833 -18 -125.5s6 -88.5 18 -125.5s29 -68.5 51 -94.5s48.5 -46 79.5 -60s65.833 -21 104.5 -21s73.5 7 104.5 21s57.5 34 79.5 60
s39 57.5 51 94.5s18 78.833 18 125.5zM283 740l-28 31l132 147l132 -147l-28 -31l-104 96z" />
    <glyph glyph-name="Otilde" unicode="&#xd5;" horiz-adv-x="774" 
d="M712 347c0 -59.333 -8.66699 -111.666 -26 -156.999s-40.833 -83.166 -70.5 -113.499s-64.167 -53.166 -103.5 -68.499s-81 -23 -125 -23s-85.667 7.66699 -125 23s-73.833 38.166 -103.5 68.499s-53.167 68.166 -70.5 113.499s-26 97.666 -26 156.999
s8.66699 111.5 26 156.5s40.833 82.667 70.5 113s64.167 53.166 103.5 68.499s81 23 125 23s85.667 -7.66699 125 -23s73.833 -38.166 103.5 -68.499s53.167 -68 70.5 -113s26 -97.167 26 -156.5zM640 347c0 46.667 -6 88.5 -18 125.5s-29 68.5 -51 94.5
s-48.5 45.833 -79.5 59.5s-65.833 20.5 -104.5 20.5s-73.5 -6.83301 -104.5 -20.5s-57.5 -33.5 -79.5 -59.5s-39 -57.5 -51 -94.5s-18 -78.833 -18 -125.5s6 -88.5 18 -125.5s29 -68.5 51 -94.5s48.5 -46 79.5 -60s65.833 -21 104.5 -21s73.5 7 104.5 21s57.5 34 79.5 60
s39 57.5 51 94.5s18 78.833 18 125.5zM450 785c-14.667 0 -28 2.33301 -40 7s-23.667 9.66699 -35 15c-12.667 6.66699 -23 11.167 -31 13.5s-15.333 3.5 -22 3.5c-14 0 -25 -4.66699 -33 -14s-15.333 -19.666 -22 -30.999l-38 18c3.33301 8 7.83301 16.667 13.5 26
s12.334 18 20.001 26s16.667 14.667 27 20s22.166 8 35.499 8c14.667 0 28 -2.33301 40 -7s23.667 -9.66699 35 -15c12.667 -6.66699 23 -11.167 31 -13.5s15.333 -3.5 22 -3.5c14 0 25 4.66699 33 14s15.333 19.666 22 30.999l38 -18
c-3.33301 -8 -7.83301 -16.667 -13.5 -26s-12.334 -18 -20.001 -26s-16.667 -14.667 -27 -20s-22.166 -8 -35.499 -8z" />
    <glyph glyph-name="Odieresis" unicode="&#xd6;" horiz-adv-x="774" 
d="M712 347c0 -59.333 -8.66699 -111.666 -26 -156.999s-40.833 -83.166 -70.5 -113.499s-64.167 -53.166 -103.5 -68.499s-81 -23 -125 -23s-85.667 7.66699 -125 23s-73.833 38.166 -103.5 68.499s-53.167 68.166 -70.5 113.499s-26 97.666 -26 156.999
s8.66699 111.5 26 156.5s40.833 82.667 70.5 113s64.167 53.166 103.5 68.499s81 23 125 23s85.667 -7.66699 125 -23s73.833 -38.166 103.5 -68.499s53.167 -68 70.5 -113s26 -97.167 26 -156.5zM640 347c0 46.667 -6 88.5 -18 125.5s-29 68.5 -51 94.5
s-48.5 45.833 -79.5 59.5s-65.833 20.5 -104.5 20.5s-73.5 -6.83301 -104.5 -20.5s-57.5 -33.5 -79.5 -59.5s-39 -57.5 -51 -94.5s-18 -78.833 -18 -125.5s6 -88.5 18 -125.5s29 -68.5 51 -94.5s48.5 -46 79.5 -60s65.833 -21 104.5 -21s73.5 7 104.5 21s57.5 34 79.5 60
s39 57.5 51 94.5s18 78.833 18 125.5zM347 829c0 -14.667 -4.33301 -26.334 -13 -35.001s-19.667 -13 -33 -13s-24.333 4.33301 -33 13s-13 20.334 -13 35.001s4.33301 26.334 13 35.001s19.667 13 33 13s24.333 -4.33301 33 -13s13 -20.334 13 -35.001zM519 829
c0 -14.667 -4.33301 -26.334 -13 -35.001s-19.667 -13 -33 -13s-24.333 4.33301 -33 13s-13 20.334 -13 35.001s4.33301 26.334 13 35.001s19.667 13 33 13s24.333 -4.33301 33 -13s13 -20.334 13 -35.001z" />
    <glyph glyph-name="multiply" unicode="&#xd7;" 
d="M129 486l153 -154l153 154l39 -39l-154 -153l154 -153l-39 -39l-153 154l-153 -154l-39 39l154 153l-154 153z" />
    <glyph glyph-name="Oslash" unicode="&#xd8;" horiz-adv-x="774" 
d="M712 347c0 -59.333 -8.66699 -111.67 -26 -157.003s-40.833 -83.166 -70.5 -113.499s-64.167 -53.166 -103.5 -68.499s-81 -23 -125 -23c-36 0 -70.167 5 -102.5 15s-62.5 25.333 -90.5 46l-61 -80l-48 36l65 84c-28 30 -49.667 66.833 -65 110.5s-23 93.834 -23 150.501
c0 59.333 8.66699 111.5 26 156.5s40.833 82.667 70.5 113s64.167 53.166 103.5 68.499s81 23 125 23c36 0 70.5 -5.16699 103.5 -15.5s63.5 -26.166 91.5 -47.499l64 83l48 -36l-68 -88c26.667 -30 47.667 -66.333 63 -109s23 -92 23 -148zM134 346.996
c0 -42.667 5 -81.5 15 -116.5s24.333 -65.167 43 -90.5l351 454c-43.333 35.333 -95.333 53 -156 53c-38.667 0 -73.5 -6.83301 -104.5 -20.5s-57.5 -33.5 -79.5 -59.5s-39 -57.5 -51 -94.5s-18 -78.833 -18 -125.5zM640 346.996c0 42 -4.83203 80 -14.499 114
s-23.5 63.667 -41.5 89l-351 -454c41.333 -33.333 92.666 -50 153.999 -50c38.667 0 73.5 7 104.5 21s57.5 34 79.5 60s39 57.5 51 94.5s18 78.833 18 125.5z" />
    <glyph glyph-name="Ugrave" unicode="&#xd9;" horiz-adv-x="680" 
d="M340 -15c-46 0 -85.167 7 -117.5 21s-58.5 33.333 -78.5 58s-34.5 53.5 -43.5 86.5s-13.5 68.5 -13.5 106.5v436h68v-427c0 -38 4.5 -70.833 13.5 -98.5s21.5 -50.5 37.5 -68.5s35.333 -31.333 58 -40s48 -13 76 -13s53.333 4.33301 76 13s42 22 58 40
s28.5 40.833 37.5 68.5s13.5 60.5 13.5 98.5v427h68v-436c0 -38 -4.5 -73.5 -13.5 -106.5s-23.5 -61.833 -43.5 -86.5s-46.167 -44 -78.5 -58s-71.5 -21 -117.5 -21zM248 929l158 -152l-33 -38l-171 139z" />
    <glyph glyph-name="Uacute" unicode="&#xda;" horiz-adv-x="680" 
d="M340 -15c-46 0 -85.167 7 -117.5 21s-58.5 33.333 -78.5 58s-34.5 53.5 -43.5 86.5s-13.5 68.5 -13.5 106.5v436h68v-427c0 -38 4.5 -70.833 13.5 -98.5s21.5 -50.5 37.5 -68.5s35.333 -31.333 58 -40s48 -13 76 -13s53.333 4.33301 76 13s42 22 58 40
s28.5 40.833 37.5 68.5s13.5 60.5 13.5 98.5v427h68v-436c0 -38 -4.5 -73.5 -13.5 -106.5s-23.5 -61.833 -43.5 -86.5s-46.167 -44 -78.5 -58s-71.5 -21 -117.5 -21zM478 878l-171 -139l-33 38l158 152z" />
    <glyph glyph-name="Ucircumflex" unicode="&#xdb;" horiz-adv-x="680" 
d="M340 -15c-46 0 -85.167 7 -117.5 21s-58.5 33.333 -78.5 58s-34.5 53.5 -43.5 86.5s-13.5 68.5 -13.5 106.5v436h68v-427c0 -38 4.5 -70.833 13.5 -98.5s21.5 -50.5 37.5 -68.5s35.333 -31.333 58 -40s48 -13 76 -13s53.333 4.33301 76 13s42 22 58 40
s28.5 40.833 37.5 68.5s13.5 60.5 13.5 98.5v427h68v-436c0 -38 -4.5 -73.5 -13.5 -106.5s-23.5 -61.833 -43.5 -86.5s-46.167 -44 -78.5 -58s-71.5 -21 -117.5 -21zM236 740l-28 31l132 147l132 -147l-28 -31l-104 96z" />
    <glyph glyph-name="Udieresis" unicode="&#xdc;" horiz-adv-x="680" 
d="M340 -15c-46 0 -85.167 7 -117.5 21s-58.5 33.333 -78.5 58s-34.5 53.5 -43.5 86.5s-13.5 68.5 -13.5 106.5v436h68v-427c0 -38 4.5 -70.833 13.5 -98.5s21.5 -50.5 37.5 -68.5s35.333 -31.333 58 -40s48 -13 76 -13s53.333 4.33301 76 13s42 22 58 40
s28.5 40.833 37.5 68.5s13.5 60.5 13.5 98.5v427h68v-436c0 -38 -4.5 -73.5 -13.5 -106.5s-23.5 -61.833 -43.5 -86.5s-46.167 -44 -78.5 -58s-71.5 -21 -117.5 -21zM300 829c0 -14.667 -4.33301 -26.334 -13 -35.001s-19.667 -13 -33 -13s-24.333 4.33301 -33 13
s-13 20.334 -13 35.001s4.33301 26.334 13 35.001s19.667 13 33 13s24.333 -4.33301 33 -13s13 -20.334 13 -35.001zM472 829c0 -14.667 -4.33301 -26.334 -13 -35.001s-19.667 -13 -33 -13s-24.333 4.33301 -33 13s-13 20.334 -13 35.001s4.33301 26.334 13 35.001
s19.667 13 33 13s24.333 -4.33301 33 -13s13 -20.334 13 -35.001z" />
    <glyph glyph-name="Yacute" unicode="&#xdd;" horiz-adv-x="569" 
d="M251 0l-0.000976562 284.999c-47.333 72.667 -90.833 142.834 -130.5 210.501s-76.5 133.5 -110.5 197.5h79c28 -58.667 58.833 -118.167 92.5 -178.5s68.834 -117.833 105.501 -172.5c35.333 54.667 70 112.167 104 172.5s65.333 119.833 94 178.5h74l-112 -197.5
c-39.333 -68.333 -82 -137.833 -128 -208.5v-287h-68zM422.999 877.999l-171 -139l-33 38l158 152z" />
    <glyph glyph-name="Thorn" unicode="&#xde;" horiz-adv-x="593" 
d="M158 570c11.333 1.33301 27.5 2.66699 48.5 4s39.833 2 56.5 2c98.667 0 172.167 -18.833 220.5 -56.5s72.5 -90.5 72.5 -158.5c0 -39.333 -7 -72.833 -21 -100.5s-34 -50 -60 -67s-57.833 -29.333 -95.5 -37s-80.167 -11.5 -127.5 -11.5h-94v-145h-68v693h68v-123z
M266 517.001c-24 0 -45.1709 -0.669922 -63.5039 -2.00293s-33.166 -2.66602 -44.499 -3.99902v-307h86c36.667 0 69.834 2.16699 99.501 6.5s55 12.333 76 24s37.167 27.834 48.5 48.501s17 47 17 79c0 30.667 -6.16699 56 -18.5 76s-28.666 35.833 -48.999 47.5
s-43.666 19.834 -69.999 24.501s-53.5 7 -81.5 7z" />
    <glyph glyph-name="germandbls" unicode="&#xdf;" horiz-adv-x="596" 
d="M475 619c0 -17.333 -2.83789 -33.1689 -8.50488 -47.502s-12.667 -27.166 -21 -38.499s-17.166 -21.666 -26.499 -30.999l-24 -24c-9.33301 -9.33301 -17.166 -17.5 -23.499 -24.5s-11.5 -13.5 -15.5 -19.5s-6.83301 -12 -8.5 -18s-2.5 -12.667 -2.5 -20
c0 -9.33301 2.16699 -17.666 6.5 -24.999s10 -13.666 17 -18.999s14.833 -10.166 23.5 -14.499l26 -12.5c20 -9.33301 38.833 -19 56.5 -29s33 -21.667 46 -35s23.167 -29.333 30.5 -48s11 -41.334 11 -68.001c0 -50 -17 -88.667 -51 -116s-81.333 -41 -142 -41
c-32.667 0 -60.667 3.5 -84 10.5s-38.333 12.167 -45 15.5l14 60c5.33301 -3.33301 18.166 -9 38.499 -17s49.833 -12 88.5 -12c36 0 64 9 84 27s30 42.333 30 73c0 14.667 -1.83301 27.5 -5.5 38.5s-9.83398 21.167 -18.501 30.5s-19.667 18.166 -33 26.499
s-29.333 17.5 -48 27.5c-22 11.333 -40.167 21.333 -54.5 30s-25.666 17.5 -33.999 26.5s-14.166 18.5 -17.499 28.5s-5 22.333 -5 37c0 22.667 6.5 42.667 19.5 60s28.167 35 45.5 53l27.5 28.5c8.33301 8.33301 15.333 16.833 21 25.5s10 17.667 13 27s4.5 20 4.5 32
c0 30 -10.333 54.5 -31 73.5s-48.667 28.5 -84 28.5c-51.333 0 -88.166 -14.333 -110.499 -43s-33.5 -67 -33.5 -115v-560h-65v564c0 32 4.66699 61.167 14 87.5s22.833 48.666 40.5 66.999s38.834 32.5 63.501 42.5s52.334 15 83.001 15c65.333 0 113 -14.5 143 -43.5
s45 -66.833 45 -113.5z" />
    <glyph glyph-name="agrave" unicode="&#xe0;" horiz-adv-x="509" 
d="M249 47c25.333 0 47.5 0.831055 66.5 2.49805s35.167 3.83398 48.5 6.50098v182c-7.33301 3.33301 -19 6.83301 -35 10.5s-38 5.5 -66 5.5c-16 0 -32.667 -1.16699 -50 -3.5s-33.333 -7.33301 -48 -15s-26.667 -18.167 -36 -31.5s-14 -31 -14 -53
c0 -19.333 3.16699 -35.666 9.5 -48.999s15.333 -24 27 -32s25.667 -13.833 42 -17.5s34.833 -5.5 55.5 -5.5zM243 528.998c34 0 62.834 -4.83203 86.501 -14.499s42.834 -23 57.501 -40s25.334 -37.167 32.001 -60.5s10 -48.666 10 -75.999v-326
c-6.66699 -2 -16.334 -4.16699 -29.001 -6.5s-27.334 -4.83301 -44.001 -7.5s-35.167 -4.83398 -55.5 -6.50098s-41.166 -2.5 -62.499 -2.5c-27.333 0 -52.5 3 -75.5 9s-43 15.5 -60 28.5s-30.333 29.667 -40 50s-14.5 45.166 -14.5 74.499c0 28 5.33301 52 16 72
s25.667 36.5 45 49.5s42.333 22.5 69 28.5s55.667 9 87 9c9.33301 0 19.166 -0.5 29.499 -1.5s20.333 -2.33301 30 -4s18 -3.33398 25 -5.00098s11.833 -3.16699 14.5 -4.5v32c0 18 -1.33301 35.5 -4 52.5s-8.5 32.333 -17.5 46s-21.667 24.667 -38 33
s-37.833 12.5 -64.5 12.5c-38 0 -66.333 -2.66699 -85 -8s-32.334 -9.66602 -41.001 -12.999l-9 57c11.333 5.33301 28.833 10.333 52.5 15s52.167 7 85.5 7zM168.001 772.999l158 -152l-33 -38l-171 139z" />
    <glyph glyph-name="aacute" unicode="&#xe1;" horiz-adv-x="509" 
d="M249 47c25.333 0 47.5 0.831055 66.5 2.49805s35.167 3.83398 48.5 6.50098v182c-7.33301 3.33301 -19 6.83301 -35 10.5s-38 5.5 -66 5.5c-16 0 -32.667 -1.16699 -50 -3.5s-33.333 -7.33301 -48 -15s-26.667 -18.167 -36 -31.5s-14 -31 -14 -53
c0 -19.333 3.16699 -35.666 9.5 -48.999s15.333 -24 27 -32s25.667 -13.833 42 -17.5s34.833 -5.5 55.5 -5.5zM243 528.998c34 0 62.834 -4.83203 86.501 -14.499s42.834 -23 57.501 -40s25.334 -37.167 32.001 -60.5s10 -48.666 10 -75.999v-326
c-6.66699 -2 -16.334 -4.16699 -29.001 -6.5s-27.334 -4.83301 -44.001 -7.5s-35.167 -4.83398 -55.5 -6.50098s-41.166 -2.5 -62.499 -2.5c-27.333 0 -52.5 3 -75.5 9s-43 15.5 -60 28.5s-30.333 29.667 -40 50s-14.5 45.166 -14.5 74.499c0 28 5.33301 52 16 72
s25.667 36.5 45 49.5s42.333 22.5 69 28.5s55.667 9 87 9c9.33301 0 19.166 -0.5 29.499 -1.5s20.333 -2.33301 30 -4s18 -3.33398 25 -5.00098s11.833 -3.16699 14.5 -4.5v32c0 18 -1.33301 35.5 -4 52.5s-8.5 32.333 -17.5 46s-21.667 24.667 -38 33
s-37.833 12.5 -64.5 12.5c-38 0 -66.333 -2.66699 -85 -8s-32.334 -9.66602 -41.001 -12.999l-9 57c11.333 5.33301 28.833 10.333 52.5 15s52.167 7 85.5 7zM398.001 721.999l-171 -139l-33 38l158 152z" />
    <glyph glyph-name="acircumflex" unicode="&#xe2;" horiz-adv-x="509" 
d="M249 47c25.333 0 47.5 0.831055 66.5 2.49805s35.167 3.83398 48.5 6.50098v182c-7.33301 3.33301 -19 6.83301 -35 10.5s-38 5.5 -66 5.5c-16 0 -32.667 -1.16699 -50 -3.5s-33.333 -7.33301 -48 -15s-26.667 -18.167 -36 -31.5s-14 -31 -14 -53
c0 -19.333 3.16699 -35.666 9.5 -48.999s15.333 -24 27 -32s25.667 -13.833 42 -17.5s34.833 -5.5 55.5 -5.5zM243 528.998c34 0 62.834 -4.83203 86.501 -14.499s42.834 -23 57.501 -40s25.334 -37.167 32.001 -60.5s10 -48.666 10 -75.999v-326
c-6.66699 -2 -16.334 -4.16699 -29.001 -6.5s-27.334 -4.83301 -44.001 -7.5s-35.167 -4.83398 -55.5 -6.50098s-41.166 -2.5 -62.499 -2.5c-27.333 0 -52.5 3 -75.5 9s-43 15.5 -60 28.5s-30.333 29.667 -40 50s-14.5 45.166 -14.5 74.499c0 28 5.33301 52 16 72
s25.667 36.5 45 49.5s42.333 22.5 69 28.5s55.667 9 87 9c9.33301 0 19.166 -0.5 29.499 -1.5s20.333 -2.33301 30 -4s18 -3.33398 25 -5.00098s11.833 -3.16699 14.5 -4.5v32c0 18 -1.33301 35.5 -4 52.5s-8.5 32.333 -17.5 46s-21.667 24.667 -38 33
s-37.833 12.5 -64.5 12.5c-38 0 -66.333 -2.66699 -85 -8s-32.334 -9.66602 -41.001 -12.999l-9 57c11.333 5.33301 28.833 10.333 52.5 15s52.167 7 85.5 7zM156.001 583.999l-28 31l132 147l132 -147l-28 -31l-104 96z" />
    <glyph glyph-name="atilde" unicode="&#xe3;" horiz-adv-x="509" 
d="M249 47c25.333 0 47.5 0.831055 66.5 2.49805s35.167 3.83398 48.5 6.50098v182c-7.33301 3.33301 -19 6.83301 -35 10.5s-38 5.5 -66 5.5c-16 0 -32.667 -1.16699 -50 -3.5s-33.333 -7.33301 -48 -15s-26.667 -18.167 -36 -31.5s-14 -31 -14 -53
c0 -19.333 3.16699 -35.666 9.5 -48.999s15.333 -24 27 -32s25.667 -13.833 42 -17.5s34.833 -5.5 55.5 -5.5zM243 528.998c34 0 62.834 -4.83203 86.501 -14.499s42.834 -23 57.501 -40s25.334 -37.167 32.001 -60.5s10 -48.666 10 -75.999v-326
c-6.66699 -2 -16.334 -4.16699 -29.001 -6.5s-27.334 -4.83301 -44.001 -7.5s-35.167 -4.83398 -55.5 -6.50098s-41.166 -2.5 -62.499 -2.5c-27.333 0 -52.5 3 -75.5 9s-43 15.5 -60 28.5s-30.333 29.667 -40 50s-14.5 45.166 -14.5 74.499c0 28 5.33301 52 16 72
s25.667 36.5 45 49.5s42.333 22.5 69 28.5s55.667 9 87 9c9.33301 0 19.166 -0.5 29.499 -1.5s20.333 -2.33301 30 -4s18 -3.33398 25 -5.00098s11.833 -3.16699 14.5 -4.5v32c0 18 -1.33301 35.5 -4 52.5s-8.5 32.333 -17.5 46s-21.667 24.667 -38 33
s-37.833 12.5 -64.5 12.5c-38 0 -66.333 -2.66699 -85 -8s-32.334 -9.66602 -41.001 -12.999l-9 57c11.333 5.33301 28.833 10.333 52.5 15s52.167 7 85.5 7zM323.001 628.999c-14.667 0 -28 2.33301 -40 7s-23.667 9.66699 -35 15c-12.667 6.66699 -23 11.167 -31 13.5
s-15.333 3.5 -22 3.5c-14 0 -25 -4.66699 -33 -14s-15.333 -19.666 -22 -30.999l-38 18c3.33301 8 7.83301 16.667 13.5 26s12.334 18 20.001 26s16.667 14.667 27 20s22.166 8 35.499 8c14.667 0 28 -2.33301 40 -7s23.667 -9.66699 35 -15
c12.667 -6.66699 23 -11.167 31 -13.5s15.333 -3.5 22 -3.5c14 0 25 4.66699 33 14s15.333 19.666 22 30.999l38 -18c-3.33301 -8 -7.83301 -16.667 -13.5 -26s-12.334 -18 -20.001 -26s-16.667 -14.667 -27 -20s-22.166 -8 -35.499 -8z" />
    <glyph glyph-name="adieresis" unicode="&#xe4;" horiz-adv-x="509" 
d="M249 47c25.333 0 47.5 0.831055 66.5 2.49805s35.167 3.83398 48.5 6.50098v182c-7.33301 3.33301 -19 6.83301 -35 10.5s-38 5.5 -66 5.5c-16 0 -32.667 -1.16699 -50 -3.5s-33.333 -7.33301 -48 -15s-26.667 -18.167 -36 -31.5s-14 -31 -14 -53
c0 -19.333 3.16699 -35.666 9.5 -48.999s15.333 -24 27 -32s25.667 -13.833 42 -17.5s34.833 -5.5 55.5 -5.5zM243 528.998c34 0 62.834 -4.83203 86.501 -14.499s42.834 -23 57.501 -40s25.334 -37.167 32.001 -60.5s10 -48.666 10 -75.999v-326
c-6.66699 -2 -16.334 -4.16699 -29.001 -6.5s-27.334 -4.83301 -44.001 -7.5s-35.167 -4.83398 -55.5 -6.50098s-41.166 -2.5 -62.499 -2.5c-27.333 0 -52.5 3 -75.5 9s-43 15.5 -60 28.5s-30.333 29.667 -40 50s-14.5 45.166 -14.5 74.499c0 28 5.33301 52 16 72
s25.667 36.5 45 49.5s42.333 22.5 69 28.5s55.667 9 87 9c9.33301 0 19.166 -0.5 29.499 -1.5s20.333 -2.33301 30 -4s18 -3.33398 25 -5.00098s11.833 -3.16699 14.5 -4.5v32c0 18 -1.33301 35.5 -4 52.5s-8.5 32.333 -17.5 46s-21.667 24.667 -38 33
s-37.833 12.5 -64.5 12.5c-38 0 -66.333 -2.66699 -85 -8s-32.334 -9.66602 -41.001 -12.999l-9 57c11.333 5.33301 28.833 10.333 52.5 15s52.167 7 85.5 7zM220.001 672.999c0 -14.667 -4.33301 -26.334 -13 -35.001s-19.667 -13 -33 -13s-24.333 4.33301 -33 13
s-13 20.334 -13 35.001s4.33301 26.334 13 35.001s19.667 13 33 13s24.333 -4.33301 33 -13s13 -20.334 13 -35.001zM392.001 672.999c0 -14.667 -4.33301 -26.334 -13 -35.001s-19.667 -13 -33 -13s-24.333 4.33301 -33 13s-13 20.334 -13 35.001s4.33301 26.334 13 35.001
s19.667 13 33 13s24.333 -4.33301 33 -13s13 -20.334 13 -35.001z" />
    <glyph glyph-name="aring" unicode="&#xe5;" horiz-adv-x="509" 
d="M249 47c25.333 0 47.5 0.831055 66.5 2.49805s35.167 3.83398 48.5 6.50098v182c-7.33301 3.33301 -19 6.83301 -35 10.5s-38 5.5 -66 5.5c-16 0 -32.667 -1.16699 -50 -3.5s-33.333 -7.33301 -48 -15s-26.667 -18.167 -36 -31.5s-14 -31 -14 -53
c0 -19.333 3.16699 -35.666 9.5 -48.999s15.333 -24 27 -32s25.667 -13.833 42 -17.5s34.833 -5.5 55.5 -5.5zM243 528.998c34 0 62.834 -4.83203 86.501 -14.499s42.834 -23 57.501 -40s25.334 -37.167 32.001 -60.5s10 -48.666 10 -75.999v-326
c-6.66699 -2 -16.334 -4.16699 -29.001 -6.5s-27.334 -4.83301 -44.001 -7.5s-35.167 -4.83398 -55.5 -6.50098s-41.166 -2.5 -62.499 -2.5c-27.333 0 -52.5 3 -75.5 9s-43 15.5 -60 28.5s-30.333 29.667 -40 50s-14.5 45.166 -14.5 74.499c0 28 5.33301 52 16 72
s25.667 36.5 45 49.5s42.333 22.5 69 28.5s55.667 9 87 9c9.33301 0 19.166 -0.5 29.499 -1.5s20.333 -2.33301 30 -4s18 -3.33398 25 -5.00098s11.833 -3.16699 14.5 -4.5v32c0 18 -1.33301 35.5 -4 52.5s-8.5 32.333 -17.5 46s-21.667 24.667 -38 33
s-37.833 12.5 -64.5 12.5c-38 0 -66.333 -2.66699 -85 -8s-32.334 -9.66602 -41.001 -12.999l-9 57c11.333 5.33301 28.833 10.333 52.5 15s52.167 7 85.5 7zM356.001 675.999c0 -14.667 -2.5 -27.832 -7.5 -39.499s-11.833 -21.667 -20.5 -30
s-18.834 -14.833 -30.501 -19.5s-23.834 -7 -36.501 -7c-26 0 -48.5 8.66699 -67.5 26s-28.5 40.666 -28.5 69.999c0 28.667 9.5 51.667 28.5 69s41.5 26 67.5 26c12.667 0 24.834 -2.33301 36.501 -7s21.834 -11.167 30.501 -19.5s15.5 -18.333 20.5 -30
s7.5 -24.5 7.5 -38.5zM318.001 676.001c0 18.667 -5.5 33.167 -16.5 43.5s-24.5 15.5 -40.5 15.5s-29.5 -5.16699 -40.5 -15.5s-16.5 -24.833 -16.5 -43.5c0 -19.333 5.5 -34 16.5 -44s24.5 -15 40.5 -15s29.5 5 40.5 15s16.5 24.667 16.5 44z" />
    <glyph glyph-name="ae" unicode="&#xe6;" horiz-adv-x="854" 
d="M728 300c-1.33301 54 -14 96.002 -38 126.002s-58 45 -102 45c-23.333 0 -44.166 -4.66699 -62.499 -14s-34.333 -21.833 -48 -37.5s-24.334 -33.834 -32.001 -54.501s-12.167 -42.334 -13.5 -65.001h296zM252 -10.998c-29.333 0 -56.499 3 -81.499 9
s-46.5 15.5 -64.5 28.5s-32.167 29.667 -42.5 50s-15.5 45.166 -15.5 74.499c0 28 5.33301 52 16 72s25.667 36.5 45 49.5s42.333 22.5 69 28.5s55.667 9 87 9c9.33301 0 19.166 -0.5 29.499 -1.5s20.333 -2.33301 30 -4s18 -3.33398 25 -5.00098s11.833 -3.16699 14.5 -4.5
v32c0 18 -1.33301 35.5 -4 52.5s-8.5 32.333 -17.5 46s-21.667 24.667 -38 33s-37.833 12.5 -64.5 12.5c-36 0 -64 -2.5 -84 -7.5s-34.333 -9.16699 -43 -12.5l-8 56c11.333 5.33301 29 10.333 53 15s52.333 7 85 7c47.333 0 84.5 -8.83301 111.5 -26.5
s46.167 -41.5 57.5 -71.5c22 32.667 48.333 57.167 79 73.5s62.667 24.5 96 24.5c63.333 0 113.833 -20.667 151.5 -62s56.5 -105 56.5 -191c0 -5.33301 -0.166992 -10.666 -0.5 -15.999s-0.833008 -10.333 -1.5 -15h-363c2 -63.333 17.667 -112 47 -146s76 -51 140 -51
c35.333 0 63.333 3.33301 84 10s35.667 12.334 45 17.001l12 -56c-9.33301 -5.33301 -26.833 -11.666 -52.5 -18.999s-55.834 -11 -90.501 -11c-38 0 -71.667 4.66699 -101 14s-55 24.666 -77 45.999c-7.33301 -6 -16.5 -12.5 -27.5 -19.5s-24.167 -13.5 -39.5 -19.5
s-32.666 -11 -51.999 -15s-41.333 -6 -66 -6zM365.001 238.002c-7.33301 3.33301 -19.167 6.83203 -35.5 10.499s-38.5 5.5 -66.5 5.5c-16 0 -32.667 -1.16699 -50 -3.5s-33.333 -7.33301 -48 -15s-26.667 -18.167 -36 -31.5s-14 -31 -14 -53
c0 -19.333 3.33301 -35.666 10 -48.999s16.167 -24 28.5 -32s26.833 -13.833 43.5 -17.5s35 -5.5 55 -5.5c41.333 0 74 5.5 98 16.5s40.667 20.833 50 29.5c-10.667 17.333 -19 37.833 -25 61.5s-9.33301 51.5 -10 83.5z" />
    <glyph glyph-name="ccedilla" unicode="&#xe7;" horiz-adv-x="460" 
d="M294 -36c18.667 -8 33.5039 -17.833 44.5039 -29.5s16.5 -27.167 16.5 -46.5c0 -8 -1.33301 -16.5 -4 -25.5s-7.66699 -17.167 -15 -24.5s-17.333 -13.333 -30 -18s-29 -7 -49 -7c-13.333 0 -27 1.16699 -41 3.5s-24 5.16602 -30 8.49902l8 43
c7.33301 -3.33301 15.666 -5.66602 24.999 -6.99902s20.666 -2 33.999 -2c27.333 0 41 9.66699 41 29c0 11.333 -4.66699 20 -14 26s-24 13 -44 21c2.66699 8 6.16699 17.167 10.5 27.5s9.16602 20.166 14.499 29.499c-67.333 8 -118.5 35.667 -153.5 83
s-52.5 108 -52.5 182c0 40.667 5.5 77.667 16.5 111s26.833 62 47.5 86s45.667 42.5 75 55.5s62.333 19.5 99 19.5c28 0 54.167 -2.33301 78.5 -7s43.166 -10.667 56.499 -18l-17 -56c-13.333 6.66699 -28.333 12 -45 16s-39 6 -67 6c-57.333 0 -100.833 -18.5 -130.5 -55.5
s-44.5 -89.5 -44.5 -157.5c0 -30.667 3.33301 -58.834 10 -84.501s17.5 -47.667 32.5 -66s34.333 -32.666 58 -42.999s52.5 -15.5 86.5 -15.5c28 0 51.5 3.16699 70.5 9.5s32.833 11.833 41.5 16.5l14 -56c-11.333 -6.66699 -29.333 -13 -54 -19s-50.667 -9.33301 -78 -10
l-6 -13.5c-2 -4.33301 -3.66699 -8.16602 -5 -11.499z" />
    <glyph glyph-name="egrave" unicode="&#xe8;" horiz-adv-x="548" 
d="M55 259c0 45.333 6.50098 84.8291 19.501 118.496s30 61.834 51 84.501s45 39.5 72 50.5s54.833 16.5 83.5 16.5c63.333 0 113.833 -20.667 151.5 -62s56.5 -105 56.5 -191c0 -5.33301 -0.166992 -10.666 -0.5 -15.999s-0.833008 -10.333 -1.5 -15h-363
c2 -63.333 17.667 -112 47 -146s76 -51 140 -51c35.333 0 63.333 3.33301 84 10s35.667 12.334 45 17.001l12 -56c-9.33301 -5.33301 -26.833 -11.666 -52.5 -18.999s-55.834 -11 -90.501 -11c-45.333 0 -84 6.66699 -116 20s-58.333 32 -79 56s-35.667 52.5 -45 85.5
s-14 69.167 -14 108.5zM422.001 299.996c-1.33301 54 -14 96.002 -38 126.002s-58 45 -102 45c-23.333 0 -44.166 -4.66699 -62.499 -14s-34.333 -21.833 -48 -37.5s-24.334 -33.834 -32.001 -54.501s-12.167 -42.334 -13.5 -65.001h296zM188.001 772.998l158 -152l-33 -38
l-171 139z" />
    <glyph glyph-name="eacute" unicode="&#xe9;" horiz-adv-x="548" 
d="M55 259c0 45.333 6.50098 84.8291 19.501 118.496s30 61.834 51 84.501s45 39.5 72 50.5s54.833 16.5 83.5 16.5c63.333 0 113.833 -20.667 151.5 -62s56.5 -105 56.5 -191c0 -5.33301 -0.166992 -10.666 -0.5 -15.999s-0.833008 -10.333 -1.5 -15h-363
c2 -63.333 17.667 -112 47 -146s76 -51 140 -51c35.333 0 63.333 3.33301 84 10s35.667 12.334 45 17.001l12 -56c-9.33301 -5.33301 -26.833 -11.666 -52.5 -18.999s-55.834 -11 -90.501 -11c-45.333 0 -84 6.66699 -116 20s-58.333 32 -79 56s-35.667 52.5 -45 85.5
s-14 69.167 -14 108.5zM422.001 299.996c-1.33301 54 -14 96.002 -38 126.002s-58 45 -102 45c-23.333 0 -44.166 -4.66699 -62.499 -14s-34.333 -21.833 -48 -37.5s-24.334 -33.834 -32.001 -54.501s-12.167 -42.334 -13.5 -65.001h296zM418.001 721.998l-171 -139l-33 38
l158 152z" />
    <glyph glyph-name="ecircumflex" unicode="&#xea;" horiz-adv-x="548" 
d="M55 259c0 45.333 6.50098 84.8291 19.501 118.496s30 61.834 51 84.501s45 39.5 72 50.5s54.833 16.5 83.5 16.5c63.333 0 113.833 -20.667 151.5 -62s56.5 -105 56.5 -191c0 -5.33301 -0.166992 -10.666 -0.5 -15.999s-0.833008 -10.333 -1.5 -15h-363
c2 -63.333 17.667 -112 47 -146s76 -51 140 -51c35.333 0 63.333 3.33301 84 10s35.667 12.334 45 17.001l12 -56c-9.33301 -5.33301 -26.833 -11.666 -52.5 -18.999s-55.834 -11 -90.501 -11c-45.333 0 -84 6.66699 -116 20s-58.333 32 -79 56s-35.667 52.5 -45 85.5
s-14 69.167 -14 108.5zM422.001 299.996c-1.33301 54 -14 96.002 -38 126.002s-58 45 -102 45c-23.333 0 -44.166 -4.66699 -62.499 -14s-34.333 -21.833 -48 -37.5s-24.334 -33.834 -32.001 -54.501s-12.167 -42.334 -13.5 -65.001h296zM176.001 583.998l-28 31l132 147
l132 -147l-28 -31l-104 96z" />
    <glyph glyph-name="edieresis" unicode="&#xeb;" horiz-adv-x="548" 
d="M55 259c0 45.333 6.50098 84.8291 19.501 118.496s30 61.834 51 84.501s45 39.5 72 50.5s54.833 16.5 83.5 16.5c63.333 0 113.833 -20.667 151.5 -62s56.5 -105 56.5 -191c0 -5.33301 -0.166992 -10.666 -0.5 -15.999s-0.833008 -10.333 -1.5 -15h-363
c2 -63.333 17.667 -112 47 -146s76 -51 140 -51c35.333 0 63.333 3.33301 84 10s35.667 12.334 45 17.001l12 -56c-9.33301 -5.33301 -26.833 -11.666 -52.5 -18.999s-55.834 -11 -90.501 -11c-45.333 0 -84 6.66699 -116 20s-58.333 32 -79 56s-35.667 52.5 -45 85.5
s-14 69.167 -14 108.5zM422.001 299.996c-1.33301 54 -14 96.002 -38 126.002s-58 45 -102 45c-23.333 0 -44.166 -4.66699 -62.499 -14s-34.333 -21.833 -48 -37.5s-24.334 -33.834 -32.001 -54.501s-12.167 -42.334 -13.5 -65.001h296zM240.001 672.998
c0 -14.667 -4.33301 -26.334 -13 -35.001s-19.667 -13 -33 -13s-24.333 4.33301 -33 13s-13 20.334 -13 35.001s4.33301 26.334 13 35.001s19.667 13 33 13s24.333 -4.33301 33 -13s13 -20.334 13 -35.001zM412.001 672.998c0 -14.667 -4.33301 -26.334 -13 -35.001
s-19.667 -13 -33 -13s-24.333 4.33301 -33 13s-13 20.334 -13 35.001s4.33301 26.334 13 35.001s19.667 13 33 13s24.333 -4.33301 33 -13s13 -20.334 13 -35.001z" />
    <glyph glyph-name="igrave" unicode="&#xec;" horiz-adv-x="237" 
d="M151 0h-65v517h65v-517zM27 773l158 -152l-33 -38l-171 139z" />
    <glyph glyph-name="iacute" unicode="&#xed;" horiz-adv-x="237" 
d="M151 0h-65v517h65v-517zM257 722l-171 -139l-33 38l158 152z" />
    <glyph glyph-name="icircumflex" unicode="&#xee;" horiz-adv-x="237" 
d="M151 0h-65v517h65v-517zM15 584l-28 31l132 147l132 -147l-28 -31l-104 96z" />
    <glyph glyph-name="idieresis" unicode="&#xef;" horiz-adv-x="237" 
d="M151 0h-65v517h65v-517zM79 673c0 -14.667 -4.33301 -26.334 -13 -35.001s-19.667 -13 -33 -13s-24.333 4.33301 -33 13s-13 20.334 -13 35.001s4.33301 26.334 13 35.001s19.667 13 33 13s24.333 -4.33301 33 -13s13 -20.334 13 -35.001zM251 673
c0 -14.667 -4.33301 -26.334 -13 -35.001s-19.667 -13 -33 -13s-24.333 4.33301 -33 13s-13 20.334 -13 35.001s4.33301 26.334 13 35.001s19.667 13 33 13s24.333 -4.33301 33 -13s13 -20.334 13 -35.001z" />
    <glyph glyph-name="eth" unicode="&#xf0;" horiz-adv-x="578" 
d="M433 634c27.333 -42 48.333 -88.332 63 -138.999s22 -105.667 22 -165c0 -40 -3.16699 -80.333 -9.5 -121s-18.333 -77.334 -36 -110.001s-42.167 -59.334 -73.5 -80.001s-72 -31 -122 -31c-34.667 0 -65.667 6.83301 -93 20.5s-50.5 32.167 -69.5 55.5
s-33.667 50.5 -44 81.5s-15.5 64.167 -15.5 99.5c0 38.667 5.66699 73 17 103s27.166 55.333 47.499 76s44.666 36.334 72.999 47.001s59.5 16 93.5 16c20 0 38.167 -1.83301 54.5 -5.5s31 -8.16699 44 -13.5s24.333 -11 34 -17s17.167 -11.333 22.5 -16
c-3.33301 28 -10.666 57.333 -21.999 88s-26.666 60.667 -45.999 90l-131 -46l-17 45l118 41c-27.333 32.667 -60 60.667 -98 84l43 39c44.667 -27.333 83 -61 115 -101l120 42l17 -45zM450 331.001l0.000976562 17.5c0 5.66699 -0.333008 11.5 -1 17.5
c-23.333 23.333 -48 39.666 -74 48.999s-53 14 -81 14c-30 0 -55.833 -4.83301 -77.5 -14.5s-39.334 -22.667 -53.001 -39s-23.834 -35.666 -30.501 -57.999s-10 -46.5 -10 -72.5c0 -26.667 3.33301 -52 10 -76s16.5 -45 29.5 -63s29 -32.333 48 -43s41.167 -16 66.5 -16
c36 0 65.167 8.16699 87.5 24.5s39.833 37.833 52.5 64.5s21.334 57 26.001 91s7 68.667 7 104z" />
    <glyph glyph-name="ntilde" unicode="&#xf1;" horiz-adv-x="569" 
d="M86 499c19.333 5.33301 45.333 11.332 78 17.999s72.667 10 120 10c39.333 0 72.166 -5.66699 98.499 -17s47.333 -27.5 63 -48.5s26.834 -46.167 33.501 -75.5s10 -61.666 10 -96.999v-289h-65v268c0 36.667 -2.5 67.667 -7.5 93s-13.333 46 -25 62s-27 27.5 -46 34.5
s-42.833 10.5 -71.5 10.5c-30.667 0 -57.167 -1.66699 -79.5 -5s-36.833 -6.33301 -43.5 -9v-454h-65v499zM350 628.999c-14.667 0 -28 2.33301 -40 7s-23.667 9.66699 -35 15c-12.667 6.66699 -23 11.167 -31 13.5s-15.333 3.5 -22 3.5c-14 0 -25 -4.66699 -33 -14
s-15.333 -19.666 -22 -30.999l-38 18c3.33301 8 7.83301 16.667 13.5 26s12.334 18 20.001 26s16.667 14.667 27 20s22.166 8 35.499 8c14.667 0 28 -2.33301 40 -7s23.667 -9.66699 35 -15c12.667 -6.66699 23 -11.167 31 -13.5s15.333 -3.5 22 -3.5c14 0 25 4.66699 33 14
s15.333 19.666 22 30.999l38 -18c-3.33301 -8 -7.83301 -16.667 -13.5 -26s-12.334 -18 -20.001 -26s-16.667 -14.667 -27 -20s-22.166 -8 -35.499 -8z" />
    <glyph glyph-name="ograve" unicode="&#xf2;" horiz-adv-x="582" 
d="M527 258c0 -40.667 -5.83301 -77.667 -17.5 -111s-28 -61.666 -49 -84.999s-45.833 -41.5 -74.5 -54.5s-60.334 -19.5 -95.001 -19.5s-66.334 6.5 -95.001 19.5s-53.5 31.167 -74.5 54.5s-37.333 51.666 -49 84.999s-17.5 70.333 -17.5 111s5.83301 77.667 17.5 111
s28 61.833 49 85.5s45.833 42 74.5 55s60.334 19.5 95.001 19.5s66.334 -6.5 95.001 -19.5s53.5 -31.333 74.5 -55s37.333 -52.167 49 -85.5s17.5 -70.333 17.5 -111zM458 258c0 64.667 -15 116.167 -45 154.5s-70.667 57.5 -122 57.5s-92 -19.167 -122 -57.5
s-45 -89.833 -45 -154.5s15 -116 45 -154s70.667 -57 122 -57s92 19 122 57s45 89.333 45 154zM199 773l158 -152l-33 -38l-171 139z" />
    <glyph glyph-name="oacute" unicode="&#xf3;" horiz-adv-x="582" 
d="M527 258c0 -40.667 -5.83301 -77.667 -17.5 -111s-28 -61.666 -49 -84.999s-45.833 -41.5 -74.5 -54.5s-60.334 -19.5 -95.001 -19.5s-66.334 6.5 -95.001 19.5s-53.5 31.167 -74.5 54.5s-37.333 51.666 -49 84.999s-17.5 70.333 -17.5 111s5.83301 77.667 17.5 111
s28 61.833 49 85.5s45.833 42 74.5 55s60.334 19.5 95.001 19.5s66.334 -6.5 95.001 -19.5s53.5 -31.333 74.5 -55s37.333 -52.167 49 -85.5s17.5 -70.333 17.5 -111zM458 258c0 64.667 -15 116.167 -45 154.5s-70.667 57.5 -122 57.5s-92 -19.167 -122 -57.5
s-45 -89.833 -45 -154.5s15 -116 45 -154s70.667 -57 122 -57s92 19 122 57s45 89.333 45 154zM429 722l-171 -139l-33 38l158 152z" />
    <glyph glyph-name="ocircumflex" unicode="&#xf4;" horiz-adv-x="582" 
d="M527 258c0 -40.667 -5.83301 -77.667 -17.5 -111s-28 -61.666 -49 -84.999s-45.833 -41.5 -74.5 -54.5s-60.334 -19.5 -95.001 -19.5s-66.334 6.5 -95.001 19.5s-53.5 31.167 -74.5 54.5s-37.333 51.666 -49 84.999s-17.5 70.333 -17.5 111s5.83301 77.667 17.5 111
s28 61.833 49 85.5s45.833 42 74.5 55s60.334 19.5 95.001 19.5s66.334 -6.5 95.001 -19.5s53.5 -31.333 74.5 -55s37.333 -52.167 49 -85.5s17.5 -70.333 17.5 -111zM458 258c0 64.667 -15 116.167 -45 154.5s-70.667 57.5 -122 57.5s-92 -19.167 -122 -57.5
s-45 -89.833 -45 -154.5s15 -116 45 -154s70.667 -57 122 -57s92 19 122 57s45 89.333 45 154zM187 584l-28 31l132 147l132 -147l-28 -31l-104 96z" />
    <glyph glyph-name="otilde" unicode="&#xf5;" horiz-adv-x="582" 
d="M527 258c0 -40.667 -5.83301 -77.667 -17.5 -111s-28 -61.666 -49 -84.999s-45.833 -41.5 -74.5 -54.5s-60.334 -19.5 -95.001 -19.5s-66.334 6.5 -95.001 19.5s-53.5 31.167 -74.5 54.5s-37.333 51.666 -49 84.999s-17.5 70.333 -17.5 111s5.83301 77.667 17.5 111
s28 61.833 49 85.5s45.833 42 74.5 55s60.334 19.5 95.001 19.5s66.334 -6.5 95.001 -19.5s53.5 -31.333 74.5 -55s37.333 -52.167 49 -85.5s17.5 -70.333 17.5 -111zM458 258c0 64.667 -15 116.167 -45 154.5s-70.667 57.5 -122 57.5s-92 -19.167 -122 -57.5
s-45 -89.833 -45 -154.5s15 -116 45 -154s70.667 -57 122 -57s92 19 122 57s45 89.333 45 154zM354 629c-14.667 0 -28 2.33301 -40 7s-23.667 9.66699 -35 15c-12.667 6.66699 -23 11.167 -31 13.5s-15.333 3.5 -22 3.5c-14 0 -25 -4.66699 -33 -14
s-15.333 -19.666 -22 -30.999l-38 18c3.33301 8 7.83301 16.667 13.5 26s12.334 18 20.001 26s16.667 14.667 27 20s22.166 8 35.499 8c14.667 0 28 -2.33301 40 -7s23.667 -9.66699 35 -15c12.667 -6.66699 23 -11.167 31 -13.5s15.333 -3.5 22 -3.5c14 0 25 4.66699 33 14
s15.333 19.666 22 30.999l38 -18c-3.33301 -8 -7.83301 -16.667 -13.5 -26s-12.334 -18 -20.001 -26s-16.667 -14.667 -27 -20s-22.166 -8 -35.499 -8z" />
    <glyph glyph-name="odieresis" unicode="&#xf6;" horiz-adv-x="582" 
d="M527 258c0 -40.667 -5.83301 -77.667 -17.5 -111s-28 -61.666 -49 -84.999s-45.833 -41.5 -74.5 -54.5s-60.334 -19.5 -95.001 -19.5s-66.334 6.5 -95.001 19.5s-53.5 31.167 -74.5 54.5s-37.333 51.666 -49 84.999s-17.5 70.333 -17.5 111s5.83301 77.667 17.5 111
s28 61.833 49 85.5s45.833 42 74.5 55s60.334 19.5 95.001 19.5s66.334 -6.5 95.001 -19.5s53.5 -31.333 74.5 -55s37.333 -52.167 49 -85.5s17.5 -70.333 17.5 -111zM458 258c0 64.667 -15 116.167 -45 154.5s-70.667 57.5 -122 57.5s-92 -19.167 -122 -57.5
s-45 -89.833 -45 -154.5s15 -116 45 -154s70.667 -57 122 -57s92 19 122 57s45 89.333 45 154zM251 673c0 -14.667 -4.33301 -26.334 -13 -35.001s-19.667 -13 -33 -13s-24.333 4.33301 -33 13s-13 20.334 -13 35.001s4.33301 26.334 13 35.001s19.667 13 33 13
s24.333 -4.33301 33 -13s13 -20.334 13 -35.001zM423 673c0 -14.667 -4.33301 -26.334 -13 -35.001s-19.667 -13 -33 -13s-24.333 4.33301 -33 13s-13 20.334 -13 35.001s4.33301 26.334 13 35.001s19.667 13 33 13s24.333 -4.33301 33 -13s13 -20.334 13 -35.001z" />
    <glyph glyph-name="divide" unicode="&#xf7;" 
d="M281 51c-13.333 0 -24.5 4.66699 -33.5 14s-13.5 21 -13.5 35c0 14.667 4.5 26.667 13.5 36s20.167 14 33.5 14c14 0 25.5 -4.66699 34.5 -14s13.5 -21.333 13.5 -36c0 -14 -4.5 -25.667 -13.5 -35s-20.5 -14 -34.5 -14zM281 427c-13.333 0 -24.5 4.66699 -33.5 14
s-13.5 21.333 -13.5 36c0 14 4.5 25.667 13.5 35s20.167 14 33.5 14c14 0 25.5 -4.66699 34.5 -14s13.5 -21 13.5 -35c0 -14.667 -4.5 -26.667 -13.5 -36s-20.5 -14 -34.5 -14zM56 317h452v-56h-452v56z" />
    <glyph glyph-name="oslash" unicode="&#xf8;" horiz-adv-x="582" 
d="M527 258c0 -40.667 -5.83398 -77.6699 -17.501 -111.003s-28 -61.666 -49 -84.999s-45.833 -41.5 -74.5 -54.5s-60.334 -19.5 -95.001 -19.5c-53.333 0 -99.666 15 -138.999 45l-51 -67l-43 32l56 72c-19.333 23.333 -34 50.833 -44 82.5s-15 66.834 -15 105.501
c0 40.667 5.83301 77.667 17.5 111s28 61.833 49 85.5s45.833 42 74.5 55s60.334 19.5 95.001 19.5c54 0 101 -16 141 -48l51 67l42 -31l-56 -73c18.667 -23.333 33 -50.666 43 -81.999s15 -66 15 -104zM123.999 257.997c0 -53.333 10.332 -98 30.999 -134l239 308
c-13.333 12 -28.666 21.333 -45.999 28s-36.333 10 -57 10c-51.333 0 -92 -19.167 -122 -57.5s-45 -89.833 -45 -154.5zM457.998 257.997c0 52 -10.333 96 -31 132l-237 -308c27.333 -23.333 61 -35 101 -35c51.333 0 92 19 122 57s45 89.333 45 154z" />
    <glyph glyph-name="ugrave" unicode="&#xf9;" horiz-adv-x="569" 
d="M483 18c-19.333 -5.33301 -45.334 -11.332 -78.001 -17.999s-72.667 -10 -120 -10c-38.667 0 -71 5.66699 -97 17s-47 27.333 -63 48s-27.5 45.667 -34.5 75s-10.5 61.666 -10.5 96.999v290h65v-269c0 -36.667 2.66699 -67.667 8 -93s14 -45.833 26 -61.5
s27.5 -27 46.5 -34s42.167 -10.5 69.5 -10.5c30.667 0 57.334 1.66699 80.001 5s37 6.33301 43 9v454h65v-499zM188.999 773.001l158 -152l-33 -38l-171 139z" />
    <glyph glyph-name="uacute" unicode="&#xfa;" horiz-adv-x="569" 
d="M483 18c-19.333 -5.33301 -45.334 -11.332 -78.001 -17.999s-72.667 -10 -120 -10c-38.667 0 -71 5.66699 -97 17s-47 27.333 -63 48s-27.5 45.667 -34.5 75s-10.5 61.666 -10.5 96.999v290h65v-269c0 -36.667 2.66699 -67.667 8 -93s14 -45.833 26 -61.5
s27.5 -27 46.5 -34s42.167 -10.5 69.5 -10.5c30.667 0 57.334 1.66699 80.001 5s37 6.33301 43 9v454h65v-499zM418.999 722.001l-171 -139l-33 38l158 152z" />
    <glyph glyph-name="ucircumflex" unicode="&#xfb;" horiz-adv-x="569" 
d="M483 18c-19.333 -5.33301 -45.334 -11.332 -78.001 -17.999s-72.667 -10 -120 -10c-38.667 0 -71 5.66699 -97 17s-47 27.333 -63 48s-27.5 45.667 -34.5 75s-10.5 61.666 -10.5 96.999v290h65v-269c0 -36.667 2.66699 -67.667 8 -93s14 -45.833 26 -61.5
s27.5 -27 46.5 -34s42.167 -10.5 69.5 -10.5c30.667 0 57.334 1.66699 80.001 5s37 6.33301 43 9v454h65v-499zM176.999 584.001l-28 31l132 147l132 -147l-28 -31l-104 96z" />
    <glyph glyph-name="udieresis" unicode="&#xfc;" horiz-adv-x="569" 
d="M483 18c-19.333 -5.33301 -45.334 -11.332 -78.001 -17.999s-72.667 -10 -120 -10c-38.667 0 -71 5.66699 -97 17s-47 27.333 -63 48s-27.5 45.667 -34.5 75s-10.5 61.666 -10.5 96.999v290h65v-269c0 -36.667 2.66699 -67.667 8 -93s14 -45.833 26 -61.5
s27.5 -27 46.5 -34s42.167 -10.5 69.5 -10.5c30.667 0 57.334 1.66699 80.001 5s37 6.33301 43 9v454h65v-499zM240.999 673.001c0 -14.667 -4.33301 -26.334 -13 -35.001s-19.667 -13 -33 -13s-24.333 4.33301 -33 13s-13 20.334 -13 35.001s4.33301 26.334 13 35.001
s19.667 13 33 13s24.333 -4.33301 33 -13s13 -20.334 13 -35.001zM412.999 673.001c0 -14.667 -4.33301 -26.334 -13 -35.001s-19.667 -13 -33 -13s-24.333 4.33301 -33 13s-13 20.334 -13 35.001s4.33301 26.334 13 35.001s19.667 13 33 13s24.333 -4.33301 33 -13
s13 -20.334 13 -35.001z" />
    <glyph glyph-name="yacute" unicode="&#xfd;" horiz-adv-x="474" 
d="M227 -11c-22 40.667 -43.1621 83 -63.4951 127s-39.333 88.5 -57 133.5s-33.834 90 -48.501 135s-27.334 89.167 -38.001 132.5h69c7.33301 -32 16.666 -66.5 27.999 -103.5s24.166 -75.167 38.499 -114.5s30.166 -79.666 47.499 -120.999s36 -82 56 -122
c14.667 41.333 27.667 80.333 39 117s21.833 73.167 31.5 109.5s19 73.5 28 111.5l28.5 123h65c-21.333 -96.667 -45.666 -190.667 -72.999 -282s-57 -175 -89 -251c-12.667 -30 -25.667 -55.833 -39 -77.5s-28.166 -39.5 -44.499 -53.5s-35.333 -24.333 -57 -31
s-47.167 -10 -76.5 -10c-16.667 0 -31.834 2 -45.501 6s-22.167 7 -25.5 9l13 54c2.66699 -2 10.167 -4.83301 22.5 -8.5s25.166 -5.5 38.499 -5.5c18.667 0 35.5 2 50.5 6s28.5 10.833 40.5 20.5s22.833 22.167 32.5 37.5s19.167 34.666 28.5 57.999zM386.005 722
l-171 -139l-33 38l158 152z" />
    <glyph glyph-name="thorn" unicode="&#xfe;" horiz-adv-x="583" 
d="M151 776v-274.003c42.667 16.667 85 25 127 25c37.333 0 71.333 -6.33301 102 -19s57 -30.667 79 -54s39 -51.666 51 -84.999s18 -70.666 18 -111.999c0 -39.333 -5.16699 -75.5 -15.5 -108.5s-25.5 -61.333 -45.5 -85s-44.5 -42.167 -73.5 -55.5s-62.167 -20 -99.5 -20
c-34 0 -63.5 4.83301 -88.5 14.5s-43.167 18.834 -54.5 27.501v-215h-65v949zM151 92.9971c6 -4.66699 13.5 -9.66797 22.5 -15.001s19.5 -10.333 31.5 -15s25 -8.5 39 -11.5s28.667 -4.5 44 -4.5c32 0 58.833 5.5 80.5 16.5s39.167 26 52.5 45s23 41.333 29 67
s9 52.834 9 81.501c0 67.333 -17.167 119.333 -51.5 156s-79.5 55 -135.5 55c-28 0 -53.333 -3 -76 -9s-37.667 -10.667 -45 -14v-352z" />
    <glyph glyph-name="ydieresis" unicode="&#xff;" horiz-adv-x="474" 
d="M227 -11c-22 40.667 -43.1621 83 -63.4951 127s-39.333 88.5 -57 133.5s-33.834 90 -48.501 135s-27.334 89.167 -38.001 132.5h69c7.33301 -32 16.666 -66.5 27.999 -103.5s24.166 -75.167 38.499 -114.5s30.166 -79.666 47.499 -120.999s36 -82 56 -122
c14.667 41.333 27.667 80.333 39 117s21.833 73.167 31.5 109.5s19 73.5 28 111.5l28.5 123h65c-21.333 -96.667 -45.666 -190.667 -72.999 -282s-57 -175 -89 -251c-12.667 -30 -25.667 -55.833 -39 -77.5s-28.166 -39.5 -44.499 -53.5s-35.333 -24.333 -57 -31
s-47.167 -10 -76.5 -10c-16.667 0 -31.834 2 -45.501 6s-22.167 7 -25.5 9l13 54c2.66699 -2 10.167 -4.83301 22.5 -8.5s25.166 -5.5 38.499 -5.5c18.667 0 35.5 2 50.5 6s28.5 10.833 40.5 20.5s22.833 22.167 32.5 37.5s19.167 34.666 28.5 57.999zM208.005 673
c0 -14.667 -4.33301 -26.334 -13 -35.001s-19.667 -13 -33 -13s-24.333 4.33301 -33 13s-13 20.334 -13 35.001s4.33301 26.334 13 35.001s19.667 13 33 13s24.333 -4.33301 33 -13s13 -20.334 13 -35.001zM380.005 673c0 -14.667 -4.33301 -26.334 -13 -35.001
s-19.667 -13 -33 -13s-24.333 4.33301 -33 13s-13 20.334 -13 35.001s4.33301 26.334 13 35.001s19.667 13 33 13s24.333 -4.33301 33 -13s13 -20.334 13 -35.001z" />
    <glyph glyph-name="dotlessi" unicode="&#x131;" horiz-adv-x="237" 
d="M151 0h-65v517h65v-517z" />
    <glyph glyph-name="OE" unicode="&#x152;" horiz-adv-x="990" 
d="M539 633c-4 0.666992 -13.833 1.99805 -29.5 3.99805s-41.5 3 -77.5 3c-48.667 0 -91.5 -6.83301 -128.5 -20.5s-67.833 -33.167 -92.5 -58.5s-43.167 -56 -55.5 -92s-18.5 -76.667 -18.5 -122s6.16699 -86.166 18.5 -122.499s30.833 -67.166 55.5 -92.499
s55.5 -44.833 92.5 -58.5s79.833 -20.5 128.5 -20.5c36 0 61.833 1 77.5 3s25.5 3.33301 29.5 4v573zM540 -0.00195312c-33.333 -4 -66.667 -6 -100 -6c-55.333 0 -105.833 7.33301 -151.5 22s-85.167 36.667 -118.5 66s-59.166 66 -77.499 110s-27.5 95.667 -27.5 155
c0 58.667 9.16699 110 27.5 154s44.166 80.667 77.499 110s72.833 51.333 118.5 66s96.167 22 151.5 22c16 0 32.5 -0.5 49.5 -1.5s33.5 -2.5 49.5 -4.5h386v-59h-318v-241h282v-58h-282v-276h344v-59h-411z" />
    <glyph glyph-name="oe" unicode="&#x153;" horiz-adv-x="944" 
d="M291 529c46.667 0 86.502 -11.502 119.502 -34.502s58.833 -54.833 77.5 -95.5c19.333 43.333 45.666 75.833 78.999 97.5s70 32.5 110 32.5c63.333 0 113.833 -20.667 151.5 -62s56.5 -105 56.5 -191c0 -5.33301 -0.166992 -10.666 -0.5 -15.999
s-0.833008 -10.333 -1.5 -15h-363c2 -63.333 17.667 -112 47 -146s76 -51 140 -51c35.333 0 63.333 3.33301 84 10s35.667 12.334 45 17.001l12 -56c-9.33301 -5.33301 -26.833 -11.666 -52.5 -18.999s-55.834 -11 -90.501 -11c-60 0 -107 11 -141 33s-59.667 52.333 -77 91
c-19.333 -39.333 -45.333 -70 -78 -92s-72 -33 -118 -33c-34.667 0 -66.334 6.5 -95.001 19.5s-53.5 31.167 -74.5 54.5s-37.333 51.666 -49 84.999s-17.5 70.333 -17.5 111s5.83301 77.667 17.5 111s28 61.833 49 85.5s45.833 42 74.5 55s60.334 19.5 95.001 19.5z
M458.002 257.998c0 64.667 -15 116.167 -45 154.5s-70.667 57.5 -122 57.5s-92 -19.167 -122 -57.5s-45 -89.833 -45 -154.5s15 -116 45 -154s70.667 -57 122 -57s92 19 122 57s45 89.333 45 154zM818.002 299.998c-1.33301 54 -14 96.002 -38 126.002s-58 45 -102 45
c-23.333 0 -44.166 -4.66699 -62.499 -14s-34.333 -21.833 -48 -37.5s-24.334 -33.834 -32.001 -54.501s-12.167 -42.334 -13.5 -65.001h296z" />
    <glyph glyph-name="circumflex" unicode="&#x2c6;" horiz-adv-x="376" 
d="M84 584l-28 31l132 147l132 -147l-28 -31l-104 96z" />
    <glyph glyph-name="ring" unicode="&#x2da;" horiz-adv-x="376" 
d="M283 676c0 -14.667 -2.5 -27.832 -7.5 -39.499s-11.833 -21.667 -20.5 -30s-18.834 -14.833 -30.501 -19.5s-23.834 -7 -36.501 -7c-26 0 -48.5 8.66699 -67.5 26s-28.5 40.666 -28.5 69.999c0 28.667 9.5 51.667 28.5 69s41.5 26 67.5 26
c12.667 0 24.834 -2.33301 36.501 -7s21.834 -11.167 30.501 -19.5s15.5 -18.333 20.5 -30s7.5 -24.5 7.5 -38.5zM245 676.002c0 18.667 -5.5 33.167 -16.5 43.5s-24.5 15.5 -40.5 15.5s-29.5 -5.16699 -40.5 -15.5s-16.5 -24.833 -16.5 -43.5c0 -19.333 5.5 -34 16.5 -44
s24.5 -15 40.5 -15s29.5 5 40.5 15s16.5 24.667 16.5 44z" />
    <glyph glyph-name="tilde" unicode="&#x2dc;" horiz-adv-x="376" 
d="M251 629c-14.667 0 -28 2.33301 -40 7s-23.667 9.66699 -35 15c-12.667 6.66699 -23 11.167 -31 13.5s-15.333 3.5 -22 3.5c-14 0 -25 -4.66699 -33 -14s-15.333 -19.666 -22 -30.999l-38 18c3.33301 8 7.83301 16.667 13.5 26s12.334 18 20.001 26s16.667 14.667 27 20
s22.166 8 35.499 8c14.667 0 28 -2.33301 40 -7s23.667 -9.66699 35 -15c12.667 -6.66699 23 -11.167 31 -13.5s15.333 -3.5 22 -3.5c14 0 25 4.66699 33 14s15.333 19.666 22 30.999l38 -18c-3.33301 -8 -7.83301 -16.667 -13.5 -26s-12.334 -18 -20.001 -26
s-16.667 -14.667 -27 -20s-22.166 -8 -35.499 -8z" />
    <glyph glyph-name="uni0400" unicode="&#x400;" horiz-adv-x="555" 
d="M90 0v693h400v-59h-332v-241h296v-58h-296v-276h358v-59h-426zM198 929l158 -152l-33 -38l-171 139z" />
    <glyph glyph-name="afii10023" unicode="&#x401;" horiz-adv-x="555" 
d="M90 0v693h400v-59h-332v-241h296v-58h-296v-276h358v-59h-426zM250 829c0 -14.667 -4.33301 -26.334 -13 -35.001s-19.667 -13 -33 -13s-24.333 4.33301 -33 13s-13 20.334 -13 35.001s4.33301 26.334 13 35.001s19.667 13 33 13s24.333 -4.33301 33 -13
s13 -20.334 13 -35.001zM422 829c0 -14.667 -4.33301 -26.334 -13 -35.001s-19.667 -13 -33 -13s-24.333 4.33301 -33 13s-13 20.334 -13 35.001s4.33301 26.334 13 35.001s19.667 13 33 13s24.333 -4.33301 33 -13s13 -20.334 13 -35.001z" />
    <glyph glyph-name="afii10051" unicode="&#x402;" horiz-adv-x="724" 
d="M433 374c-16 0 -31.5 -0.831055 -46.5 -2.49805s-28.667 -3.5 -41 -5.5s-22.833 -4.16699 -31.5 -6.5s-15 -4.16602 -19 -5.49902v-354h-68v634h-209v59h523v-59h-246v-221c10 3.33301 28 7.66602 54 12.999s56 8 90 8c83.333 0 146.833 -20 190.5 -60
s65.5 -95.333 65.5 -166c0 -27.333 -3.83301 -53.5 -11.5 -78.5s-19.5 -47.333 -35.5 -67s-36.333 -35.334 -61 -47.001s-54 -17.5 -88 -17.5c-5.33301 0 -12.166 0.333008 -20.499 1s-15.833 1.66699 -22.5 3l4 55c5.33301 -0.666992 10.166 -1.16699 14.499 -1.5
s11.833 -0.5 22.5 -0.5c40.667 0 72 14.167 94 42.5s33 65.166 33 110.499c0 56.667 -17.667 98.5 -53 125.5s-81.333 40.5 -138 40.5z" />
    <glyph glyph-name="afii10052" unicode="&#x403;" horiz-adv-x="482" 
d="M464 693v-59h-306v-634h-68v693h374zM405 878l-171 -139l-33 38l158 152z" />
    <glyph glyph-name="afii10053" unicode="&#x404;" horiz-adv-x="609" 
d="M378 -15c-44.667 0 -86.167 7.99707 -124.5 23.9971s-71.666 39.333 -99.999 70s-50.666 68.5 -66.999 113.5s-24.5 96.5 -24.5 154.5s8.83301 109.5 26.5 154.5s41.167 82.833 70.5 113.5s63.333 53.834 102 69.501s79 23.5 121 23.5c26 0 49.667 -1.66699 71 -5
s40 -7.5 56 -12.5s29.667 -10 41 -15s20 -9.5 26 -13.5l-22 -59c-16.667 10 -37.834 19.833 -63.501 29.5s-57.5 14.5 -95.5 14.5c-40 0 -75.5 -6.33301 -106.5 -19s-57.333 -30.5 -79 -53.5s-38.834 -50.833 -51.501 -83.5s-20.334 -68.667 -23.001 -108h314v-58h-315
c2 -42.667 8.83301 -81.167 20.5 -115.5s28.167 -63.666 49.5 -87.999s47 -43 77 -56s64.333 -19.5 103 -19.5c44 0 80.833 4.16699 110.5 12.5s52.167 16.833 67.5 25.5l19 -58c-4.66699 -3.33301 -12.667 -7.16602 -24 -11.499s-25.666 -8.83301 -42.999 -13.5
s-37.333 -8.5 -60 -11.5s-48 -4.5 -76 -4.5z" />
    <glyph glyph-name="afii10054" unicode="&#x405;" horiz-adv-x="517" 
d="M239 44c54 0 96.0059 9.83398 126.006 29.501s45 51.5 45 95.5c0 25.333 -4.83301 46.5 -14.5 63.5s-22.5 31.333 -38.5 43s-34.333 21.667 -55 30l-65 26.5c-28.667 11.333 -54.334 23 -77.001 35s-42 25.5 -58 40.5s-28.167 32.167 -36.5 51.5s-12.5 42 -12.5 68
c0 59.333 19.667 104.333 59 135s94 46 164 46c18.667 0 37 -1.33301 55 -4s34.833 -6.16699 50.5 -10.5s30 -9.16602 43 -14.499s23.833 -11 32.5 -17l-24 -57c-19.333 13.333 -42.833 24 -70.5 32s-57.5 12 -89.5 12c-22 0 -42.167 -2.16699 -60.5 -6.5
s-34.166 -11.333 -47.499 -21s-23.833 -21.834 -31.5 -36.501s-11.5 -32.334 -11.5 -53.001c0 -21.333 4 -39.333 12 -54s19.167 -27.334 33.5 -38.001s31.166 -20.334 50.499 -29.001l63 -27c27.333 -11.333 53.166 -22.666 77.499 -33.999s45.5 -24.666 63.5 -39.999
s32.333 -34 43 -56s16 -49 16 -81c0 -62.667 -21.833 -109.667 -65.5 -141s-102.834 -47 -177.501 -47c-26.667 0 -51 1.66699 -73 5s-41.667 7.5 -59 12.5s-32 10.167 -44 15.5s-21.333 10 -28 14l22 59c6.66699 -4 15.667 -8.66699 27 -14s24.666 -10.5 39.999 -15.5
s32.666 -9.16699 51.999 -12.5s40.666 -5 63.999 -5z" />
    <glyph glyph-name="afii10055" unicode="&#x406;" horiz-adv-x="248" 
d="M90 693h68v-693h-68v693z" />
    <glyph glyph-name="afii10056" unicode="&#x407;" horiz-adv-x="248" 
d="M90 693h68v-693h-68v693zM85 829c0 -14.667 -4.33301 -26.334 -13 -35.001s-19.667 -13 -33 -13s-24.333 4.33301 -33 13s-13 20.334 -13 35.001s4.33301 26.334 13 35.001s19.667 13 33 13s24.333 -4.33301 33 -13s13 -20.334 13 -35.001zM257 829
c0 -14.667 -4.33301 -26.334 -13 -35.001s-19.667 -13 -33 -13s-24.333 4.33301 -33 13s-13 20.334 -13 35.001s4.33301 26.334 13 35.001s19.667 13 33 13s24.333 -4.33301 33 -13s13 -20.334 13 -35.001z" />
    <glyph glyph-name="afii10057" unicode="&#x408;" horiz-adv-x="487" 
d="M400 218c0 -33.333 -3.33398 -64.1699 -10.001 -92.5029s-18.167 -53 -34.5 -74s-38 -37.333 -65 -49s-60.833 -17.5 -101.5 -17.5c-24 0 -46 2.16699 -66 6.5s-37.667 9.5 -53 15.5s-28.166 12.333 -38.499 19s-18.166 12.667 -23.499 18l32 55
c6 -5.33301 13.5 -11.166 22.5 -17.499s19.5 -12.166 31.5 -17.499s25.333 -9.66602 40 -12.999s30.667 -5 48 -5c51.333 0 89.166 13.5 113.499 40.5s36.5 73.167 36.5 138.5v468h68v-475z" />
    <glyph glyph-name="afii10058" unicode="&#x409;" horiz-adv-x="1019" 
d="M695 375c-22 0 -42.1699 -0.667969 -60.5029 -2.00098s-33.166 -2.66602 -44.499 -3.99902v-309c12.667 -1.33301 27.667 -2.83301 45 -4.5s37.666 -2.5 60.999 -2.5c28.667 0 56.167 2.33301 82.5 7s49.333 13 69 25s35.334 28.5 47.001 49.5s17.5 47.833 17.5 80.5
c0 31.333 -5.66699 57.333 -17 78s-26.666 37 -45.999 49s-42.166 20.5 -68.499 25.5s-54.833 7.5 -85.5 7.5zM589.997 427.999c5.33301 0.666992 12.333 1.33301 21 2l27 2c9.33301 0.666992 18.666 1.16699 27.999 1.5s17.666 0.5 24.999 0.5
c97.333 0 170.333 -18.333 219 -55s73 -91.334 73 -164.001c0 -70 -23.5 -124.333 -70.5 -163s-120.167 -58 -219.5 -58c-26 0 -55 1.5 -87 4.5s-60 7.83301 -84 14.5v621h-226v-20c0 -73.333 -2.5 -144 -7.5 -212s-16.833 -133 -35.5 -195
c-8.66699 -28.667 -19.5 -55.667 -32.5 -81s-28.833 -47.666 -47.5 -66.999s-40.5 -35 -65.5 -47s-53.833 -18.667 -86.5 -20l-7 58c22.667 2.66699 42.834 8.16699 60.501 16.5s33.334 19.5 47.001 33.5s25.667 30.833 36 50.5s19.833 42.5 28.5 68.5
c17.333 54 28.833 115 34.5 183s8.5 144.333 8.5 229v62h361v-265z" />
    <glyph glyph-name="afii10059" unicode="&#x40a;" horiz-adv-x="1031" 
d="M707 370c-22 0 -42.1699 -0.833008 -60.5029 -2.5s-33.166 -3.16699 -44.499 -4.5v-303c12.667 -1.33301 27.667 -2.83301 45 -4.5s37.666 -2.5 60.999 -2.5c28.667 0 56.167 2.33301 82.5 7s49.333 13 69 25s35.334 28.333 47.001 49s17.5 47 17.5 79
c0 30.667 -5.66699 56.167 -17 76.5s-26.666 36.5 -45.999 48.5s-42.166 20.333 -68.499 25s-54.833 7 -85.5 7zM601.997 693l0.00195312 -271.002l21 2.5c8.66699 1 17.667 1.83301 27 2.5s18.666 1.16699 27.999 1.5s17.666 0.5 24.999 0.5
c97.333 0 170.333 -18.167 219 -54.5s73 -90.166 73 -161.499c0 -69.333 -23.333 -123.166 -70 -161.499s-120 -57.5 -220 -57.5c-26 0 -55 1.5 -87 4.5s-60 7.83301 -84 14.5v338h-376v-351h-68v693h68v-283h376v283h68z" />
    <glyph glyph-name="afii10060" unicode="&#x40b;" horiz-adv-x="729" 
d="M439 434c42 0 77.1689 -5.16895 105.502 -15.502s51.166 -25.166 68.499 -44.499s29.666 -42.666 36.999 -69.999s11 -58 11 -92v-212h-68v211c0 56 -12.167 97.167 -36.5 123.5s-65.5 39.5 -123.5 39.5c-16 0 -31.5 -0.833008 -46.5 -2.5s-28.667 -3.5 -41 -5.5
s-22.833 -4.16699 -31.5 -6.5s-15 -4.16602 -19 -5.49902v-354h-68v634h-209v59h523v-59h-246v-221c10 3.33301 28 7.66602 54 12.999s56 8 90 8z" />
    <glyph glyph-name="afii10061" unicode="&#x40c;" horiz-adv-x="599" 
d="M513 0c-22.667 34.667 -48.1689 68.999 -76.502 102.999s-58.166 66 -89.499 96s-63.166 57.333 -95.499 82s-63.5 45.334 -93.5 62.001v-343h-68v693h68v-323l84.5 78.5l92 89.5l85.5 86c26.667 27.333 48 50.333 64 69h82l-70 -73.5l-87 -87.5l-91.5 -88.5l-81.5 -76.5
c19.333 -12 40.166 -26.833 62.499 -44.5s45 -37 68 -58s45.667 -43 68 -66s43.333 -46.167 63 -69.5s37.334 -46 53.001 -68s28.5 -42.333 38.5 -61h-76zM439.998 877.999l-171 -139l-33 38l158 152z" />
    <glyph glyph-name="uni040D" unicode="&#x40d;" horiz-adv-x="709" 
d="M90 0l0.00195312 692.999h67v-564c20.667 36.667 47.167 79.667 79.5 129s67.166 99.833 104.499 151.5l114.5 152c39 49.667 75.5 93.5 109.5 131.5h54v-693h-67v584c-20 -22.667 -42 -49.667 -66 -81l-74.5 -100.5l-77.5 -110l-74 -110l-64.5 -100.5
c-19.667 -31.333 -35.834 -58.666 -48.501 -81.999h-57zM262.002 928.999l158 -152l-33 -38l-171 139z" />
    <glyph glyph-name="afii10062" unicode="&#x40e;" horiz-adv-x="551" 
d="M311 243c14 31.333 28.3369 65.501 43.0039 102.501s29 75.333 43 115s27.167 79.334 39.5 119.001s23.166 77.5 32.499 113.5h72c-13.333 -46 -26.833 -89.5 -40.5 -130.5s-27.667 -80.667 -42 -119s-29.166 -76 -44.499 -113l-48 -111.5l-35 -76
c-12.667 -26.667 -28.334 -51.167 -47.001 -73.5s-41.5 -40.666 -68.5 -54.999s-60.167 -21.5 -99.5 -21.5c-17.333 0 -32.5 1.83301 -45.5 5.5s-22.5 7.16699 -28.5 10.5l13 56c4.66699 -2.66699 12.334 -5.83398 23.001 -9.50098s24.667 -5.5 42 -5.5
c22.667 0 42.5 3.5 59.5 10.5s31.667 16.167 44 27.5s23.166 24.666 32.499 39.999s17.666 31.333 24.999 48c-30.667 46.667 -59.167 93.667 -85.5 141s-50.333 93.333 -72 138s-41.334 87.167 -59.001 127.5s-33.167 77.166 -46.5 110.499h76
c22.667 -61.333 52.167 -131.333 88.5 -210s79.166 -158.667 128.499 -240zM288.004 761.001c-37.333 0 -68 10.333 -92 31s-39.333 50 -46 88l53 14c4 -22.667 12.833 -41.167 26.5 -55.5s33.167 -21.5 58.5 -21.5s44.833 7.16699 58.5 21.5s22.5 32.833 26.5 55.5l53 -14
c-6.66699 -38 -22 -67.333 -46 -88s-54.667 -31 -92 -31z" />
    <glyph glyph-name="afii10145" unicode="&#x40f;" horiz-adv-x="685" 
d="M375 0v-185h-65v185h-220v693h68v-634h369v634h68v-693h-220z" />
    <glyph glyph-name="afii10017" unicode="&#x410;" horiz-adv-x="641" 
d="M556 0l-36 98l-33 92h-337l-34 -92l-35 -98h-71l75 201.5l68.5 177l66.5 160.5c22 51.333 45.333 102.666 70 153.999h60c24.667 -51.333 48 -102.666 70 -153.999l66.5 -160.5l68.5 -177l76 -201.5h-75zM318 615c-25.333 -57.333 -49.833 -115.667 -73.5 -175
l-73.5 -192h295l-74 192z" />
    <glyph glyph-name="afii10018" unicode="&#x411;" horiz-adv-x="612" 
d="M158 366l0.00292969 -306c12.667 -1.33301 27.834 -2.83301 45.501 -4.5s39.167 -2.5 64.5 -2.5c30 0 58.667 2.33301 86 7s51.166 13 71.499 25s36.666 28 48.999 48s18.5 45.333 18.5 76c0 32 -5.83301 58.167 -17.5 78.5s-28.334 36.333 -50.001 48
s-47.834 19.667 -78.501 24s-65 6.5 -103 6.5h-86zM253.003 424c49.333 0 93.333 -3.99902 132 -11.999s71.167 -20.5 97.5 -37.5s46.5 -39.167 60.5 -66.5s21 -60 21 -98c0 -72.667 -25.333 -126.834 -76 -162.501s-125 -53.5 -223 -53.5c-28 0 -58.167 1.5 -90.5 4.5
s-60.5 7.83301 -84.5 14.5v680h412v-59h-344v-210h95z" />
    <glyph glyph-name="afii10019" unicode="&#x412;" horiz-adv-x="630" 
d="M256 -6c-11.333 0 -24.502 0.500977 -39.502 1.50098s-30.333 2.33301 -46 4s-30.5 3.66699 -44.5 6s-26 4.83301 -36 7.5v667c12 3.33301 25.333 6.16602 40 8.49902s29.834 4.33301 45.501 6s31 2.83398 46 3.50098s28.833 1 41.5 1c37.333 0 72.833 -3 106.5 -9
s63.167 -16 88.5 -30s45.5 -32.5 60.5 -55.5s22.5 -51.5 22.5 -85.5c0 -37.333 -9.5 -69.166 -28.5 -95.499s-44.5 -44.5 -76.5 -54.5c20 -4.66699 38.333 -11.334 55 -20.001s31.334 -19.834 44.001 -33.501s22.5 -30.334 29.5 -50.001s10.5 -43.167 10.5 -70.5
c0 -65.333 -26 -115.166 -78 -149.499s-132.333 -51.5 -241 -51.5zM157.998 332.001l-0.000976562 -273.002c10 -1.33301 25 -2.83301 45 -4.5s40.333 -2.5 61 -2.5c30.667 0 60.5 2 89.5 6s54.5 11.333 76.5 22s39.667 25.334 53 44.001s20 42.667 20 72
c0 26.667 -4.66699 48.834 -14 66.501s-22.666 31.667 -39.999 42s-38.5 17.5 -63.5 21.5s-52.833 6 -83.5 6h-144zM157.997 389.999l132 -0.000976562c24.667 0 48 1.83301 70 5.5s41.167 10.334 57.5 20.001s29.166 22.667 38.499 39s14 37.166 14 62.499
c0 22.667 -5 41.834 -15 57.501s-24.167 28.5 -42.5 38.5s-40.166 17.167 -65.499 21.5s-53.333 6.5 -84 6.5c-24.667 0 -45.5 -0.666992 -62.5 -2s-31.167 -3 -42.5 -5v-244z" />
    <glyph glyph-name="afii10020" unicode="&#x413;" horiz-adv-x="482" 
d="M464 693v-59h-306v-634h-68v693h374z" />
    <glyph glyph-name="afii10021" unicode="&#x414;" horiz-adv-x="681" 
d="M83 0v-185.001h-65v244h62c34 34 60.5 74.333 79.5 121s33.333 96.834 43 150.501s15.5 109.5 17.5 167.5s3 115.667 3 173v22h360v-634h65v-244h-65v185h-500zM290 633.999l-0.000976562 -8.00098c0 -46.667 -1.16699 -95.667 -3.5 -147
s-7.66602 -102.166 -15.999 -152.499s-21 -98.5 -38 -144.5s-40.167 -87 -69.5 -123h352v575h-225z" />
    <glyph glyph-name="afii10022" unicode="&#x415;" horiz-adv-x="555" 
d="M90 0v693h400v-59h-332v-241h296v-58h-296v-276h358v-59h-426z" />
    <glyph glyph-name="afii10024" unicode="&#x416;" horiz-adv-x="847" 
d="M22 0c16.667 30.667 36.5 62.666 59.5 95.999s47.833 66 74.5 98s53.834 62.833 81.501 92.5s54.5 56.167 80.5 79.5l-64 73.5l-78 90l-77.5 90l-61.5 73.5h79l52 -64l72 -85.5l78.5 -92l72.5 -83.5v325h64v-325l72.5 83.5l78.5 92l72 85.5l52 64h78l-61 -73.5l-77 -89.5
l-78 -89.5l-64 -73.5c26 -23.333 53 -49.833 81 -79.5s55.167 -60.667 81.5 -93s51.166 -65.166 74.499 -98.499s43.333 -65.333 60 -96h-76c-16.667 30 -37.5 61.833 -62.5 95.5s-51.167 66.167 -78.5 97.5s-54.5 60.333 -81.5 87s-50.833 48.334 -71.5 65.001v-345h-64
v345c-21.333 -16.667 -45.333 -38.334 -72 -65.001s-53.667 -55.667 -81 -87s-53.5 -63.833 -78.5 -97.5s-45.833 -65.5 -62.5 -95.5h-75z" />
    <glyph glyph-name="afii10025" unicode="&#x417;" horiz-adv-x="555" 
d="M238 649c-32 0 -61.998 -4 -89.998 -12s-51.667 -18.667 -71 -32l-24 57c17.333 11.333 42.666 21.833 75.999 31.5s70 14.5 110 14.5c34 0 65 -3.5 93 -10.5s52 -17.667 72 -32s35.667 -32.5 47 -54.5s17 -48 17 -78c0 -18 -3 -35.333 -9 -52s-14.667 -32 -26 -46
s-25.666 -26.167 -42.999 -36.5s-37.333 -17.833 -60 -22.5c22 -4 43.333 -10.667 64 -20s38.667 -21.5 54 -36.5s27.666 -33.333 36.999 -55s14 -46.834 14 -75.501c0 -37.333 -6.66699 -68.833 -20 -94.5s-31.833 -46.667 -55.5 -63s-52 -28.166 -85 -35.499
s-69.167 -11 -108.5 -11c-25.333 0 -48.666 1.66699 -69.999 5s-40.5 7.5 -57.5 12.5s-31.5 10 -43.5 15s-21.333 9.5 -28 13.5l22 59c6.66699 -4 15.667 -8.5 27 -13.5s24.5 -10 39.5 -15s31.833 -9.16699 50.5 -12.5s39 -5 61 -5c28.667 0 55 2.5 79 7.5
s44.667 13.333 62 25s30.833 26.667 40.5 45s14.5 40.833 14.5 67.5c0 30.667 -6 55.667 -18 75s-28.5 34.5 -49.5 45.5s-45.833 18.667 -74.5 23s-59.334 6.5 -92.001 6.5h-46v58h59c22 0 44.333 2.16699 67 6.5s43.167 11.5 61.5 21.5s33.333 23.667 45 41
s17.5 39 17.5 65c0 34 -13.333 62.167 -40 84.5s-66.334 33.5 -119.001 33.5z" />
    <glyph glyph-name="afii10026" unicode="&#x418;" horiz-adv-x="709" 
d="M90 0l0.00195312 692.999h67v-564c20.667 36.667 47.167 79.667 79.5 129s67.166 99.833 104.499 151.5l114.5 152c39 49.667 75.5 93.5 109.5 131.5h54v-693h-67v584c-20 -22.667 -42 -49.667 -66 -81l-74.5 -100.5l-77.5 -110l-74 -110l-64.5 -100.5
c-19.667 -31.333 -35.834 -58.666 -48.501 -81.999h-57z" />
    <glyph glyph-name="afii10027" unicode="&#x419;" horiz-adv-x="709" 
d="M90 0l0.00195312 692.999h67v-564c20.667 36.667 47.167 79.667 79.5 129s67.166 99.833 104.499 151.5l114.5 152c39 49.667 75.5 93.5 109.5 131.5h54v-693h-67v584c-20 -22.667 -42 -49.667 -66 -81l-74.5 -100.5l-77.5 -110l-74 -110l-64.5 -100.5
c-19.667 -31.333 -35.834 -58.666 -48.501 -81.999h-57zM354.002 760.999c-37.333 0 -68 10.333 -92 31s-39.333 50 -46 88l53 14c4 -22.667 12.833 -41.167 26.5 -55.5s33.167 -21.5 58.5 -21.5s44.833 7.16699 58.5 21.5s22.5 32.833 26.5 55.5l53 -14
c-6.66699 -38 -22 -67.333 -46 -88s-54.667 -31 -92 -31z" />
    <glyph glyph-name="afii10028" unicode="&#x41a;" horiz-adv-x="599" 
d="M513 0c-22.667 34.667 -48.1689 68.999 -76.502 102.999s-58.166 66 -89.499 96s-63.166 57.333 -95.499 82s-63.5 45.334 -93.5 62.001v-343h-68v693h68v-323l84.5 78.5l92 89.5l85.5 86c26.667 27.333 48 50.333 64 69h82l-70 -73.5l-87 -87.5l-91.5 -88.5l-81.5 -76.5
c19.333 -12 40.166 -26.833 62.499 -44.5s45 -37 68 -58s45.667 -43 68 -66s43.333 -46.167 63 -69.5s37.334 -46 53.001 -68s28.5 -42.333 38.5 -61h-76z" />
    <glyph glyph-name="afii10029" unicode="&#x41b;" horiz-adv-x="680" 
d="M296 634l-0.00195312 -20.001c0 -73.333 -2.5 -144 -7.5 -212s-16.833 -133 -35.5 -195c-8.66699 -28.667 -19.5 -55.667 -32.5 -81s-28.833 -47.666 -47.5 -66.999s-40.5 -35 -65.5 -47s-53.833 -18.667 -86.5 -20l-7 58c22.667 2.66699 42.834 8.16699 60.501 16.5
s33.334 19.5 47.001 33.5s25.667 30.833 36 50.5s19.833 42.5 28.5 68.5c17.333 54 28.833 115 34.5 183s8.5 144.333 8.5 229v62h361v-693h-68v634h-226z" />
    <glyph glyph-name="afii10030" unicode="&#x41c;" horiz-adv-x="865" 
d="M401 100c-6.66699 16.667 -16.1689 38.667 -28.502 66l-41.5 89.5l-47 100l-46 96.5l-39 79c-11.333 22.667 -19.666 38.667 -24.999 48c-8.66699 -83.333 -15.5 -173.833 -20.5 -271.5s-9.5 -200.167 -13.5 -307.5h-67c6 126 12.833 246.667 20.5 362
s17.167 225.666 28.5 330.999h60c20 -33.333 41.333 -71.833 64 -115.5l67.5 -136l65 -139l55.5 -123.5l55.5 123.5l65 139l67.5 136c22.667 43.667 44 82.167 64 115.5h57c11.333 -105.333 20.833 -215.666 28.5 -330.999s14.5 -236 20.5 -362h-69
c-4 107.333 -8.5 209.833 -13.5 307.5s-11.833 188.167 -20.5 271.5c-5.33301 -9.33301 -13.666 -25.333 -24.999 -48l-39 -79l-46 -96.5l-47 -100l-41.5 -89.5c-12.333 -27.333 -21.833 -49.333 -28.5 -66h-61z" />
    <glyph glyph-name="afii10031" unicode="&#x41d;" horiz-adv-x="692" 
d="M534 693h68v-693h-68v333h-376v-333h-68v693h68v-301h376v301z" />
    <glyph glyph-name="afii10032" unicode="&#x41e;" horiz-adv-x="774" 
d="M712 347c0 -59.333 -8.66699 -111.666 -26 -156.999s-40.833 -83.166 -70.5 -113.499s-64.167 -53.166 -103.5 -68.499s-81 -23 -125 -23s-85.667 7.66699 -125 23s-73.833 38.166 -103.5 68.499s-53.167 68.166 -70.5 113.499s-26 97.666 -26 156.999
s8.66699 111.5 26 156.5s40.833 82.667 70.5 113s64.167 53.166 103.5 68.499s81 23 125 23s85.667 -7.66699 125 -23s73.833 -38.166 103.5 -68.499s53.167 -68 70.5 -113s26 -97.167 26 -156.5zM640 347c0 46.667 -6 88.5 -18 125.5s-29 68.5 -51 94.5
s-48.5 45.833 -79.5 59.5s-65.833 20.5 -104.5 20.5s-73.5 -6.83301 -104.5 -20.5s-57.5 -33.5 -79.5 -59.5s-39 -57.5 -51 -94.5s-18 -78.833 -18 -125.5s6 -88.5 18 -125.5s29 -68.5 51 -94.5s48.5 -46 79.5 -60s65.833 -21 104.5 -21s73.5 7 104.5 21s57.5 34 79.5 60
s39 57.5 51 94.5s18 78.833 18 125.5z" />
    <glyph glyph-name="afii10033" unicode="&#x41f;" horiz-adv-x="685" 
d="M595 693v-693h-68v634h-369v-634h-68v693h505z" />
    <glyph glyph-name="afii10034" unicode="&#x420;" horiz-adv-x="592" 
d="M265 699c98 0 171 -18.667 219 -56s72 -90.333 72 -159c0 -39.333 -7 -72.833 -21 -100.5s-34 -50 -60 -67s-57.833 -29.333 -95.5 -37s-80.167 -11.5 -127.5 -11.5h-94v-268h-68v680c24 6.66699 52.167 11.5 84.5 14.5s62.5 4.5 90.5 4.5zM268 640
c-25.333 0 -46.834 -0.834961 -64.501 -2.50195s-32.834 -3.16699 -45.501 -4.5v-306h86c36.667 0 69.834 2.16699 99.501 6.5s55 12.333 76 24s37.167 27.834 48.5 48.501s17 47 17 79c0 30.667 -6.16699 56 -18.5 76s-28.666 35.833 -48.999 47.5
s-43.5 19.834 -69.5 24.501s-52.667 7 -80 7z" />
    <glyph glyph-name="afii10035" unicode="&#x421;" horiz-adv-x="609" 
d="M378 -15c-44.667 0 -86.1699 8.00098 -124.503 24.001s-71.666 39.333 -99.999 70s-50.666 68.5 -66.999 113.5s-24.5 96.5 -24.5 154.5s8.83301 109.5 26.5 154.5s41.167 82.833 70.5 113.5s63.333 53.834 102 69.501s79 23.5 121 23.5c26 0 49.667 -1.66699 71 -5
s40 -7.5 56 -12.5s29.667 -10 41 -15s20 -9.5 26 -13.5l-22 -59c-16.667 10 -37.834 19.833 -63.501 29.5s-57.5 14.5 -95.5 14.5c-43.333 0 -81.166 -7.33301 -113.499 -22s-59.5 -35.334 -81.5 -62.001s-38.5 -58.334 -49.5 -95.001s-16.5 -77.334 -16.5 -122.001
c0 -46 5.5 -87.5 16.5 -124.5s27.167 -68.5 48.5 -94.5s47.5 -46 78.5 -60s66.5 -21 106.5 -21c44 0 80.833 4.16699 110.5 12.5s52.167 16.833 67.5 25.5l19 -58c-4.66699 -3.33301 -12.667 -7.16602 -24 -11.499s-25.666 -8.83301 -42.999 -13.5s-37.333 -8.5 -60 -11.5
s-48 -4.5 -76 -4.5z" />
    <glyph glyph-name="afii10036" unicode="&#x422;" horiz-adv-x="548" 
d="M530 693v-59h-222v-634h-68v634h-222v59h512z" />
    <glyph glyph-name="afii10037" unicode="&#x423;" horiz-adv-x="551" 
d="M311 243c14 31.333 28.3369 65.501 43.0039 102.501s29 75.333 43 115s27.167 79.334 39.5 119.001s23.166 77.5 32.499 113.5h72c-13.333 -46 -26.833 -89.5 -40.5 -130.5s-27.667 -80.667 -42 -119s-29.166 -76 -44.499 -113l-48 -111.5l-35 -76
c-12.667 -26.667 -28.334 -51.167 -47.001 -73.5s-41.5 -40.666 -68.5 -54.999s-60.167 -21.5 -99.5 -21.5c-17.333 0 -32.5 1.83301 -45.5 5.5s-22.5 7.16699 -28.5 10.5l13 56c4.66699 -2.66699 12.334 -5.83398 23.001 -9.50098s24.667 -5.5 42 -5.5
c22.667 0 42.5 3.5 59.5 10.5s31.667 16.167 44 27.5s23.166 24.666 32.499 39.999s17.666 31.333 24.999 48c-30.667 46.667 -59.167 93.667 -85.5 141s-50.333 93.333 -72 138s-41.334 87.167 -59.001 127.5s-33.167 77.166 -46.5 110.499h76
c22.667 -61.333 52.167 -131.333 88.5 -210s79.166 -158.667 128.499 -240z" />
    <glyph glyph-name="afii10038" unicode="&#x424;" horiz-adv-x="860" 
d="M463 142c36 0 70 4.5 102 13.5s59.833 22.833 83.5 41.5s42.5 42.5 56.5 71.5s21 63.167 21 102.5s-7 73.5 -21 102.5s-32.833 52.833 -56.5 71.5s-51.5 32.5 -83.5 41.5s-66 13.5 -102 13.5v-458zM397 86c-38 0 -76.833 5.16699 -116.5 15.5s-75.667 26.833 -108 49.5
s-58.833 52.167 -79.5 88.5s-31 80.166 -31 131.499s10.333 95.166 31 131.499s47.167 65.833 79.5 88.5s68.333 39.167 108 49.5s78.5 15.5 116.5 15.5v82h66v-82c38 0 76.833 -5.16699 116.5 -15.5s75.667 -26.833 108 -49.5s58.833 -52.167 79.5 -88.5
s31 -80.166 31 -131.499s-10.333 -95.166 -31 -131.499s-47.167 -65.833 -79.5 -88.5s-68.333 -39.167 -108 -49.5s-78.5 -15.5 -116.5 -15.5v-86h-66v86zM397 600c-36 0 -70 -4.5 -102 -13.5s-59.833 -22.833 -83.5 -41.5s-42.5 -42.5 -56.5 -71.5s-21 -63.167 -21 -102.5
s7 -73.5 21 -102.5s32.833 -52.833 56.5 -71.5s51.5 -32.5 83.5 -41.5s66 -13.5 102 -13.5v458z" />
    <glyph glyph-name="afii10039" unicode="&#x425;" horiz-adv-x="608" 
d="M490 693l76 0.000976562l-223 -325l127 -184.5c41.333 -61.667 77.333 -122.834 108 -183.501h-74c-10 20 -22.833 43 -38.5 69l-51 82l-57 86l-56.5 81l-56.5 -81l-57 -86l-51 -82c-15.667 -26 -28.5 -49 -38.5 -69h-71c30.667 60.667 66.667 121.667 108 183l126 183
l-223 327h78l187 -279z" />
    <glyph glyph-name="afii10040" unicode="&#x426;" horiz-adv-x="693" 
d="M595 0h-505v693h68v-634h369v634h68v-634h65v-244h-65v185z" />
    <glyph glyph-name="afii10041" unicode="&#x427;" horiz-adv-x="609" 
d="M136 693l-0.00195312 -194.001c0 -30 2 -56.667 6 -80s12 -43 24 -59s29.333 -28 52 -36s52.667 -12 90 -12c16.667 0 32.667 0.833008 48 2.5s29.5 3.5 42.5 5.5s24 4.16699 33 6.5s15.5 4.16602 19.5 5.49902v361h68v-693h-68v273
c-10 -3.33301 -28.5 -7.66602 -55.5 -12.999s-58.167 -8 -93.5 -8c-55.333 0 -98.666 6.66699 -129.999 20s-54.666 31.333 -69.999 54s-24.833 48.834 -28.5 78.501s-5.5 61.167 -5.5 94.5v194h68z" />
    <glyph glyph-name="afii10042" unicode="&#x428;" horiz-adv-x="966" 
d="M876 0h-786v693h68v-634h291v634h68v-634h291v634h68v-693z" />
    <glyph glyph-name="afii10043" unicode="&#x429;" horiz-adv-x="974" 
d="M876 0h-786v693h68v-634h291v634h68v-634h291v634h68v-634h65v-244h-65v185z" />
    <glyph glyph-name="afii10044" unicode="&#x42a;" horiz-adv-x="707" 
d="M378 375c-24 0 -45.334 -0.667969 -64.001 -2.00098s-33.667 -2.66602 -45 -3.99902v-309c12.667 -1.33301 27.834 -2.83301 45.501 -4.5s39.167 -2.5 64.5 -2.5c30 0 58.5 2.33301 85.5 7s50.5 13 70.5 25s35.833 28.5 47.5 49.5s17.5 47.833 17.5 80.5
c0 31.333 -5.5 57.333 -16.5 78s-26.333 37 -46 49s-43.167 20.5 -70.5 25.5s-57 7.5 -89 7.5zM268.999 692.999v-264.998c11.333 1.33301 27.5 2.66602 48.5 3.99902s39.833 2 56.5 2c100 0 174.5 -18.333 223.5 -55s73.5 -91.334 73.5 -164.001
c0 -70 -23.5 -124.333 -70.5 -163s-121.833 -58 -224.5 -58c-28 0 -58.167 1.5 -90.5 4.5s-60.5 7.83301 -84.5 14.5v621h-183v59h251z" />
    <glyph glyph-name="afii10045" unicode="&#x42b;" horiz-adv-x="822" 
d="M664 693h68v-693h-68v693zM263 375c-22 0 -42.1699 -0.667969 -60.5029 -2.00098s-33.166 -2.66602 -44.499 -3.99902v-309c12.667 -1.33301 27.667 -2.83301 45 -4.5s37.666 -2.5 60.999 -2.5c28.667 0 56.167 2.33301 82.5 7s49.333 13 69 25s35.334 28.5 47.001 49.5
s17.5 47.833 17.5 80.5c0 31.333 -5.66699 57.333 -17 78s-26.666 37 -45.999 49s-42.166 20.5 -68.499 25.5s-54.833 7.5 -85.5 7.5zM258.997 433.999c97.333 0 170.335 -18.333 219.002 -55s73 -91.334 73 -164.001c0 -70 -23.5 -124.333 -70.5 -163
s-120.167 -58 -219.5 -58c-26 0 -55 1.5 -87 4.5s-60 7.83301 -84 14.5v680h68v-265c5.33301 0.666992 12.333 1.33398 21 2.00098l27 2c9.33301 0.666992 18.666 1.16699 27.999 1.5s17.666 0.5 24.999 0.5z" />
    <glyph glyph-name="afii10046" unicode="&#x42c;" horiz-adv-x="596" 
d="M267 375c-24 0 -45.334 -0.667969 -64.001 -2.00098s-33.667 -2.66602 -45 -3.99902v-309c12.667 -1.33301 27.834 -2.83301 45.501 -4.5s39.167 -2.5 64.5 -2.5c30 0 58.5 2.33301 85.5 7s50.5 13 70.5 25s35.833 28.5 47.5 49.5s17.5 47.833 17.5 80.5
c0 31.333 -5.5 57.333 -16.5 78s-26.333 37 -46 49s-43.167 20.5 -70.5 25.5s-57 7.5 -89 7.5zM262.999 433.999c100 0 174.5 -18.3311 223.5 -54.998s73.5 -91.334 73.5 -164.001c0 -70 -23.5 -124.333 -70.5 -163s-121.833 -58 -224.5 -58c-28 0 -58.167 1.5 -90.5 4.5
s-60.5 7.83301 -84.5 14.5v680h68v-265c11.333 1.33301 27.5 2.66602 48.5 3.99902s39.833 2 56.5 2z" />
    <glyph glyph-name="afii10047" unicode="&#x42d;" horiz-adv-x="604" 
d="M213 46c42.667 0 79.668 6.83398 111.001 20.501s57.5 32.667 78.5 57s37 53.666 48 87.999s17.167 72.5 18.5 114.5h-313v58h312c-2.66699 40 -10.167 76.333 -22.5 109s-29 60.334 -50 83.001s-46.167 40.167 -75.5 52.5s-62.666 18.5 -99.999 18.5
c-41.333 0 -76.333 -4.16699 -105 -12.5s-50.667 -16.833 -66 -25.5l-18 57c5.33301 3.33301 13.666 7.5 24.999 12.5s25.5 9.66699 42.5 14s36.333 8 58 11s45.5 4.5 71.5 4.5c44.667 0 86.167 -8 124.5 -24s71.5 -39.333 99.5 -70s50 -68.5 66 -113.5s24 -96.5 24 -154.5
s-8 -109.5 -24 -154.5s-38.167 -82.833 -66.5 -113.5s-62.333 -53.834 -102 -69.501s-83.167 -23.5 -130.5 -23.5c-23.333 0 -45.166 1.5 -65.499 4.5s-38.833 6.66699 -55.5 11s-30.834 8.83301 -42.501 13.5s-20.5 8.66699 -26.5 12l19 58
c15.333 -8.66699 36.666 -17.167 63.999 -25.5s61 -12.5 101 -12.5z" />
    <glyph glyph-name="afii10048" unicode="&#x42e;" horiz-adv-x="1012" 
d="M638 708c42 0 81.8301 -7.66895 119.497 -23.002s70.834 -38.166 99.501 -68.499s51.334 -68 68.001 -113s25 -97.167 25 -156.5s-8.33301 -111.666 -25 -156.999s-39.334 -83.166 -68.001 -113.499s-61.834 -53.166 -99.501 -68.499s-77.5 -23 -119.5 -23
c-41.333 0 -80.5 7.33301 -117.5 22s-69.667 36.667 -98 66s-51.166 65.666 -68.499 108.999s-26.666 93.666 -27.999 150.999h-168v-333h-68v693h68v-301h170c4 52 15.167 97.667 33.5 137s41.333 72.333 69 99s59.334 46.667 95.001 60s73.167 20 112.5 20z
M637.997 45.998c36.667 0 69.834 7 99.501 21s55 34 76 60s37 57.5 48 94.5s16.5 78.833 16.5 125.5s-5.5 88.5 -16.5 125.5s-27 68.5 -48 94.5s-46.333 45.833 -76 59.5s-62.834 20.5 -99.501 20.5c-37.333 0 -70.666 -6.83301 -99.999 -20.5s-54.5 -33.5 -75.5 -59.5
s-37 -57.5 -48 -94.5s-16.5 -78.833 -16.5 -125.5s5.5 -88.5 16.5 -125.5s27 -68.5 48 -94.5s46.167 -46 75.5 -60s62.666 -21 99.999 -21z" />
    <glyph glyph-name="afii10049" unicode="&#x42f;" horiz-adv-x="614" 
d="M456 633c-12.667 1.33301 -28.501 2.83496 -47.501 4.50195s-41.167 2.5 -66.5 2.5c-27.333 0 -53.833 -2.33301 -79.5 -7s-48.5 -12.834 -68.5 -24.501s-36 -27.334 -48 -47.001s-18 -44.5 -18 -74.5c0 -32.667 5.83301 -58.834 17.5 -78.501s27.834 -34.667 48.501 -45
s45.5 -17.166 74.5 -20.499s60.5 -5 94.5 -5h93v295zM523.999 0.00195312l-68 0.00195312v280h-110c-10 0 -22 0.333008 -36 1s-26 1.66699 -36 3c-12 -16 -25.167 -35 -39.5 -57s-28.666 -45.5 -42.999 -70.5s-28.333 -50.833 -42 -77.5s-26.5 -53 -38.5 -79h-72
c10.667 25.333 23.667 52.5 39 81.5s31 57.167 47 84.5l45.5 74.5l34.5 52.5c-12.667 3.33301 -27.5 8.66602 -44.5 15.999s-33.167 18.166 -48.5 32.499s-28.333 32.833 -39 55.5s-16 51.667 -16 87c0 70 26 123.333 78 160s123.667 55 215 55
c27.333 0 57.166 -1.5 89.499 -4.5s60.5 -7.83301 84.5 -14.5v-680z" />
    <glyph glyph-name="afii10065" unicode="&#x430;" horiz-adv-x="509" 
d="M249 47c25.333 0 47.5 0.831055 66.5 2.49805s35.167 3.83398 48.5 6.50098v182c-7.33301 3.33301 -19 6.83301 -35 10.5s-38 5.5 -66 5.5c-16 0 -32.667 -1.16699 -50 -3.5s-33.333 -7.33301 -48 -15s-26.667 -18.167 -36 -31.5s-14 -31 -14 -53
c0 -19.333 3.16699 -35.666 9.5 -48.999s15.333 -24 27 -32s25.667 -13.833 42 -17.5s34.833 -5.5 55.5 -5.5zM243 528.998c34 0 62.834 -4.83203 86.501 -14.499s42.834 -23 57.501 -40s25.334 -37.167 32.001 -60.5s10 -48.666 10 -75.999v-326
c-6.66699 -2 -16.334 -4.16699 -29.001 -6.5s-27.334 -4.83301 -44.001 -7.5s-35.167 -4.83398 -55.5 -6.50098s-41.166 -2.5 -62.499 -2.5c-27.333 0 -52.5 3 -75.5 9s-43 15.5 -60 28.5s-30.333 29.667 -40 50s-14.5 45.166 -14.5 74.499c0 28 5.33301 52 16 72
s25.667 36.5 45 49.5s42.333 22.5 69 28.5s55.667 9 87 9c9.33301 0 19.166 -0.5 29.499 -1.5s20.333 -2.33301 30 -4s18 -3.33398 25 -5.00098s11.833 -3.16699 14.5 -4.5v32c0 18 -1.33301 35.5 -4 52.5s-8.5 32.333 -17.5 46s-21.667 24.667 -38 33
s-37.833 12.5 -64.5 12.5c-38 0 -66.333 -2.66699 -85 -8s-32.334 -9.66602 -41.001 -12.999l-9 57c11.333 5.33301 28.833 10.333 52.5 15s52.167 7 85.5 7z" />
    <glyph glyph-name="afii10066" unicode="&#x431;" horiz-adv-x="583" 
d="M136 439c10.667 12 23.002 22.6699 37.002 32.0029s28.667 17 44 23s30.5 10.5 45.5 13.5s28.833 4.5 41.5 4.5c38.667 0 72.167 -6.16699 100.5 -18.5s51.666 -30 69.999 -53s31.833 -50.5 40.5 -82.5s13 -67.667 13 -107c0 -29.333 -3.66699 -59.666 -11 -90.999
s-19.833 -59.666 -37.5 -84.999s-41.334 -46.166 -71.001 -62.499s-66.834 -24.5 -111.501 -24.5c-48 0 -87.333 9.5 -118 28.5s-54.5 44 -71.5 75s-28.667 66 -35 105s-9.5 78.5 -9.5 118.5c0 54.667 3.33301 107 10 157s20.5 94.667 41.5 134s51.333 72.166 91 98.499
s92.834 43.5 159.501 51.5c20 2 36.667 4 50 6l33.5 5c9 1.33301 16.5 2.83301 22.5 4.5s11.667 3.16699 17 4.5l8 -59c-6.66699 -2.66699 -18 -5.33398 -34 -8.00098s-42.667 -6 -80 -10c-40 -4.66699 -74.667 -12.834 -104 -24.501s-53.833 -27.834 -73.5 -48.501
s-35 -46.334 -46 -77.001s-18.5 -67.334 -22.5 -110.001zM132.002 366.003c-0.666992 -5.33301 -0.998047 -14 -0.998047 -26v-33c0 -32 2.16699 -63.667 6.5 -95s12.666 -59.166 24.999 -83.499s29.333 -44 51 -59s49.5 -22.5 83.5 -22.5c29.333 0 54.166 5.5 74.499 16.5
s37 26 50 45s22.5 40.833 28.5 65.5s9 50.667 9 78c0 26 -2.33301 51.167 -7 75.5s-13.167 45.666 -25.5 63.999s-29.5 33.166 -51.5 44.499s-50.333 17 -85 17c-16 0 -32.167 -2.5 -48.5 -7.5s-31.5 -11.667 -45.5 -20s-26.667 -17.666 -38 -27.999s-20 -20.833 -26 -31.5z
" />
    <glyph glyph-name="afii10067" unicode="&#x432;" horiz-adv-x="546" 
d="M253 528c20 0 42.5 -1.16699 67.5 -3.5s48.5 -8 70.5 -17s40.5 -23 55.5 -42s22.5 -44.833 22.5 -77.5c0 -25.333 -7.33301 -47.833 -22 -67.5s-34.667 -34.167 -60 -43.5c37.333 -10 64.333 -26 81 -48s25 -49 25 -81c0 -34.667 -7 -62.5 -21 -83.5s-32.5 -37 -55.5 -48
s-49 -18.167 -78 -21.5s-58.5 -5 -88.5 -5c-36 0 -67.5 2.33301 -94.5 7s-50.167 9.66699 -69.5 15v494c16.667 5.33301 38.667 10.333 66 15s61 7 101 7zM151 300h118c40 0 72.333 6.66699 97 20s37 35.666 37 66.999c0 20 -4.33301 35.667 -13 47s-20 19.833 -34 25.5
s-30 9.33398 -48 11.001s-36 2.5 -54 2.5c-22 0 -43 -1.16699 -63 -3.5s-33.333 -4.5 -40 -6.5v-163zM151 246l-0.000976562 -190.001c3.33301 -1.33301 8.83301 -2.5 16.5 -3.5s16.334 -2 26.001 -3s20 -1.83301 31 -2.5s21.5 -1 31.5 -1c22.667 0 44.334 1.33301 65.001 4
s38.667 7.83398 54 15.501s27.666 18 36.999 31s14 30.167 14 51.5c0 18.667 -3.83301 34.334 -11.5 47.001s-18.334 22.667 -32.001 30s-29.667 12.666 -48 15.999s-38.166 5 -59.499 5h-124z" />
    <glyph glyph-name="afii10068" unicode="&#x433;" horiz-adv-x="397" 
d="M382 462h-231v-462h-65v517h296v-55z" />
    <glyph glyph-name="afii10069" unicode="&#x434;" horiz-adv-x="574" 
d="M484 55h59v-198h-63v143h-402v-143h-63v198h53c22 34.667 39.5 68 52.5 100s23 64.667 30 98s11.667 68.5 14 105.5s3.5 77.5 3.5 121.5v37h316v-462zM229 462c0 -36 -1.16699 -71.333 -3.5 -106s-6.83301 -69 -13.5 -103s-16 -67.5 -28 -100.5s-27.667 -65.5 -47 -97.5
h282v407h-190z" />
    <glyph glyph-name="afii10070" unicode="&#x435;" horiz-adv-x="548" 
d="M55 259c0 45.333 6.50098 84.8291 19.501 118.496s30 61.834 51 84.501s45 39.5 72 50.5s54.833 16.5 83.5 16.5c63.333 0 113.833 -20.667 151.5 -62s56.5 -105 56.5 -191c0 -5.33301 -0.166992 -10.666 -0.5 -15.999s-0.833008 -10.333 -1.5 -15h-363
c2 -63.333 17.667 -112 47 -146s76 -51 140 -51c35.333 0 63.333 3.33301 84 10s35.667 12.334 45 17.001l12 -56c-9.33301 -5.33301 -26.833 -11.666 -52.5 -18.999s-55.834 -11 -90.501 -11c-45.333 0 -84 6.66699 -116 20s-58.333 32 -79 56s-35.667 52.5 -45 85.5
s-14 69.167 -14 108.5zM422.001 299.996c-1.33301 54 -14 96.002 -38 126.002s-58 45 -102 45c-23.333 0 -44.166 -4.66699 -62.499 -14s-34.333 -21.833 -48 -37.5s-24.334 -33.834 -32.001 -54.501s-12.167 -42.334 -13.5 -65.001h296z" />
    <glyph glyph-name="afii10072" unicode="&#x436;" horiz-adv-x="727" 
d="M679 517l-49.4961 -58l-56 -64l-56 -63l-50.5 -56c22.667 -16.667 45.667 -36.167 69 -58.5s45.666 -45.833 66.999 -70.5s41 -49.667 59 -75s33.667 -49.333 47 -72h-73c-15.333 24 -33.333 49.167 -54 75.5s-42 51.333 -64 75s-43.833 45 -65.5 64
s-40.834 32.833 -57.501 41.5v-256h-64v256c-16.667 -8.66699 -35.834 -22.5 -57.501 -41.5s-43.5 -40.333 -65.5 -64s-43.5 -48.667 -64.5 -75s-38.833 -51.5 -53.5 -75.5h-72c12.667 22.667 28.167 46.667 46.5 72s38.166 50.333 59.499 75s43.5 48 66.5 70
s45.833 41.333 68.5 58l-50.5 56l-56 63.5l-56.5 64l-50 58.5h75l94 -111l116 -130v241h64v-241l116 130l94 111h74z" />
    <glyph glyph-name="afii10073" unicode="&#x437;" horiz-adv-x="477" 
d="M206 47c46.667 0 83.335 7.83301 110.002 23.5s40 39.167 40 70.5c0 22.667 -5 40.667 -15 54s-22.5 23.666 -37.5 30.999s-31 12.166 -48 14.499s-32.5 3.5 -46.5 3.5h-72v55h67c12 0 25.833 1 41.5 3s30.167 6 43.5 12s24.666 14.5 33.999 25.5s14 25.5 14 43.5
c0 17.333 -3.83301 31.666 -11.5 42.999s-17.834 20.333 -30.501 27s-27.167 11.334 -43.5 14.001s-32.833 4 -49.5 4c-38 0 -68 -3.83301 -90 -11.5s-37 -13.5 -45 -17.5l-15 58c9.33301 4.66699 27 10.5 53 17.5s58.333 10.5 97 10.5c66 0 116 -12 150 -36
s51 -59.667 51 -107c0 -29.333 -8.66699 -53.166 -26 -71.499s-37.666 -31.166 -60.999 -38.499c32.667 -9.33301 58.667 -25 78 -47s29 -51 29 -87c0 -51.333 -18.333 -89.666 -55 -114.999s-90.334 -38 -161.001 -38c-47.333 0 -85.333 4 -114 12s-47 14 -55 18l17 59
c2 -1.33301 6.5 -3.5 13.5 -6.5s16.833 -6.33301 29.5 -10s28 -6.83398 46 -9.50098s38.667 -4 62 -4z" />
    <glyph glyph-name="afii10074" unicode="&#x438;" horiz-adv-x="588" 
d="M438 434c-20 -24 -43.168 -54.334 -69.501 -91.001l-80 -116l-77.5 -121l-64 -106h-61v517h64v-414c16 28.667 35.833 61.834 59.5 99.501s48.834 75.667 75.501 114l80.5 110.5c27 35.333 52.167 65.333 75.5 90h61v-517h-64v434z" />
    <glyph glyph-name="afii10075" unicode="&#x439;" horiz-adv-x="588" 
d="M438 434c-20 -24 -43.168 -54.334 -69.501 -91.001l-80 -116l-77.5 -121l-64 -106h-61v517h64v-414c16 28.667 35.833 61.834 59.5 99.501s48.834 75.667 75.501 114l80.5 110.5c27 35.333 52.167 65.333 75.5 90h61v-517h-64v434zM293.999 604.999
c-37.333 0 -68 10.333 -92 31s-39.333 50 -46 88l53 14c4 -22.667 12.833 -41.167 26.5 -55.5s33.167 -21.5 58.5 -21.5s44.833 7.16699 58.5 21.5s22.5 32.833 26.5 55.5l53 -14c-6.66699 -38 -22 -67.333 -46 -88s-54.667 -31 -92 -31z" />
    <glyph glyph-name="afii10076" unicode="&#x43a;" horiz-adv-x="506" 
d="M86 0l0.000976562 517h65v-239l62.5 60.5l67.5 67l61.5 63l45.5 48.5h78c-15.333 -17.333 -33.666 -36.833 -54.999 -58.5l-65.5 -65.5l-65 -64l-55.5 -53c22.667 -14.667 46.667 -32.834 72 -54.501s49.833 -45 73.5 -70s45.667 -50.667 66 -77
s37.5 -51.166 51.5 -74.499h-77c-16 24.667 -34.833 49.667 -56.5 75s-44.334 49.5 -68.001 72.5s-47.334 43.833 -71.001 62.5s-45.167 33.667 -64.5 45v-255h-65z" />
    <glyph glyph-name="afii10077" unicode="&#x43b;" horiz-adv-x="580" 
d="M239 462l0.00292969 -21.001c0 -20 -0.333008 -41.833 -1 -65.5s-2 -47.834 -4 -72.501s-5.16699 -49.167 -9.5 -73.5s-9.83301 -47.166 -16.5 -68.499c-7.33301 -22 -16.5 -42.833 -27.5 -62.5s-24 -37 -39 -52s-32.333 -27.333 -52 -37
s-41.834 -15.834 -66.501 -18.501l-9 54c33.333 7.33301 60.166 21 80.499 41s37.166 48.333 50.499 85s21.833 78.834 25.5 126.501s5.5 99.834 5.5 156.501v63h318v-517h-65v462h-190z" />
    <glyph glyph-name="afii10078" unicode="&#x43c;" horiz-adv-x="723" 
d="M331 72c-4 10 -10 23.833 -18 41.5l-26.5 59l-31.5 69l-33.5 70.5l-31.5 64c-10 20 -18.667 36.333 -26 49c-8.66699 -76.667 -15 -149.5 -19 -218.5s-7.33301 -137.833 -10 -206.5h-61c2.66699 86 7.16699 172.667 13.5 260s14.5 173 24.5 257h67
c8.66699 -14 19.834 -34 33.501 -60l45 -88.5l51 -107l53.5 -116.5l53.5 116.5l51 107l44.5 88.5c13.333 26 24.666 46 33.999 60h66c10 -84 18.167 -169.667 24.5 -257s10.833 -174 13.5 -260h-62c-2.66699 68.667 -6 137.5 -10 206.5s-10.333 141.833 -19 218.5l-26 -49.5
l-31.5 -63.5l-33.5 -70.5l-31.5 -69l-26.5 -59c-8 -17.667 -14 -31.5 -18 -41.5h-60z" />
    <glyph glyph-name="afii10079" unicode="&#x43d;" horiz-adv-x="583" 
d="M497 0h-65v241h-281v-241h-65v517h65v-221h281v221h65v-517z" />
    <glyph glyph-name="afii10080" unicode="&#x43e;" horiz-adv-x="582" 
d="M527 258c0 -40.667 -5.83301 -77.667 -17.5 -111s-28 -61.666 -49 -84.999s-45.833 -41.5 -74.5 -54.5s-60.334 -19.5 -95.001 -19.5s-66.334 6.5 -95.001 19.5s-53.5 31.167 -74.5 54.5s-37.333 51.666 -49 84.999s-17.5 70.333 -17.5 111s5.83301 77.667 17.5 111
s28 61.833 49 85.5s45.833 42 74.5 55s60.334 19.5 95.001 19.5s66.334 -6.5 95.001 -19.5s53.5 -31.333 74.5 -55s37.333 -52.167 49 -85.5s17.5 -70.333 17.5 -111zM458 258c0 64.667 -15 116.167 -45 154.5s-70.667 57.5 -122 57.5s-92 -19.167 -122 -57.5
s-45 -89.833 -45 -154.5s15 -116 45 -154s70.667 -57 122 -57s92 19 122 57s45 89.333 45 154z" />
    <glyph glyph-name="afii10081" unicode="&#x43f;" horiz-adv-x="571" 
d="M485 0h-65v462h-269v-462h-65v517h399v-517z" />
    <glyph glyph-name="afii10082" unicode="&#x440;" horiz-adv-x="583" 
d="M151 93c6 -4.66699 13.5 -9.66797 22.5 -15.001s19.5 -10.333 31.5 -15s25 -8.5 39 -11.5s28.667 -4.5 44 -4.5c32 0 58.833 5.5 80.5 16.5s39.167 26 52.5 45s23 41.333 29 67s9 52.834 9 81.501c0 68 -17 120.167 -51 156.5s-79 54.5 -135 54.5
c-32 0 -57.833 -1.5 -77.5 -4.5s-34.5 -6.16699 -44.5 -9.5v-361zM151 -185.001l-64.999 -0.00292969v684c19.333 6.66699 44 13 74 19s68 9 114 9c38 0 72.5 -6.16699 103.5 -18.5s57.667 -30.166 80 -53.499s39.666 -51.666 51.999 -84.999s18.5 -71 18.5 -113
c0 -39.333 -5.16699 -75.5 -15.5 -108.5s-25.5 -61.333 -45.5 -85s-44.5 -42.167 -73.5 -55.5s-62.167 -20 -99.5 -20c-34 0 -63.5 4.83301 -88.5 14.5s-43.167 18.834 -54.5 27.501v-215z" />
    <glyph glyph-name="afii10083" unicode="&#x441;" horiz-adv-x="460" 
d="M300 -11c-40 0 -75.332 6.33203 -105.999 18.999s-56.167 30.834 -76.5 54.501s-35.833 52 -46.5 85s-16 69.5 -16 109.5c0 40.667 5.5 77.667 16.5 111s26.833 62 47.5 86s45.667 42.5 75 55.5s62.333 19.5 99 19.5c28 0 54.167 -2.33301 78.5 -7
s43.166 -10.667 56.499 -18l-17 -56c-13.333 6.66699 -28.333 12 -45 16s-39 6 -67 6c-57.333 0 -100.833 -18.5 -130.5 -55.5s-44.5 -89.5 -44.5 -157.5c0 -30.667 3.33301 -58.834 10 -84.501s17.5 -47.667 32.5 -66s34.333 -32.666 58 -42.999s52.5 -15.5 86.5 -15.5
c28 0 51.5 3.16699 70.5 9.5s32.833 11.833 41.5 16.5l14 -56c-12 -6.66699 -30.833 -13.167 -56.5 -19.5s-52.5 -9.5 -80.5 -9.5z" />
    <glyph glyph-name="afii10084" unicode="&#x442;" horiz-adv-x="434" 
d="M419 517v-55h-170v-462h-65v462h-169v55h404z" />
    <glyph glyph-name="afii10085" unicode="&#x443;" horiz-adv-x="474" 
d="M227 -11c-22 40.667 -43.1621 83 -63.4951 127s-39.333 88.5 -57 133.5s-33.834 90 -48.501 135s-27.334 89.167 -38.001 132.5h69c7.33301 -32 16.666 -66.5 27.999 -103.5s24.166 -75.167 38.499 -114.5s30.166 -79.666 47.499 -120.999s36 -82 56 -122
c14.667 41.333 27.667 80.333 39 117s21.833 73.167 31.5 109.5s19 73.5 28 111.5l28.5 123h65c-21.333 -96.667 -45.666 -190.667 -72.999 -282s-57 -175 -89 -251c-12.667 -30 -25.667 -55.833 -39 -77.5s-28.166 -39.5 -44.499 -53.5s-35.333 -24.333 -57 -31
s-47.167 -10 -76.5 -10c-16.667 0 -31.834 2 -45.501 6s-22.167 7 -25.5 9l13 54c2.66699 -2 10.167 -4.83301 22.5 -8.5s25.166 -5.5 38.499 -5.5c18.667 0 35.5 2 50.5 6s28.5 10.833 40.5 20.5s22.833 22.167 32.5 37.5s19.167 34.666 28.5 57.999z" />
    <glyph glyph-name="afii10086" unicode="&#x444;" horiz-adv-x="754" 
d="M409 520c34.667 0 69.334 -5.16699 104.001 -15.5s65.834 -26.166 93.501 -47.499s50.167 -48.5 67.5 -81.5s26 -72.167 26 -117.5s-8.66699 -84.5 -26 -117.5s-39.833 -60.167 -67.5 -81.5s-58.834 -37.166 -93.501 -47.499s-69.334 -15.5 -104.001 -15.5v-181h-64v181
c-34.667 0 -69.334 5.16699 -104.001 15.5s-65.834 26.166 -93.501 47.499s-50.167 48.5 -67.5 81.5s-26 72.167 -26 117.5s8.66699 84.5 26 117.5s39.833 60.167 67.5 81.5s58.834 37.166 93.501 47.499s69.334 15.5 104.001 15.5v244l64 12v-256zM345 465
c-31.333 0 -60.666 -4.8291 -87.999 -14.4961s-51 -23.334 -71 -41.001s-35.667 -39.334 -47 -65.001s-17 -54.5 -17 -86.5s5.66699 -60.833 17 -86.5s27 -47.334 47 -65.001s43.667 -31.334 71 -41.001s56.666 -14.5 87.999 -14.5v414zM409 51.0039
c31.333 0 60.666 4.8291 87.999 14.4961s51 23.334 71 41.001s35.667 39.334 47 65.001s17 54.5 17 86.5s-5.66699 60.833 -17 86.5s-27 47.334 -47 65.001s-43.667 31.334 -71 41.001s-56.666 14.5 -87.999 14.5v-414z" />
    <glyph glyph-name="afii10087" unicode="&#x445;" horiz-adv-x="499" 
d="M248 234l-44 -60.999l-42.5 -63c-13.667 -20.667 -26.167 -40.5 -37.5 -59.5s-21 -35.833 -29 -50.5h-67c27.333 51.333 56 99.166 86 143.499l92 130.5l-168 243h76l134 -198l136 198h71l-165 -239l45 -61l48 -68.5c16 -23.667 31.5 -48.167 46.5 -73.5
s28.833 -50.333 41.5 -75h-70c-8 14.667 -17.667 31.5 -29 50.5s-23.833 38.833 -37.5 59.5l-43 63z" />
    <glyph glyph-name="afii10088" unicode="&#x446;" horiz-adv-x="575" 
d="M485 517v-462h59v-198h-63v143h-395v517h65v-462h269v462h65z" />
    <glyph glyph-name="afii10089" unicode="&#x447;" horiz-adv-x="518" 
d="M48 517l64.999 -0.000976562v-140c0 -48 10.833 -81 32.5 -99s52.834 -27 93.501 -27c34 0 60.5 1.66699 79.5 5s35.167 7.33301 48.5 12v249h65v-517h-65v213c-4.66699 -1.33301 -11.5 -3.16602 -20.5 -5.49902s-19.5 -4.5 -31.5 -6.5s-24.833 -3.83301 -38.5 -5.5
s-27.5 -2.5 -41.5 -2.5c-28.667 0 -54.5 3 -77.5 9s-42.667 16 -59 30s-28.833 32.5 -37.5 55.5s-13 51.5 -13 85.5v144z" />
    <glyph glyph-name="afii10090" unicode="&#x448;" horiz-adv-x="805" 
d="M719 0h-633v517h65v-462h219v462h65v-462h219v462h65v-517z" />
    <glyph glyph-name="afii10091" unicode="&#x449;" horiz-adv-x="809" 
d="M715 0h-629v517h65v-462h219v462h65v-462h219v462h65v-462h59v-198h-63v143z" />
    <glyph glyph-name="afii10092" unicode="&#x44a;" horiz-adv-x="579" 
d="M218 517l-0.000976562 -207.001c12 3.33301 29.833 6.83301 53.5 10.5s48.167 5.5 73.5 5.5c28 0 54.333 -3 79 -9s46.334 -15.667 65.001 -29s33.5 -30.666 44.5 -51.999s16.5 -47.333 16.5 -78s-5.5 -56.667 -16.5 -78s-26 -38.833 -45 -52.5s-41.667 -23.5 -68 -29.5
s-54.5 -9 -84.5 -9c-18 0 -36.167 0.666992 -54.5 2s-35.5 3 -51.5 5s-30.667 4.33301 -44 7s-24.333 5.66699 -33 9v450h-137v55h202zM335.999 46.999c44.667 0 80.332 8.5 106.999 25.5s40 45.5 40 85.5c0 18.667 -3.66699 35 -11 49s-17.166 25.5 -29.499 34.5
s-27 15.667 -44 20s-35.5 6.5 -55.5 6.5c-22 0 -44 -1 -66 -3s-41.667 -6 -59 -12v-196c8.66699 -2 24 -4.16699 46 -6.5s46 -3.5 72 -3.5z" />
    <glyph glyph-name="afii10093" unicode="&#x44b;" horiz-adv-x="734" 
d="M86 517l65.0049 -0.000976562v-207c12 3.33301 29.667 6.83301 53 10.5s46.666 5.5 69.999 5.5c26 0 51.167 -3 75.5 -9s45.666 -15.667 63.999 -29s33 -30.666 44 -51.999s16.5 -47.333 16.5 -78s-5.5 -56.667 -16.5 -78s-25.833 -38.833 -44.5 -52.5
s-40.834 -23.5 -66.501 -29.5s-52.834 -9 -81.501 -9c-17.333 0 -34.833 0.666992 -52.5 2s-34.334 3 -50.001 5s-30.167 4.33301 -43.5 7s-24.333 5.66699 -33 9v505zM265.005 46.999c42 0 76.1641 8.66797 102.497 26.001s39.5 45.666 39.5 84.999
c0 18.667 -3.66699 35 -11 49s-17.166 25.5 -29.499 34.5s-26.666 15.667 -42.999 20s-33.5 6.5 -51.5 6.5c-20.667 0 -41.667 -1 -63 -3s-40.666 -6 -57.999 -12v-196c8.66699 -2 23.667 -4.16699 45 -6.5s44.333 -3.5 69 -3.5zM648.002 0h-65v517h65v-517z" />
    <glyph glyph-name="afii10094" unicode="&#x44c;" horiz-adv-x="512" 
d="M86 517l64.999 -0.000976562v-207c12 3.33301 29.833 6.83301 53.5 10.5s48.167 5.5 73.5 5.5c28 0 54.333 -3 79 -9s46.334 -15.667 65.001 -29s33.5 -30.666 44.5 -51.999s16.5 -47.333 16.5 -78s-5.5 -56.667 -16.5 -78s-26 -38.833 -45 -52.5
s-41.667 -23.5 -68 -29.5s-54.5 -9 -84.5 -9c-18 0 -36.167 0.666992 -54.5 2s-35.5 3 -51.5 5s-30.667 4.33301 -44 7s-24.333 5.66699 -33 9v505zM268.999 46.999c44.667 0 80.332 8.5 106.999 25.5s40 45.5 40 85.5c0 18.667 -3.66699 35 -11 49
s-17.166 25.5 -29.499 34.5s-27 15.667 -44 20s-35.5 6.5 -55.5 6.5c-22 0 -44 -1 -66 -3s-41.667 -6 -59 -12v-196c8.66699 -2 24 -4.16699 46 -6.5s46 -3.5 72 -3.5z" />
    <glyph glyph-name="afii10095" unicode="&#x44d;" horiz-adv-x="477" 
d="M135 240l-0.00292969 55.001h217c-2.66699 24.667 -8 47.834 -16 69.501s-19.167 40.167 -33.5 55.5s-32 27.5 -53 36.5s-46.167 13.5 -75.5 13.5c-31.333 0 -56 -2.83301 -74 -8.5s-30.667 -10.834 -38 -15.501l-16 55c4 3.33301 10.667 6.66602 20 9.99902
s20 6.33301 32 9s24.833 4.83398 38.5 6.50098s26.834 2.5 39.501 2.5c43.333 0 80.5 -7.5 111.5 -22.5s56.5 -34.833 76.5 -59.5s34.667 -53.334 44 -86.001s14 -66.334 14 -101.001c0 -37.333 -4.66699 -72.5 -14 -105.5s-24.166 -61.667 -44.499 -86
s-46.333 -43.666 -78 -57.999s-69.834 -21.5 -114.501 -21.5c-31.333 0 -59.833 3.16699 -85.5 9.5s-44.5 12.833 -56.5 19.5l14 58c8 -5.33301 23.167 -11.333 45.5 -18s48.5 -10 78.5 -10c32.667 0 60.334 4.66699 83.001 14s41.334 22.5 56.001 39.5
s25.667 37.167 33 60.5s12 49.333 14 78h-218z" />
    <glyph glyph-name="afii10096" unicode="&#x44e;" horiz-adv-x="782" 
d="M727 258c0 -40.667 -5.66699 -77.668 -17 -111.001s-27.333 -61.666 -48 -84.999s-45 -41.5 -73 -54.5s-59 -19.5 -93 -19.5c-32.667 0 -62.667 6 -90 18s-51.333 29 -72 51s-37 48.5 -49 79.5s-18.667 65.833 -20 104.5h-114v-241h-65v517h65v-222h115
c3.33301 35.333 11.333 67.5 24 96.5s29 53.667 49 74s43.333 36 70 47s55.667 16.5 87 16.5c34 0 65 -6.5 93 -19.5s52.333 -31.333 73 -55s36.667 -52.167 48 -85.5s17 -70.333 17 -111zM658 257.999c0 32 -3.83301 61.167 -11.5 87.5s-18.5 48.666 -32.5 66.999
s-31 32.5 -51 42.5s-42.333 15 -67 15c-25.333 0 -48 -5 -68 -15s-37 -24.167 -51 -42.5s-24.667 -40.666 -32 -66.999s-11 -55.5 -11 -87.5c0 -64.667 14.5 -116 43.5 -154s68.5 -57 118.5 -57s89.5 19 118.5 57s43.5 89.333 43.5 154z" />
    <glyph glyph-name="afii10097" unicode="&#x44f;" horiz-adv-x="532" 
d="M220 211l-32.498 -50l-34 -55l-31.5 -55.5c-10 -18.333 -18.333 -35.166 -25 -50.499h-67c17.333 39.333 38.333 79 63 119s47.667 75 69 105c-13.333 4 -26.166 9.66699 -38.499 17s-23.333 16.666 -33 27.999s-17.5 24.833 -23.5 40.5s-9 33.5 -9 53.5
c0 28.667 5.5 53.334 16.5 74.001s26 37.667 45 51s41.667 23.333 68 30s54.5 10 84.5 10c13.333 0 28.166 -0.666992 44.499 -2s32.666 -3.16602 48.999 -5.49902s31.5 -4.83301 45.5 -7.5s25.667 -5.33398 35 -8.00098v-505h-65v208h-93
c-14.667 0 -27.834 0.166992 -39.501 0.5s-21.167 1.16602 -28.5 2.49902zM381.002 461c-8 2 -20.998 4.16895 -38.998 6.50195s-41 3.5 -69 3.5c-18.667 0 -36.834 -1.83301 -54.501 -5.5s-33.5 -9.83398 -47.5 -18.501s-25.167 -19.834 -33.5 -33.501
s-12.5 -30.5 -12.5 -50.5c0 -19.333 3.66699 -35.5 11 -48.5s17.666 -23.333 30.999 -31s29.5 -13.167 48.5 -16.5s40.167 -5 63.5 -5h102v199z" />
    <glyph glyph-name="uni0450" unicode="&#x450;" horiz-adv-x="548" 
d="M55 259c0 45.333 6.50098 84.8291 19.501 118.496s30 61.834 51 84.501s45 39.5 72 50.5s54.833 16.5 83.5 16.5c63.333 0 113.833 -20.667 151.5 -62s56.5 -105 56.5 -191c0 -5.33301 -0.166992 -10.666 -0.5 -15.999s-0.833008 -10.333 -1.5 -15h-363
c2 -63.333 17.667 -112 47 -146s76 -51 140 -51c35.333 0 63.333 3.33301 84 10s35.667 12.334 45 17.001l12 -56c-9.33301 -5.33301 -26.833 -11.666 -52.5 -18.999s-55.834 -11 -90.501 -11c-45.333 0 -84 6.66699 -116 20s-58.333 32 -79 56s-35.667 52.5 -45 85.5
s-14 69.167 -14 108.5zM422.001 299.996c-1.33301 54 -14 96.002 -38 126.002s-58 45 -102 45c-23.333 0 -44.166 -4.66699 -62.499 -14s-34.333 -21.833 -48 -37.5s-24.334 -33.834 -32.001 -54.501s-12.167 -42.334 -13.5 -65.001h296zM188.001 772.998l158 -152l-33 -38
l-171 139z" />
    <glyph glyph-name="afii10071" unicode="&#x451;" horiz-adv-x="548" 
d="M55 259c0 45.333 6.50098 84.8291 19.501 118.496s30 61.834 51 84.501s45 39.5 72 50.5s54.833 16.5 83.5 16.5c63.333 0 113.833 -20.667 151.5 -62s56.5 -105 56.5 -191c0 -5.33301 -0.166992 -10.666 -0.5 -15.999s-0.833008 -10.333 -1.5 -15h-363
c2 -63.333 17.667 -112 47 -146s76 -51 140 -51c35.333 0 63.333 3.33301 84 10s35.667 12.334 45 17.001l12 -56c-9.33301 -5.33301 -26.833 -11.666 -52.5 -18.999s-55.834 -11 -90.501 -11c-45.333 0 -84 6.66699 -116 20s-58.333 32 -79 56s-35.667 52.5 -45 85.5
s-14 69.167 -14 108.5zM422.001 299.996c-1.33301 54 -14 96.002 -38 126.002s-58 45 -102 45c-23.333 0 -44.166 -4.66699 -62.499 -14s-34.333 -21.833 -48 -37.5s-24.334 -33.834 -32.001 -54.501s-12.167 -42.334 -13.5 -65.001h296zM240.001 672.998
c0 -14.667 -4.33301 -26.334 -13 -35.001s-19.667 -13 -33 -13s-24.333 4.33301 -33 13s-13 20.334 -13 35.001s4.33301 26.334 13 35.001s19.667 13 33 13s24.333 -4.33301 33 -13s13 -20.334 13 -35.001zM412.001 672.998c0 -14.667 -4.33301 -26.334 -13 -35.001
s-19.667 -13 -33 -13s-24.333 4.33301 -33 13s-13 20.334 -13 35.001s4.33301 26.334 13 35.001s19.667 13 33 13s24.333 -4.33301 33 -13s13 -20.334 13 -35.001z" />
    <glyph glyph-name="afii10099" unicode="&#x452;" horiz-adv-x="569" 
d="M489 -26c0 -22.667 -1.33496 -43.834 -4.00195 -63.501s-8.33398 -36.667 -17.001 -51s-21.167 -25.5 -37.5 -33.5s-38.5 -12 -66.5 -12c-11.333 0 -21.666 0.833008 -30.999 2.5s-16.666 3.5 -21.999 5.5l9 53c8 -3.33301 20 -5 36 -5c25.333 0 43 7.5 53 22.5
s15 38.5 15 70.5v305c0 36.667 -2.5 67.667 -7.5 93s-13.333 46 -25 62s-27.167 27.5 -46.5 34.5s-43.666 10.5 -72.999 10.5c-11.333 0 -23.5 -1 -36.5 -3s-25.167 -4.16699 -36.5 -6.5s-21.5 -4.83301 -30.5 -7.5s-14.833 -4.66699 -17.5 -6v-445h-65v628h-80v52h80v84
l65 12v-96h187v-52h-187v-126c21.333 8 43 14.167 65 18.5s44 6.5 66 6.5c40 0 73.333 -5.66699 100 -17s48 -27.5 64 -48.5s27.167 -46.167 33.5 -75.5s9.5 -61.666 9.5 -96.999v-315z" />
    <glyph glyph-name="afii10100" unicode="&#x453;" horiz-adv-x="397" 
d="M382 462h-231v-462h-65v517h296v-55zM372 722l-171 -139l-33 38l158 152z" />
    <glyph glyph-name="afii10101" unicode="&#x454;" horiz-adv-x="477" 
d="M125 240c2 -28.667 6.66406 -54.668 13.9971 -78.001s18.333 -43.5 33 -60.5s33.334 -30.167 56.001 -39.5s50.334 -14 83.001 -14c30 0 56.167 3.33301 78.5 10s37.5 12.667 45.5 18l14 -58c-12 -6.66699 -30.833 -13.167 -56.5 -19.5s-54.167 -9.5 -85.5 -9.5
c-45.333 0 -83.833 7.16699 -115.5 21.5s-57.5 33.666 -77.5 57.999s-34.667 53 -44 86s-14 68.167 -14 105.5c0 34.667 4.66699 68.334 14 101.001s24 61.334 44 86.001s45.5 44.5 76.5 59.5s68.167 22.5 111.5 22.5c12.667 0 25.834 -0.833008 39.501 -2.5
s26.5 -3.83398 38.5 -6.50098s22.667 -5.66699 32 -9s16 -6.66602 20 -9.99902l-16 -55c-7.33301 4.66699 -20 9.83398 -38 15.501s-42.667 8.5 -74 8.5c-29.333 0 -54.5 -4.5 -75.5 -13.5s-38.667 -21.167 -53 -36.5s-25.5 -33.833 -33.5 -55.5
s-13.333 -44.834 -16 -69.501h217v-55h-218z" />
    <glyph glyph-name="afii10102" unicode="&#x455;" horiz-adv-x="428" 
d="M192 46c37.333 0 68.165 6.16992 92.498 18.5029s36.5 33.166 36.5 62.499c0 14 -2.16699 26 -6.5 36s-11.5 19 -21.5 27s-23.167 15.667 -39.5 23l-60.5 26c-19.333 8 -37.666 16.167 -54.999 24.5s-32.666 18 -45.999 29s-24 24.167 -32 39.5s-12 34 -12 56
c0 42 15.833 76 47.5 102s75.167 39 130.5 39c35.333 0 64.5 -3 87.5 -9s39.167 -11.333 48.5 -16l-15 -58c-8 4 -21.5 9.33301 -40.5 16s-46.833 10 -83.5 10c-14.667 0 -28.5 -1.5 -41.5 -4.5s-24.5 -7.66699 -34.5 -14s-18 -14.333 -24 -24s-9 -21.5 -9 -35.5
s2.66699 -26 8 -36s13.166 -18.833 23.499 -26.5s23 -14.834 38 -21.501l51.5 -22c20 -8 39.167 -16.167 57.5 -24.5s34.5 -18.333 48.5 -30s25.333 -25.667 34 -42s13 -36.833 13 -61.5c0 -46.667 -17.5 -82 -52.5 -106s-82.833 -36 -143.5 -36
c-45.333 0 -80 3.83301 -104 11.5s-40 13.5 -48 17.5l17 59c2 -1.33301 6.33301 -3.5 13 -6.5s15.667 -6.33301 27 -10s24.833 -6.83398 40.5 -9.50098s33.834 -4 54.501 -4z" />
    <glyph glyph-name="afii10103" unicode="&#x456;" horiz-adv-x="237" 
d="M151 0h-65v517h65v-517zM166 673c0 -15.333 -4.66699 -27.5 -14 -36.5s-20.666 -13.5 -33.999 -13.5s-24.666 4.5 -33.999 13.5s-14 21.167 -14 36.5s4.66699 27.5 14 36.5s20.666 13.5 33.999 13.5s24.666 -4.5 33.999 -13.5s14 -21.167 14 -36.5z" />
    <glyph glyph-name="afii10104" unicode="&#x457;" horiz-adv-x="237" 
d="M151 0h-65v517h65v-517zM79 673c0 -14.667 -4.33301 -26.334 -13 -35.001s-19.667 -13 -33 -13s-24.333 4.33301 -33 13s-13 20.334 -13 35.001s4.33301 26.334 13 35.001s19.667 13 33 13s24.333 -4.33301 33 -13s13 -20.334 13 -35.001zM251 673
c0 -14.667 -4.33301 -26.334 -13 -35.001s-19.667 -13 -33 -13s-24.333 4.33301 -33 13s-13 20.334 -13 35.001s4.33301 26.334 13 35.001s19.667 13 33 13s24.333 -4.33301 33 -13s13 -20.334 13 -35.001z" />
    <glyph glyph-name="afii10105" unicode="&#x458;" horiz-adv-x="237" 
d="M-11 -187c-7.33301 0 -16.499 0.998047 -27.499 2.99805s-19.167 4.33301 -24.5 7l9 53c4.66699 -1.33301 11 -2.66602 19 -3.99902s15.667 -2 23 -2c39.333 0 65.5 11 78.5 33s19.5 55 19.5 99v515h65v-512c0 -65.333 -12.333 -113.666 -37 -144.999
s-66.334 -47 -125.001 -47zM166.001 672.998c0 -15.333 -4.66699 -27.5 -14 -36.5s-20.666 -13.5 -33.999 -13.5s-24.666 4.5 -33.999 13.5s-14 21.167 -14 36.5s4.66699 27.5 14 36.5s20.666 13.5 33.999 13.5s24.666 -4.5 33.999 -13.5s14 -21.167 14 -36.5z" />
    <glyph glyph-name="afii10106" unicode="&#x459;" horiz-adv-x="846" 
d="M608 47c42 0 76.1641 8.66797 102.497 26.001s39.5 45.666 39.5 84.999c0 18.667 -3.66699 35 -11 49s-17.166 25.5 -29.499 34.5s-26.666 15.667 -42.999 20s-33.5 6.5 -51.5 6.5c-20.667 0 -41.667 -1 -63 -3s-40.666 -6 -57.999 -12v-196
c8.66699 -2 23.667 -4.16699 45 -6.5s44.333 -3.5 69 -3.5zM493.997 517.001l0.0078125 -207.002c12 3.33301 29.667 6.83301 53 10.5s46.666 5.5 69.999 5.5c26 0 51.167 -3 75.5 -9s45.666 -15.667 63.999 -29s33 -30.666 44 -51.999s16.5 -47.333 16.5 -78
s-5.5 -56.667 -16.5 -78s-25.833 -38.833 -44.5 -52.5s-40.834 -23.5 -66.501 -29.5s-52.834 -9 -81.501 -9c-17.333 0 -34.833 0.666992 -52.5 2s-34.334 3 -50.001 5s-30.167 4.33301 -43.5 7s-24.333 5.66699 -33 9v450h-190v-21c0 -20 -0.333008 -41.833 -1 -65.5
s-2 -47.834 -4 -72.501s-5.16699 -49.167 -9.5 -73.5s-9.83301 -47.166 -16.5 -68.499c-7.33301 -22 -16.5 -42.833 -27.5 -62.5s-24 -37 -39 -52s-32.333 -27.333 -52 -37s-41.834 -15.834 -66.501 -18.501l-9 54c33.333 7.33301 60.166 21 80.499 41
s37.166 48.333 50.499 85s21.833 78.834 25.5 126.501s5.5 99.834 5.5 156.501v63h318z" />
    <glyph glyph-name="afii10107" unicode="&#x45a;" horiz-adv-x="849" 
d="M432 243l-280.995 -0.000976562v-243h-65v517h65v-219h281v219h65v-207c12 3.33301 29.667 6.83301 53 10.5s46.666 5.5 69.999 5.5c26 0 51.167 -3 75.5 -9s45.666 -15.667 63.999 -29s33 -30.666 44 -51.999s16.5 -47.333 16.5 -78s-5.5 -56.667 -16.5 -78
s-25.833 -38.833 -44.5 -52.5s-40.834 -23.5 -66.501 -29.5s-52.834 -9 -81.501 -9c-17.333 0 -34.833 0.666992 -52.5 2s-34.334 3 -50.001 5s-30.167 4.33301 -43.5 7s-24.333 5.66699 -33 9v231zM611.005 46.999c42 0 76.1641 8.66797 102.497 26.001
s39.5 45.666 39.5 84.999c0 18.667 -3.66699 35 -11 49s-17.166 25.5 -29.499 34.5s-26.666 15.667 -42.999 20s-33.5 6.5 -51.5 6.5c-20.667 0 -41.667 -1 -63 -3s-40.666 -6 -57.999 -12v-196c8.66699 -2 23.667 -4.16699 45 -6.5s44.333 -3.5 69 -3.5z" />
    <glyph glyph-name="afii10108" unicode="&#x45b;" horiz-adv-x="569" 
d="M86 0l-0.000976562 627.999h-80v52h80v84l65 12v-96h187v-52h-187v-126c21.333 8 43 14.167 65 18.5s44 6.5 66 6.5c40 0 73.333 -5.66699 100 -17s48 -27.5 64 -48.5s27.167 -46.167 33.5 -75.5s9.5 -61.666 9.5 -96.999v-289h-65v268c0 36.667 -2.5 67.667 -7.5 93
s-13.333 46 -25 62s-27.167 27.5 -46.5 34.5s-43.666 10.5 -72.999 10.5c-11.333 0 -23.5 -1 -36.5 -3s-25.167 -4.16699 -36.5 -6.5s-21.5 -4.83301 -30.5 -7.5s-14.833 -4.66699 -17.5 -6v-445h-65z" />
    <glyph glyph-name="afii10109" unicode="&#x45c;" horiz-adv-x="506" 
d="M86 0l0.000976562 517h65v-239l62.5 60.5l67.5 67l61.5 63l45.5 48.5h78c-15.333 -17.333 -33.666 -36.833 -54.999 -58.5l-65.5 -65.5l-65 -64l-55.5 -53c22.667 -14.667 46.667 -32.834 72 -54.501s49.833 -45 73.5 -70s45.667 -50.667 66 -77
s37.5 -51.166 51.5 -74.499h-77c-16 24.667 -34.833 49.667 -56.5 75s-44.334 49.5 -68.001 72.5s-47.334 43.833 -71.001 62.5s-45.167 33.667 -64.5 45v-255h-65zM399.001 722l-171 -139l-33 38l158 152z" />
    <glyph glyph-name="uni045D" unicode="&#x45d;" horiz-adv-x="588" 
d="M438 434c-20 -24 -43.168 -54.334 -69.501 -91.001l-80 -116l-77.5 -121l-64 -106h-61v517h64v-414c16 28.667 35.833 61.834 59.5 99.501s48.834 75.667 75.501 114l80.5 110.5c27 35.333 52.167 65.333 75.5 90h61v-517h-64v434zM201.999 772.999l158 -152l-33 -38
l-171 139z" />
    <glyph glyph-name="afii10110" unicode="&#x45e;" horiz-adv-x="474" 
d="M227 -11c-22 40.667 -43.1621 83 -63.4951 127s-39.333 88.5 -57 133.5s-33.834 90 -48.501 135s-27.334 89.167 -38.001 132.5h69c7.33301 -32 16.666 -66.5 27.999 -103.5s24.166 -75.167 38.499 -114.5s30.166 -79.666 47.499 -120.999s36 -82 56 -122
c14.667 41.333 27.667 80.333 39 117s21.833 73.167 31.5 109.5s19 73.5 28 111.5l28.5 123h65c-21.333 -96.667 -45.666 -190.667 -72.999 -282s-57 -175 -89 -251c-12.667 -30 -25.667 -55.833 -39 -77.5s-28.166 -39.5 -44.499 -53.5s-35.333 -24.333 -57 -31
s-47.167 -10 -76.5 -10c-16.667 0 -31.834 2 -45.501 6s-22.167 7 -25.5 9l13 54c2.66699 -2 10.167 -4.83301 22.5 -8.5s25.166 -5.5 38.499 -5.5c18.667 0 35.5 2 50.5 6s28.5 10.833 40.5 20.5s22.833 22.167 32.5 37.5s19.167 34.666 28.5 57.999zM248.005 605
c-37.333 0 -68 10.333 -92 31s-39.333 50 -46 88l53 14c4 -22.667 12.833 -41.167 26.5 -55.5s33.167 -21.5 58.5 -21.5s44.833 7.16699 58.5 21.5s22.5 32.833 26.5 55.5l53 -14c-6.66699 -38 -22 -67.333 -46 -88s-54.667 -31 -92 -31z" />
    <glyph glyph-name="afii10193" unicode="&#x45f;" horiz-adv-x="571" 
d="M254 0h-168v517h65v-462h269v462h65v-517h-168v-145h-63v145z" />
    <glyph glyph-name="uni0462" unicode="&#x462;" horiz-adv-x="716" 
d="M369 424c49.333 0 93.333 -3.99902 132 -11.999s71.167 -20.5 97.5 -37.5s46.5 -39.167 60.5 -66.5s21 -60 21 -98c0 -72.667 -25.333 -126.834 -76 -162.501s-125 -53.5 -223 -53.5c-28 0 -58.167 1.5 -90.5 4.5s-60.5 7.83301 -84.5 14.5v577h-188v57h188v91h68v-91
h213v-57h-213v-166h95zM274 366.001l0.00292969 -306c12.667 -1.33301 27.834 -2.83301 45.501 -4.5s39.167 -2.5 64.5 -2.5c30 0 58.667 2.33301 86 7s51.166 13 71.499 25s36.666 28 48.999 48s18.5 45.333 18.5 76c0 32 -5.83301 58.167 -17.5 78.5
s-28.334 36.333 -50.001 48s-47.834 19.667 -78.501 24s-65 6.5 -103 6.5h-86z" />
    <glyph glyph-name="uni0463" unicode="&#x463;" horiz-adv-x="581" 
d="M338 47c44.667 0 80.332 8.5 106.999 25.5s40 45.5 40 85.5c0 18.667 -3.66699 35 -11 49s-17.166 25.5 -29.499 34.5s-27 15.667 -44 20s-35.5 6.5 -55.5 6.5c-22 0 -44 -1 -66 -3s-41.667 -6 -59 -12v-196c8.66699 -2 24 -4.16699 46 -6.5s46 -3.5 72 -3.5z
M388.998 517l-0.000976562 -55.001h-169v-152c12 3.33301 29.833 6.83301 53.5 10.5s48.167 5.5 73.5 5.5c28 0 54.333 -3 79 -9s46.334 -15.667 65.001 -29s33.5 -30.666 44.5 -51.999s16.5 -47.333 16.5 -78s-5.5 -56.667 -16.5 -78s-26 -38.833 -45 -52.5
s-41.667 -23.5 -68 -29.5s-54.5 -9 -84.5 -9c-18 0 -36.167 0.666992 -54.5 2s-35.5 3 -51.5 5s-30.667 4.33301 -44 7s-24.333 5.66699 -33 9v450h-140v55h140v247l65 12v-259h169z" />
    <glyph glyph-name="uni0472" unicode="&#x472;" horiz-adv-x="774" 
d="M712 347c0 -59.333 -8.66699 -111.666 -26 -156.999s-40.833 -83.166 -70.5 -113.499s-64.167 -53.166 -103.5 -68.499s-81 -23 -125 -23s-85.667 7.66699 -125 23s-73.833 38.166 -103.5 68.499s-53.167 68.166 -70.5 113.499s-26 97.666 -26 156.999
s8.66699 111.5 26 156.5s40.833 82.667 70.5 113s64.167 53.166 103.5 68.499s81 23 125 23s85.667 -7.66699 125 -23s73.833 -38.166 103.5 -68.499s53.167 -68 70.5 -113s26 -97.167 26 -156.5zM387 647c-38 0 -72.666 -6.83301 -103.999 -20.5s-58 -33.167 -80 -58.5
s-39 -56.5 -51 -93.5s-18 -78.5 -18 -124.5c14.667 15.333 33.167 28.833 55.5 40.5s51.5 17.5 87.5 17.5c25.333 0 47.833 -3.66699 67.5 -11s38.834 -15.5 57.501 -24.5s37.667 -17.167 57 -24.5s41.666 -11 66.999 -11c24.667 0 46.667 5 66 15s34.666 21 45.999 33
c-3.33301 40.667 -11.5 77.167 -24.5 109.5s-30.333 59.833 -52 82.5s-47.167 40 -76.5 52s-62 18 -98 18zM515.001 276c-25.333 0 -47.832 3.66797 -67.499 11.001s-38.834 15.5 -57.501 24.5s-37.667 17.167 -57 24.5s-41.666 11 -66.999 11
c-16 0 -30.833 -2.16699 -44.5 -6.5s-26 -10 -37 -17s-20.5 -14.5 -28.5 -22.5s-14 -15.333 -18 -22c11.333 -73.333 38.666 -130.5 81.999 -171.5s99 -61.5 167 -61.5c36 0 69 6.16699 99 18.5s55.833 30.166 77.5 53.499s39 51.833 52 85.5s20.833 71.5 23.5 113.5
c-14 -12 -31 -21.833 -51 -29.5s-44.333 -11.5 -73 -11.5z" />
    <glyph glyph-name="uni0473" unicode="&#x473;" horiz-adv-x="582" 
d="M527 258c0 -40.667 -5.83301 -77.667 -17.5 -111s-28 -61.666 -49 -84.999s-45.833 -41.5 -74.5 -54.5s-60.334 -19.5 -95.001 -19.5s-66.334 6.5 -95.001 19.5s-53.5 31.167 -74.5 54.5s-37.333 51.666 -49 84.999s-17.5 70.333 -17.5 111s5.83301 77.667 17.5 111
s28 61.833 49 85.5s45.833 42 74.5 55s60.334 19.5 95.001 19.5s66.334 -6.5 95.001 -19.5s53.5 -31.333 74.5 -55s37.333 -52.167 49 -85.5s17.5 -70.333 17.5 -111zM217 262c-20 0 -38.5029 -5.33203 -55.5029 -15.999s-28.5 -22.667 -34.5 -36
c7.33301 -50.667 25.333 -90.5 54 -119.5s65.334 -43.5 110.001 -43.5c50 0 89.5 17.5 118.5 52.5s45.167 82.167 48.5 141.5c-7.33301 -7.33301 -17.166 -14.166 -29.499 -20.499s-26.833 -9.5 -43.5 -9.5c-17.333 0 -32.666 2.66699 -45.999 8s-26.333 11.166 -39 17.499
s-25.5 12.166 -38.5 17.499s-27.833 8 -44.5 8zM381.997 265.001c16 0 30.501 3.16602 43.501 9.49902s23.167 14.166 30.5 23.499c-6.66699 53.333 -24.334 95.333 -53.001 126s-66 46 -112 46c-24 0 -46 -4.5 -66 -13.5s-37.167 -22 -51.5 -39s-25.833 -37.5 -34.5 -61.5
s-13.667 -51 -15 -81c8.66699 9.33301 20.334 18.5 35.001 27.5s33 13.5 55 13.5c17.333 0 32.666 -2.66699 45.999 -8s26.333 -11.166 39 -17.499s25.5 -12.166 38.5 -17.499s27.833 -8 44.5 -8z" />
    <glyph glyph-name="uni0474" unicode="&#x474;" horiz-adv-x="736" 
d="M345 0l-64.002 -0.00488281l-60 136.5l-60.5 147.5l-68 179l-82.5 230h76l58 -168.5l55 -154l55.5 -146.5l60.5 -146l195 514c9.33301 24.667 19 44.334 29 59.001s20.5 25.834 31.5 33.501s22.5 12.667 34.5 15s24.333 3.5 37 3.5c14 0 26.5 -1.66699 37.5 -5
s20.833 -7.5 29.5 -12.5s16.167 -10.5 22.5 -16.5s11.5 -11.333 15.5 -16l-32 -45c-7.33301 8.66699 -17 16.834 -29 24.501s-25.667 11.5 -41 11.5c-6.66699 0 -13.167 -0.833008 -19.5 -2.5s-12.666 -5.16699 -18.999 -10.5s-12.666 -13.166 -18.999 -23.499
s-12.833 -24.166 -19.5 -41.499z" />
    <glyph glyph-name="uni0475" unicode="&#x475;" horiz-adv-x="552" 
d="M355 415c6 18 11.9941 33.8301 17.9941 47.4971s13.5 25.334 22.5 35.001s20 17 33 22s29.167 7.5 48.5 7.5c15.333 0 29.333 -1.66699 42 -5s22.667 -6.66602 30 -9.99902l-15 -52c-4.66699 2.66699 -10.5 5.16699 -17.5 7.5s-17.167 3.5 -30.5 3.5
c-21.333 0 -36.666 -6 -45.999 -18s-17.666 -28.667 -24.999 -50l-140 -403h-66c-17.333 36 -34.666 74.333 -51.999 115s-34.166 83 -50.499 127s-31.833 89 -46.5 135s-28 92.667 -40 140h69c8 -35.333 17.833 -73.166 29.5 -113.499s24.334 -80.333 38.001 -120
s27.834 -78 42.501 -115s29 -69.833 43 -98.5z" />
    <glyph glyph-name="uni048A" unicode="&#x48a;" horiz-adv-x="717" 
d="M90 0v692.996h67v-564c20.667 36.667 47.167 79.667 79.5 129s67.166 99.833 104.499 151.5l114.5 152c39 49.667 75.5 93.5 109.5 131.5h54v-634h70c1.33301 -24.667 -0.833984 -49.167 -6.50098 -73.5s-13.667 -47.166 -24 -68.499s-22.333 -41 -36 -59
s-27.5 -33.333 -41.5 -46l-49 35c6.66699 6 14.334 14.167 23.001 24.5s17.334 22.333 26.001 36s16.334 28.334 23.001 44.001s11.667 31.834 15 48.501h-67v584c-20 -22.667 -42 -49.667 -66 -81l-74.5 -100.5l-77.5 -110l-74 -110l-64.5 -100.5
c-19.667 -31.333 -35.834 -58.666 -48.501 -81.999h-57zM354 760.996c-37.333 0 -68 10.333 -92 31s-39.333 50 -46 88l53 14c4 -22.667 12.833 -41.167 26.5 -55.5s33.167 -21.5 58.5 -21.5s44.833 7.16699 58.5 21.5s22.5 32.833 26.5 55.5l53 -14
c-6.66699 -38 -22 -67.333 -46 -88s-54.667 -31 -92 -31z" />
    <glyph glyph-name="uni048B" unicode="&#x48b;" horiz-adv-x="592" 
d="M438 434c-20 -24 -43.1689 -54.334 -69.502 -91.001l-80 -116l-77.5 -121l-64 -106h-61v517h64v-414c16 28.667 35.833 61.834 59.5 99.501s48.834 75.667 75.501 114l80.5 110.5c27 35.333 52.167 65.333 75.5 90h61v-462h62c1.33301 -24.667 -0.5 -48.167 -5.5 -70.5
s-12 -43 -21 -62s-19.333 -36 -31 -51s-23.167 -27.5 -34.5 -37.5l-45 33c4.66699 4 10.667 10.667 18 20s14.833 20 22.5 32s14.334 25 20.001 39s9.16699 28 10.5 42h-60v434zM293.998 604.999c-37.333 0 -68 10.333 -92 31s-39.333 50 -46 88l53 14
c4 -22.667 12.833 -41.167 26.5 -55.5s33.167 -21.5 58.5 -21.5s44.833 7.16699 58.5 21.5s22.5 32.833 26.5 55.5l53 -14c-6.66699 -38 -22 -67.333 -46 -88s-54.667 -31 -92 -31z" />
    <glyph glyph-name="uni048C" unicode="&#x48c;" horiz-adv-x="610" 
d="M277 434c100 0 174.5 -18.3311 223.5 -54.998s73.5 -91.334 73.5 -164.001c0 -70 -23.5 -124.333 -70.5 -163s-121.833 -58 -224.5 -58c-28 0 -58.167 1.5 -90.5 4.5s-60.5 7.83301 -84.5 14.5v542h-80v54h80v84h68v-84h137v-54h-137v-127
c11.333 1.33301 27.5 2.66602 48.5 3.99902s39.833 2 56.5 2zM281 375.002c-24 0 -45.334 -0.667969 -64.001 -2.00098s-33.667 -2.66602 -45 -3.99902v-309c12.667 -1.33301 27.834 -2.83301 45.501 -4.5s39.167 -2.5 64.5 -2.5c30 0 58.5 2.33301 85.5 7s50.5 13 70.5 25
s35.833 28.5 47.5 49.5s17.5 47.833 17.5 80.5c0 31.333 -5.5 57.333 -16.5 78s-26.333 37 -46 49s-43.167 20.5 -70.5 25.5s-57 7.5 -89 7.5z" />
    <glyph glyph-name="uni048D" unicode="&#x48d;" horiz-adv-x="523" 
d="M97 546l64.999 -0.000976562v-74h157v-53h-157v-113c12 3.33301 29.833 6.83301 53.5 10.5s48.167 5.5 73.5 5.5c28 0 54.333 -3 79 -9s46.334 -15.5 65.001 -28.5s33.5 -30.167 44.5 -51.5s16.5 -47 16.5 -77s-5.5 -55.667 -16.5 -77s-26 -38.666 -45 -51.999
s-41.667 -23 -68 -29s-54.5 -9 -84.5 -9c-18 0 -36.167 0.666992 -54.5 2s-35.5 3 -51.5 5s-30.667 4.33301 -44 7s-24.333 5.66699 -33 9v407h-80v53h80v74zM279.999 46.999c44.667 0 80.332 8.5 106.999 25.5s40 44.833 40 83.5c0 18.667 -3.66699 34.667 -11 48
s-17.166 24.5 -29.499 33.5s-27 15.667 -44 20s-35.5 6.5 -55.5 6.5c-22 0 -44 -1 -66 -3s-41.667 -6 -59 -12v-192c8.66699 -2 24 -4.16699 46 -6.5s46 -3.5 72 -3.5z" />
    <glyph glyph-name="uni048E" unicode="&#x48e;" horiz-adv-x="592" 
d="M427 140l-77 134c-30 -4 -62.667 -6 -98 -6h-94v-268h-68v680c24 6.66699 52.167 11.5 84.5 14.5s62.5 4.5 90.5 4.5c98 0 171 -18.667 219 -56s72 -90.333 72 -159c0 -54 -12.667 -96.667 -38 -128s-61 -54 -107 -68l67 -117zM268 640
c-25.333 0 -46.832 -0.832031 -64.499 -2.49902s-32.834 -3.16699 -45.501 -4.5v-306h86c26 0 50.667 1 74 3l-51 91l51 31l62 -110c33.333 9.33301 59.166 25.166 77.499 47.499s27.5 54.166 27.5 95.499c0 30.667 -6.16699 56 -18.5 76s-28.666 35.833 -48.999 47.5
s-43.5 19.834 -69.5 24.501s-52.667 7 -80 7z" />
    <glyph glyph-name="uni048F" unicode="&#x48f;" horiz-adv-x="583" 
d="M375 1c-12 -4 -24.668 -7.16895 -38.001 -9.50195s-27.666 -3.5 -42.999 -3.5c-34 0 -63.5 4.83301 -88.5 14.5s-43.167 18.834 -54.5 27.501v-215h-65v684c19.333 6.66699 44 13 74 19s68 9 114 9c38 0 72.5 -6.16699 103.5 -18.5s57.667 -30.166 80 -53.499
s39.666 -51.666 51.999 -84.999s18.5 -71 18.5 -113c0 -52 -8.66699 -97.833 -26 -137.5s-42.666 -70.834 -75.999 -93.501l54 -95l-48 -29zM150.999 92.998c6 -4.66699 13.5 -9.66699 22.5 -15s19.5 -10.333 31.5 -15s25 -8.5 39 -11.5s28.667 -4.5 44 -4.5
c20 0 39 2.66699 57 8l-68 120l48 29l70 -124c23.333 19.333 39.833 44.333 49.5 75s14.5 64.667 14.5 102c0 68 -17 120.167 -51 156.5s-79 54.5 -135 54.5c-32 0 -57.833 -1.5 -77.5 -4.5s-34.5 -6.16699 -44.5 -9.5v-361z" />
    <glyph glyph-name="afii10050" unicode="&#x490;" horiz-adv-x="482" 
d="M400 693v132h64v-191h-306v-634h-68v693h310z" />
    <glyph glyph-name="afii10098" unicode="&#x491;" horiz-adv-x="397" 
d="M382 462h-231v-462h-65v517h235v133h61v-188z" />
    <glyph glyph-name="uni0492" unicode="&#x492;" horiz-adv-x="496" 
d="M478 693v-59h-306v-252h149v-55h-149v-327h-68v327h-80v55h80v311h374z" />
    <glyph glyph-name="uni0493" unicode="&#x493;" horiz-adv-x="398" 
d="M383 462h-231v-195h152v-53h-152v-214h-65v214h-70v53h70v250h296v-55z" />
    <glyph glyph-name="uni0494" unicode="&#x494;" horiz-adv-x="601" 
d="M297 374c-16 0 -31.5 -0.831055 -46.5 -2.49805s-28.833 -3.83398 -41.5 -6.50098s-23.334 -5.16699 -32.001 -7.5s-15 -4.5 -19 -6.5v-351h-68v693h388v-59h-320v-224c10 4.66699 28 9.83398 54 15.501s55.333 8.5 88 8.5c46 0 85.5 -7.33301 118.5 -22
s60.333 -35.5 82 -62.5s37.667 -59.667 48 -98s15.5 -80.833 15.5 -127.5c0 -44.667 -5.66699 -85.834 -17 -123.501s-28 -70.334 -50 -98.001s-49 -49.167 -81 -64.5s-68.333 -23 -109 -23c-10 0 -20.5 0.333008 -31.5 1s-18.5 1.66699 -22.5 3l5 59
c3.33301 -1.33301 9.33301 -2.16602 18 -2.49902s16.667 -0.5 24 -0.5c26.667 0 51.834 5.16699 75.501 15.5s44.167 25.833 61.5 46.5s31 46.667 41 78s15 67.666 15 108.999c0 79.333 -16.833 140.833 -50.5 184.5s-82.167 65.5 -145.5 65.5z" />
    <glyph glyph-name="uni0495" unicode="&#x495;" horiz-adv-x="533" 
d="M281 319c38 0 70.6709 -5.83301 98.0039 -17.5s49.666 -28.167 66.999 -49.5s30 -47.166 38 -77.499s12 -64.5 12 -102.5s-4.5 -72.833 -13.5 -104.5s-22.333 -58.834 -40 -81.501s-39.834 -40.334 -66.501 -53.001s-57.334 -19 -92.001 -19
c-6 0 -12.833 0.333008 -20.5 1s-13.167 1.66699 -16.5 3l5 56c1.33301 -0.666992 4.66602 -1.33398 9.99902 -2.00098s11.333 -1 18 -1c21.333 0 41 3.66699 59 11s33.5 19.166 46.5 35.499s23.167 37.333 30.5 63s11 56.834 11 93.501c0 66.667 -13.167 114.5 -39.5 143.5
s-64.833 43.5 -115.5 43.5c-13.333 0 -26.5 -0.833008 -39.5 -2.5s-25 -3.66699 -36 -6s-20.667 -4.66602 -29 -6.99902s-13.833 -4.16602 -16.5 -5.49902v-240h-65v517h332v-55h-267v-165c18.667 7.33301 39.5 12.833 62.5 16.5s45.5 5.5 67.5 5.5z" />
    <glyph glyph-name="uni0496" unicode="&#x496;" horiz-adv-x="864" 
d="M22 0c16.667 30.667 36.5 62.667 59.5 96s47.833 66 74.5 98s53.834 62.833 81.501 92.5s54.5 56.167 80.5 79.5l-64 73.5l-78 90l-77.5 90l-61.5 73.5h79l52 -64l72 -85.5l78.5 -92l72.5 -83.5v325h64v-325l72.5 83.5l78.5 92l72 85.5l52 64h78l-61 -73.5l-77 -89.5
l-78 -89.5l-64 -73.5c22 -20 44.667 -42.167 68 -66.5s46.5 -49.833 69.5 -76.5s45.167 -54 66.5 -82s40.666 -55.667 57.999 -83h68v-244h-65v185h-44c-16.667 30 -37.5 61.833 -62.5 95.5s-51.167 66.167 -78.5 97.5s-54.5 60.333 -81.5 87s-50.833 48.334 -71.5 65.001
v-345h-64v345c-21.333 -16.667 -45.333 -38.334 -72 -65.001s-53.667 -55.667 -81 -87s-53.5 -63.833 -78.5 -97.5s-45.833 -65.5 -62.5 -95.5h-75z" />
    <glyph glyph-name="uni0497" unicode="&#x497;" horiz-adv-x="741" 
d="M679 517l-49.4971 -58.0029l-56 -64l-56 -63l-50.5 -56c18 -13.333 36.333 -28.666 55 -45.999s37 -35.666 55 -54.999s35.167 -39.166 51.5 -59.499s31.5 -40.5 45.5 -60.5h61v-198h-63v143h-36c-15.333 24 -33.333 49.167 -54 75.5s-42 51.333 -64 75
s-43.833 45 -65.5 64s-40.834 32.833 -57.501 41.5v-256h-64v256c-16.667 -8.66699 -35.834 -22.5 -57.501 -41.5s-43.5 -40.333 -65.5 -64s-43.5 -48.667 -64.5 -75s-38.833 -51.5 -53.5 -75.5h-72c12.667 22.667 28.167 46.667 46.5 72s38.166 50.333 59.499 75
s43.5 48 66.5 70s45.833 41.333 68.5 58l-50.5 56l-56 63.5l-56.5 64l-50 58.5h75l94 -111l116 -130v241h64v-241l116 130l94 111h74z" />
    <glyph glyph-name="uni0498" unicode="&#x498;" horiz-adv-x="555" 
d="M268 -36c18.667 -8 33.5039 -17.833 44.5039 -29.5s16.5 -27.167 16.5 -46.5c0 -8 -1.33301 -16.5 -4 -25.5s-7.66699 -17.167 -15 -24.5s-17.333 -13.333 -30 -18s-29 -7 -49 -7c-13.333 0 -27 1.16699 -41 3.5s-24 5.16602 -30 8.49902l8 43
c7.33301 -3.33301 15.666 -5.66602 24.999 -6.99902s20.666 -2 33.999 -2c27.333 0 41 9.66699 41 29c0 11.333 -4.66699 20 -14 26s-24 13 -44 21c2 7.33301 5 15.333 9 24s8.33301 17.334 13 26.001c-25.333 0 -48.833 1.66699 -70.5 5s-41.167 7.5 -58.5 12.5
s-32 10 -44 15s-21.333 9.5 -28 13.5l22 59c6.66699 -4 15.667 -8.5 27 -13.5s24.5 -10 39.5 -15s31.833 -9.16699 50.5 -12.5s39 -5 61 -5c28.667 0 55 2.5 79 7.5s44.667 13.333 62 25s30.833 26.667 40.5 45s14.5 40.833 14.5 67.5c0 30.667 -6 55.667 -18 75
s-28.5 34.5 -49.5 45.5s-45.833 18.667 -74.5 23s-59.334 6.5 -92.001 6.5h-46v58h59c22 0 44.333 2.16699 67 6.5s43.167 11.5 61.5 21.5s33.333 23.667 45 41s17.5 39 17.5 65c0 34 -13.333 62.167 -40 84.5s-66.334 33.5 -119.001 33.5c-32 0 -62 -4 -90 -12
s-51.667 -18.667 -71 -32l-24 57c17.333 11.333 42.666 21.833 75.999 31.5s70 14.5 110 14.5c34 0 65 -3.5 93 -10.5s52 -17.667 72 -32s35.667 -32.5 47 -54.5s17 -48 17 -78c0 -18 -3 -35.333 -9 -52s-14.667 -32 -26 -46s-25.666 -26.167 -42.999 -36.5
s-37.333 -17.833 -60 -22.5c22 -4 43.333 -10.667 64 -20s38.667 -21.5 54 -36.5s27.666 -33.333 36.999 -55s14 -46.834 14 -75.501c0 -33.333 -5.33301 -62 -16 -86s-25.667 -44.167 -45 -60.5s-42.666 -29 -69.999 -38s-57.333 -14.833 -90 -17.5
c-2 -4 -3.83301 -8 -5.5 -12z" />
    <glyph glyph-name="uni0499" unicode="&#x499;" horiz-adv-x="477" 
d="M235 -36c18.667 -8 33.502 -17.834 44.502 -29.501s16.5 -27.167 16.5 -46.5c0 -8 -1.33301 -16.5 -4 -25.5s-7.66699 -17.167 -15 -24.5s-17.333 -13.333 -30 -18s-29 -7 -49 -7c-13.333 0 -27 1.16699 -41 3.5s-24 5.16602 -30 8.49902l8 43
c7.33301 -3.33301 15.666 -5.66602 24.999 -6.99902s20.666 -2 33.999 -2c27.333 0 41 9.66699 41 29c0 11.333 -4.66699 20 -14 26s-24 13 -44 21c2.66699 7.33301 6 15.833 10 25.5s8.33301 18.834 13 27.501c-45.333 0.666992 -81.833 4.83398 -109.5 12.501
s-45.167 13.5 -52.5 17.5l17 59c2 -1.33301 6.5 -3.5 13.5 -6.5s16.833 -6.33301 29.5 -10s28 -6.83398 46 -9.50098s38.667 -4 62 -4c46.667 0 83.334 7.83301 110.001 23.5s40 39.167 40 70.5c0 22.667 -5 40.667 -15 54s-22.5 23.666 -37.5 30.999s-31 12.166 -48 14.499
s-32.5 3.5 -46.5 3.5h-72v55h67c12 0 25.833 1 41.5 3s30.167 6 43.5 12s24.666 14.5 33.999 25.5s14 25.5 14 43.5c0 17.333 -3.83301 31.666 -11.5 42.999s-17.834 20.333 -30.501 27s-27.167 11.334 -43.5 14.001s-32.833 4 -49.5 4c-38 0 -68 -3.83301 -90 -11.5
s-37 -13.5 -45 -17.5l-15 58c9.33301 4.66699 27 10.5 53 17.5s58.333 10.5 97 10.5c66 0 116 -12 150 -36s51 -59.667 51 -107c0 -29.333 -8.66699 -53.166 -26 -71.499s-37.666 -31.166 -60.999 -38.499c32.667 -9.33301 58.667 -25 78 -47s29 -51 29 -87
c0 -46 -15 -81.5 -45 -106.5s-74 -39.833 -132 -44.5l-6 -14z" />
    <glyph glyph-name="uni049A" unicode="&#x49a;" horiz-adv-x="628" 
d="M513 0c-22.667 34.667 -48.1709 68.999 -76.5039 102.999s-58.166 66 -89.499 96s-63.166 57.333 -95.499 82s-63.5 45.334 -93.5 62.001v-343h-68v693h68v-323l84.5 78.5l92 89.5l85.5 86c26.667 27.333 48 50.333 64 69h82l-70 -73.5l-87 -87.5l-91.5 -88.5
l-81.5 -76.5c24.667 -15.333 51.334 -34.833 80.001 -58.5s57.334 -49.5 86.001 -77.5s56 -56.833 82 -86.5s48.667 -58.167 68 -85.5h70v-244h-65v185h-44z" />
    </font>
</defs>
</svg>
